<svg width="303" height="313" viewBox="0 0 303 313" fill="none" xmlns="http://www.w3.org/2000/svg">
<rect width="303" height="313" rx="45" fill="url(#paint0_linear_209_2)"/>
<path d="M119.558 26.201C130.335 24.897 136.639 24.8797 147.42 26.201C160.048 27.7489 166.476 29.7107 177.892 35.2401C186.883 39.5953 192.62 42.6336 200.227 49.3055C208.085 56.1985 212.116 60.7441 217.979 69.3671C223.87 78.033 227.024 83.4005 230.17 93.496C232.497 100.962 232.92 105.457 233.729 113.066C234.905 124.112 234.948 130.517 233.729 141.571C232.922 148.886 232.406 158.846 227.613 168.773C227.417 169.179 227.161 169.686 226.957 170.085C226.854 170.286 226.763 170.462 226.698 170.588C226.666 170.651 226.639 170.701 226.621 170.736C226.612 170.753 226.605 170.767 226.601 170.776C226.598 170.781 226.596 170.785 226.595 170.787C226.594 170.788 226.593 170.789 226.593 170.79V170.791L225.884 172.152L224.54 171.413L211.016 163.981L209.942 163.391L210.305 162.223L210.306 162.221C210.306 162.219 210.307 162.217 210.308 162.215C210.309 162.209 210.312 162.2 210.315 162.188C210.323 162.165 210.333 162.129 210.348 162.082C210.376 161.988 210.419 161.848 210.474 161.667C210.583 161.304 210.741 160.776 210.934 160.115C211.319 158.793 211.843 156.941 212.399 154.828C213.517 150.583 214.745 145.349 215.249 141.224C216.38 131.97 216.214 127.266 215.246 118.33C214.337 109.932 213.721 105.217 210.831 97.4305C207.412 88.2163 203.982 83.3126 198.047 75.5731C191.984 67.6665 187.899 63.9719 179.437 58.6229C172.726 54.3816 168.783 52.2903 161.279 49.8837C152.721 47.1388 147.925 45.5403 139.147 45.0087C129.944 44.4513 124.685 45.3565 115.573 47.4462C106.354 49.5603 101.252 51.3195 92.9385 55.7147C86.6211 59.0545 84.0139 61.0111 78.7559 65.8729C74.0345 70.2384 71.088 73.291 67.4678 78.4843L67.2959 78.7313C62.5979 85.4701 59.9111 89.3309 57.1475 96.9276C54.3582 104.595 53.1891 109.281 52.2266 117.357C51.2817 125.285 51.4168 130.785 52.2295 138.783C53.0128 146.492 54.6193 149.568 57.1621 157.251C59.8266 165.302 61.8592 169.626 65.5879 177.341C69.8888 186.239 72.4929 190.664 77.9863 198.917C85.2793 209.874 89.8587 215.913 98.3818 225.972C101.929 230.158 106.671 235.587 110.531 239.975C112.46 242.168 114.168 244.1 115.393 245.482C116.005 246.173 116.496 246.728 116.835 247.109C117.004 247.3 117.135 247.447 117.224 247.547C117.268 247.597 117.302 247.635 117.324 247.66C117.335 247.673 117.344 247.682 117.35 247.688C117.352 247.691 117.355 247.695 117.356 247.696L117.357 247.697L134.695 267.158L159.835 236.774L156.605 232.383C156.596 232.374 156.586 232.364 156.576 232.354C156.498 232.278 156.387 232.167 156.251 232.029C155.98 231.754 155.609 231.366 155.207 230.91C154.431 230.031 153.43 228.78 152.874 227.565C152.231 226.162 151.966 224.338 151.846 222.993C151.784 222.296 151.757 221.677 151.745 221.231C151.739 221.008 151.738 220.827 151.737 220.7V220.493L151.27 196.013C150.868 196.064 150.412 196.125 149.921 196.185C148.209 196.398 146.06 196.648 144.365 196.793C140.471 197.125 138.211 197.339 134.221 197.293C127.476 197.215 123.493 196.983 116.862 195.267C109.921 193.472 106.163 191.64 100.007 188.203C93.8925 184.789 90.2112 182.667 85.1709 177.564C79.8939 172.222 77.8893 168.246 74.4219 161.902C70.4056 154.554 68.0572 150.078 66.2705 141.72C64.1222 131.67 64.3201 125.437 66.2646 115.411C68.3374 104.724 71.1926 98.4706 77.5166 89.6102C82.7319 82.3032 85.1673 79.0217 92.8574 73.4452C100.488 67.9121 107.137 64.4829 116.844 61.8407C125.338 59.5286 130.597 59.1099 139.358 59.8153C151.039 60.7558 158.161 63.194 167.941 68.3915C175.466 72.3901 179.165 75.089 184.825 81.0428C190.87 87.402 193.492 91.9503 197.099 99.7391C200.046 106.104 201.131 110.069 202.219 116.945C202.877 121.103 202.871 126.417 202.712 130.624C202.632 132.741 202.512 134.605 202.412 135.939C202.362 136.607 202.317 137.143 202.284 137.514C202.268 137.699 202.254 137.843 202.245 137.941C202.241 137.99 202.237 138.028 202.234 138.054C202.233 138.066 202.232 138.076 202.231 138.083C202.231 138.086 202.231 138.089 202.23 138.091V138.094L202.227 138.127L202.223 138.159L200.737 137.945L202.223 138.16L202.222 138.162C202.221 138.164 202.221 138.166 202.221 138.169C202.22 138.175 202.219 138.183 202.218 138.194C202.215 138.216 202.209 138.248 202.203 138.29C202.191 138.373 202.173 138.496 202.148 138.653C202.1 138.968 202.028 139.425 201.935 139.991C201.748 141.123 201.473 142.701 201.121 144.481C200.423 148.018 199.404 152.448 198.141 155.782C197.141 158.42 195.499 162.165 194.119 165.225C193.564 166.456 193.048 167.582 192.63 168.49L203.181 168.09L203.209 168.089H203.283C203.312 168.089 203.353 168.089 203.405 168.09C203.509 168.091 203.659 168.093 203.842 168.097C204.207 168.104 204.71 168.12 205.265 168.152C206.309 168.213 207.75 168.34 208.711 168.659C209.854 169.039 210.902 169.802 211.601 170.383C211.965 170.686 212.269 170.967 212.482 171.175C212.589 171.279 212.674 171.366 212.734 171.428C212.757 171.451 212.776 171.471 212.791 171.487L265.776 222.398L265.822 222.442L265.864 222.49L264.737 223.48C265.827 222.523 265.864 222.491 265.865 222.49V222.491L265.867 222.492C265.868 222.493 265.869 222.495 265.87 222.497C265.873 222.5 265.878 222.505 265.883 222.511C265.893 222.522 265.906 222.538 265.923 222.558C265.957 222.599 266.006 222.656 266.066 222.728C266.187 222.874 266.356 223.083 266.558 223.344C266.959 223.865 267.496 224.603 268.033 225.471C269.065 227.138 270.27 229.554 270.237 231.906C270.221 233.115 269.804 234.346 269.293 235.434C268.773 236.543 268.098 237.62 267.447 238.549C266.793 239.481 266.144 240.291 265.659 240.867C265.416 241.156 265.213 241.387 265.069 241.549C264.997 241.629 264.941 241.693 264.9 241.737C264.88 241.759 264.864 241.776 264.853 241.788C264.847 241.794 264.843 241.799 264.84 241.803C264.838 241.804 264.836 241.805 264.835 241.807L264.834 241.808H264.833L263.737 240.785L264.833 241.809L264.819 241.823L264.806 241.838L226.306 280.896L226.196 281.008L226.065 281.095L226.063 281.096C226.063 281.096 226.062 281.098 226.061 281.099C226.058 281.1 226.053 281.102 226.049 281.105C226.039 281.112 226.025 281.121 226.008 281.132C225.973 281.154 225.924 281.186 225.861 281.225C225.736 281.305 225.557 281.417 225.333 281.552C224.886 281.82 224.258 282.182 223.53 282.554C222.125 283.272 220.162 284.128 218.384 284.303C216.051 284.532 213.377 283.654 211.458 282.853C210.463 282.438 209.598 282.012 208.982 281.689C208.674 281.528 208.425 281.391 208.252 281.294C208.166 281.245 208.097 281.207 208.05 281.18C208.026 281.166 208.007 281.154 207.994 281.146C207.988 281.143 207.982 281.14 207.979 281.138C207.977 281.136 207.975 281.135 207.974 281.135L207.972 281.134L207.971 281.133L207.843 281.057L207.731 280.956L173.833 250.308L143.841 282.838L143.807 282.875L143.771 282.909L143.765 282.915C143.761 282.918 143.756 282.923 143.751 282.928C143.74 282.938 143.726 282.951 143.707 282.969C143.669 283.004 143.614 283.054 143.545 283.116C143.406 283.241 143.208 283.417 142.959 283.628C142.463 284.047 141.76 284.611 140.936 285.184C139.357 286.284 137.067 287.613 134.842 287.767C132.284 287.945 129.551 286.592 127.665 285.43C126.678 284.821 125.831 284.207 125.231 283.745C124.931 283.513 124.689 283.318 124.521 283.18C124.438 283.11 124.372 283.055 124.326 283.016C124.303 282.996 124.285 282.981 124.272 282.97C124.266 282.964 124.261 282.959 124.257 282.956C124.255 282.954 124.253 282.953 124.252 282.952L124.25 282.95C124.252 282.947 124.295 282.897 125.237 281.821L124.249 282.95L124.188 282.895L124.133 282.836L99.6328 256.137L99.627 256.131L99.6221 256.125L100.737 255.123L99.6211 256.125V256.124C99.6205 256.123 99.6191 256.123 99.6182 256.122C99.6163 256.12 99.614 256.116 99.6104 256.112C99.6029 256.104 99.5917 256.091 99.5771 256.075C99.5477 256.042 99.5034 255.993 99.4463 255.93C99.3318 255.802 99.163 255.612 98.9453 255.368C98.5097 254.879 97.8778 254.168 97.0928 253.278C95.5225 251.499 93.3376 249.005 90.8789 246.144C85.9677 240.431 79.9393 233.23 75.5361 227.345C69.3286 219.047 66.0212 214.235 60.4717 205.496C55.0927 197.026 51.7987 192.25 47.3867 183.095C42.8605 173.702 40.6778 168.159 37.7959 158.137C35.4455 149.963 34.09 145.195 33.2451 136.609C32.4954 128.991 32.7166 124.619 33.2412 117.076C33.9834 106.407 35.1959 100.077 38.8262 89.9745C42.2308 80.5003 44.6061 75.5924 50.5195 67.3573C56.6804 58.7777 61.617 53.5403 69.7832 46.8046C78.6305 39.5071 83.4416 36.4515 94.1885 32.2274C103.677 28.4979 109.517 27.4159 119.558 26.201Z" fill="#122231"/>
<path d="M189.238 188.376L184.238 179.477H198.238C198.238 179.477 202.732 179.319 205.238 180.466C208.245 181.842 212.238 186.399 212.238 186.399L251.738 224.963C251.738 224.963 255.549 228.305 255.738 230.896C255.894 233.05 253.738 235.346 253.738 235.346L220.738 268.967C220.738 268.967 217.212 272 214.738 271.439C213.101 271.067 211.238 268.967 211.238 268.967L169.738 228.424C169.738 228.424 166.314 224.858 165.238 221.997C164.409 219.795 164.238 184.421 164.238 184.421C164.238 184.421 164.948 181.853 166.238 180.96C167.686 179.958 169.046 179.957 170.738 180.466C172.46 180.983 173.001 182.139 174.238 183.432C176.884 186.199 179.238 191.837 179.238 191.837C179.238 191.837 176.724 194.264 176.238 196.287C175.47 199.48 175.796 202.23 177.238 205.187C178.885 208.563 181.508 209.952 185.238 210.625C188.78 211.265 191.404 210.844 194.238 208.648C196.716 206.727 197.433 205.724 198.238 202.715C199.037 199.728 198.808 196.419 196.738 193.321C194.797 190.416 189.238 188.376 189.238 188.376Z" fill="#ED752B" stroke="#F67E2E" stroke-width="3"/>
<path d="M92.2378 110.258C92.2378 110.258 86.4575 108.585 85.2377 108.775C83.0813 109.112 82.1753 111.588 81.2377 114.214C80.1955 117.132 80.3129 120.019 80.2378 123.113C80.191 125.044 80.4887 126.627 80.7378 128.552C81.1656 131.858 81.2513 132.781 82.2378 135.968C83.1082 138.78 83.8198 140.385 85.2377 142.89C86.862 145.759 87.6885 147.206 90.2377 149.317C92.9858 151.593 95.3366 153.142 98.7377 154.262C102.831 155.609 105.94 156.106 110.238 155.745C115.102 155.336 118.098 154.279 122.738 152.778C126.084 151.697 127.326 151.163 130.738 150.306C132.668 149.822 133.747 149.289 135.738 149.317C138.393 149.355 139.209 149.504 141.738 150.306C144.089 151.053 145.395 152.006 147.738 152.778C151.838 154.13 153.934 154.361 158.238 154.756C161.952 155.097 165.174 154.859 168.738 153.767C173.344 152.356 177 150.874 180.238 147.34C183.58 143.691 184.844 140.694 186.238 135.968C187.723 130.933 188.238 122.619 187.738 117.18C187.293 112.339 186.238 109.764 184.238 108.775C182.628 107.979 173.238 111.247 173.238 111.247C168.344 112.554 164.684 113.612 159.738 114.708C153.567 116.076 152.504 116.339 146.238 117.18C141.366 117.834 137.154 118.126 132.238 118.169C126.933 118.215 122.972 118.033 117.738 117.18C111.008 116.084 92.2378 110.258 92.2378 110.258Z" fill="white" stroke="#122231" stroke-width="3"/>
<path d="M105.738 126.574C105.738 126.574 103.53 127.03 102.238 128.552C101.395 129.544 101.065 130.759 100.738 132.013C100.347 133.508 100.299 134.486 100.738 135.968C101.286 137.821 102.222 138.706 103.738 139.924C105.093 141.013 106.053 141.447 107.738 141.901C109.998 142.511 112.007 142.612 114.238 141.901C115.736 141.424 116.416 141.194 117.238 139.924C118.504 137.964 118.867 136.231 118.238 133.99C117.672 131.978 117.279 130.726 115.238 129.046C113.196 127.367 112.738 127.069 110.738 126.574C108.738 126.08 105.738 126.574 105.738 126.574Z" fill="#122231"/>
<path d="M152.238 130.529C150.738 132.507 150.238 133.002 149.738 134.979C149.238 136.957 149.935 138.366 150.738 139.924C151.893 142.167 155.238 142.396 155.238 142.396C155.238 142.396 159.063 142.765 161.238 141.901C163.164 141.136 165.238 139.429 165.238 139.429C165.238 139.429 166.428 138.392 167.238 136.463C167.854 134.992 168.361 133.6 168.238 132.013C168.143 130.795 167.931 129.562 167.238 128.552C166.203 127.045 164.238 126.574 164.238 126.574C164.238 126.574 161.13 126.097 159.238 126.574C157.29 127.066 156.238 127.563 156.238 127.563C156.238 127.563 153.738 128.552 152.238 130.529Z" fill="#122231"/>
<path d="M105.738 126.574C105.738 126.574 103.53 127.03 102.238 128.552C101.395 129.544 101.065 130.759 100.738 132.013C100.347 133.508 100.299 134.486 100.738 135.968C101.286 137.821 102.222 138.706 103.738 139.924C105.093 141.013 106.053 141.447 107.738 141.901C109.998 142.511 112.007 142.612 114.238 141.901C115.736 141.424 116.416 141.194 117.238 139.924C118.504 137.964 118.867 136.231 118.238 133.99C117.672 131.978 117.279 130.726 115.238 129.046C113.196 127.367 112.738 127.069 110.738 126.574C108.738 126.08 105.738 126.574 105.738 126.574Z" stroke="#122231" stroke-width="3"/>
<path d="M152.238 130.529C150.738 132.507 150.238 133.002 149.738 134.979C149.238 136.957 149.935 138.366 150.738 139.924C151.893 142.167 155.238 142.396 155.238 142.396C155.238 142.396 159.063 142.765 161.238 141.901C163.164 141.136 165.238 139.429 165.238 139.429C165.238 139.429 166.428 138.392 167.238 136.463C167.854 134.992 168.361 133.6 168.238 132.013C168.143 130.795 167.931 129.562 167.238 128.552C166.203 127.045 164.238 126.574 164.238 126.574C164.238 126.574 161.13 126.097 159.238 126.574C157.29 127.066 156.238 127.563 156.238 127.563C156.238 127.563 153.738 128.552 152.238 130.529Z" stroke="#122231" stroke-width="3"/>
<path d="M209.719 203.568L224.219 255.482L224.286 255.722L224.136 255.919L221.136 259.875L220.53 260.674L220.257 259.709L205.257 206.806L205.169 206.496L205.414 206.288L208.914 203.321L209.51 202.817L209.719 203.568ZM227.121 221.511C228.526 221.175 229.449 221.175 230.854 221.511C232.181 221.828 233.358 222.327 234.506 223.058C235.089 223.428 235.624 223.963 236.004 224.386C236.196 224.6 236.354 224.793 236.465 224.933C236.52 225.002 236.564 225.059 236.594 225.099C236.608 225.117 236.619 225.133 236.627 225.144L236.641 225.161C236.653 225.176 236.671 225.197 236.693 225.225C236.738 225.28 236.801 225.36 236.878 225.461C237.032 225.663 237.243 225.949 237.47 226.289C237.917 226.96 238.451 227.876 238.717 228.777C239.117 230.134 239.237 230.967 239.237 232.38C239.237 233.115 239.104 233.897 238.976 234.481C238.911 234.777 238.847 235.028 238.798 235.206C238.774 235.295 238.753 235.367 238.738 235.416C238.731 235.44 238.726 235.459 238.722 235.473C238.72 235.479 238.718 235.485 238.717 235.488C238.716 235.49 238.716 235.492 238.716 235.493L238.715 235.494V235.495L238.713 235.501V235.502L238.712 235.503C238.712 235.504 238.711 235.505 238.711 235.507C238.71 235.51 238.709 235.514 238.707 235.52C238.703 235.531 238.697 235.547 238.69 235.567C238.677 235.608 238.657 235.665 238.631 235.735C238.579 235.876 238.503 236.071 238.409 236.288C238.227 236.708 237.952 237.263 237.615 237.651C237.255 238.067 236.986 238.379 236.665 238.629C236.332 238.888 235.963 239.067 235.415 239.274C233.858 239.865 232.819 239.929 231.198 239.8C230.224 239.722 229.184 239.464 228.402 239.231C228.008 239.114 227.673 239.001 227.437 238.918C227.318 238.876 227.224 238.842 227.159 238.817C227.127 238.805 227.101 238.796 227.084 238.789C227.075 238.786 227.068 238.783 227.063 238.781C227.061 238.78 227.059 238.78 227.058 238.779L227.057 238.778H227.056L227.001 238.757L226.952 238.723H226.951L226.949 238.721C226.948 238.72 226.945 238.718 226.943 238.717C226.938 238.713 226.931 238.708 226.923 238.702C226.905 238.689 226.879 238.671 226.847 238.647C226.781 238.6 226.687 238.53 226.57 238.44C226.337 238.262 226.013 238.004 225.647 237.684C224.921 237.047 224.01 236.149 223.323 235.131C222.33 233.657 221.486 232.485 221.241 230.462C221.044 228.835 221.173 227.793 221.771 226.264C222.299 224.917 222.766 224.081 223.912 223.1C224.972 222.192 225.784 221.83 227.121 221.511ZM196.586 221.521C197.773 221.142 198.794 221.032 199.814 221.144C200.826 221.254 201.812 221.579 202.925 222.027C204.67 222.731 205.693 223.285 207.081 224.6C207.683 225.169 208.076 225.557 208.386 226.012C208.697 226.469 208.911 226.975 209.205 227.753C209.721 229.12 209.737 230.013 209.737 231.391C209.737 232.731 209.81 233.697 209.192 235.059C208.695 236.154 208.553 236.725 207.589 237.679C207.134 238.129 206.77 238.435 206.352 238.679C205.937 238.919 205.491 239.085 204.895 239.281C204.127 239.534 203.563 239.673 203.005 239.743C202.451 239.812 201.919 239.811 201.23 239.801C200.323 239.788 199.676 239.745 199.043 239.589C198.41 239.433 197.817 239.17 197.01 238.758C195.598 238.037 194.797 237.422 193.837 236.14C192.969 234.981 192.181 234.04 191.756 232.514C191.577 231.87 191.449 231.44 191.368 231.007C191.285 230.561 191.25 230.117 191.237 229.422C191.21 227.868 191.168 226.831 191.771 225.276C192.224 224.109 192.671 223.901 193.369 223.142C194.43 221.987 195.323 221.923 196.586 221.521ZM227.155 225.545C227.121 225.545 227.072 225.547 227.012 225.549C226.892 225.553 226.724 225.561 226.537 225.582C226.185 225.621 225.679 225.709 225.299 225.933C224.791 226.231 224.545 226.734 224.434 227.227C224.323 227.718 224.331 228.259 224.381 228.738C224.431 229.223 224.526 229.676 224.607 230.006C224.648 230.171 224.687 230.309 224.715 230.404C224.729 230.452 224.741 230.489 224.749 230.516C224.753 230.529 224.755 230.54 224.758 230.547C224.759 230.55 224.761 230.554 224.762 230.556V230.559L224.763 230.56L224.77 230.582L224.779 230.604V230.604C224.78 230.605 224.781 230.606 224.781 230.607C224.782 230.61 224.784 230.614 224.786 230.619C224.79 230.629 224.797 230.644 224.805 230.662C224.821 230.698 224.845 230.751 224.874 230.815C224.933 230.946 225.017 231.127 225.115 231.332C225.31 231.737 225.569 232.253 225.812 232.645C226.176 233.23 226.592 233.639 226.972 233.96C227.158 234.117 227.342 234.259 227.495 234.38C227.654 234.506 227.782 234.611 227.886 234.713C228.185 235.008 228.607 235.283 229.053 235.534C229.504 235.789 230.017 236.043 230.514 236.288L230.516 236.289C231.035 236.546 231.907 236.897 232.764 237.113C233.192 237.221 233.635 237.299 234.039 237.31C234.428 237.319 234.861 237.268 235.197 237.034C235.412 236.885 235.536 236.67 235.608 236.469C235.68 236.267 235.713 236.045 235.726 235.829C235.75 235.397 235.696 234.904 235.621 234.456C235.546 234.003 235.445 233.571 235.363 233.255C235.322 233.096 235.286 232.965 235.26 232.873L235.217 232.727V232.726L235.206 232.694L235.192 232.664V232.663L235.191 232.661C235.19 232.659 235.189 232.655 235.187 232.65C235.182 232.641 235.176 232.628 235.168 232.611C235.152 232.577 235.13 232.527 235.101 232.466C235.042 232.342 234.959 232.168 234.862 231.969C234.669 231.573 234.413 231.067 234.173 230.647C233.427 229.346 232.884 228.473 231.527 227.521C230.818 227.022 229.863 226.277 228.89 225.971C228.531 225.858 228.136 225.754 227.835 225.68C227.684 225.642 227.555 225.611 227.463 225.59C227.417 225.579 227.381 225.571 227.355 225.565C227.343 225.563 227.333 225.56 227.326 225.559L227.315 225.557L227.266 225.546L227.214 225.545L227.208 225.544C227.205 225.544 227.201 225.544 227.196 225.544C227.186 225.544 227.172 225.545 227.155 225.545ZM198.549 225.079C197.876 224.938 197.47 224.808 196.644 224.967C196.294 225.034 195.91 225.155 195.574 225.354C195.239 225.552 194.919 225.85 194.767 226.279C194.245 227.751 194.694 229.038 195.275 230.437C195.679 231.407 196.074 231.908 196.703 232.686C197.109 233.187 197.7 233.741 198.174 234.159C198.413 234.371 198.63 234.552 198.785 234.681C198.863 234.745 198.926 234.797 198.97 234.832C198.992 234.85 199.009 234.864 199.021 234.873C199.026 234.878 199.031 234.881 199.034 234.884C199.036 234.885 199.037 234.886 199.038 234.887L199.039 234.888L199.06 234.904L199.082 234.919H199.083L199.084 234.92C199.085 234.921 199.086 234.922 199.088 234.923C199.092 234.925 199.098 234.928 199.104 234.933C199.118 234.941 199.137 234.954 199.162 234.969C199.212 235 199.285 235.044 199.376 235.098C199.557 235.205 199.812 235.35 200.105 235.505C200.682 235.809 201.452 236.171 202.125 236.327C202.758 236.474 203.515 236.682 204.182 236.744C204.841 236.806 205.6 236.748 206.111 236.173C206.616 235.606 206.613 234.757 206.481 234.019C206.343 233.243 206.03 232.401 205.69 231.674C205.407 231.065 204.882 230.289 204.447 229.688C204.226 229.382 204.022 229.112 203.873 228.919C203.799 228.822 203.738 228.744 203.695 228.69C203.674 228.664 203.658 228.643 203.646 228.629C203.641 228.622 203.636 228.616 203.633 228.612C203.631 228.61 203.631 228.608 203.63 228.607L203.629 228.606H203.628V228.605L203.622 228.599L203.621 228.598C203.62 228.597 203.619 228.595 203.618 228.594C203.616 228.591 203.612 228.587 203.608 228.582C203.599 228.571 203.586 228.556 203.569 228.536C203.536 228.497 203.488 228.44 203.428 228.371C203.307 228.233 203.136 228.041 202.937 227.829C202.544 227.411 202.018 226.887 201.531 226.535C200.525 225.808 199.653 225.31 198.549 225.079Z" fill="#122231"/>
<defs>
<linearGradient id="paint0_linear_209_2" x1="-2.92271e-07" y1="164" x2="303" y2="166" gradientUnits="userSpaceOnUse">
<stop stop-color="#D14A23"/>
<stop offset="1" stop-color="#F17B2B"/>
</linearGradient>
</defs>
</svg>
