<svg width="238" height="263" viewBox="0 0 238 263" fill="none" xmlns="http://www.w3.org/2000/svg">
<path d="M86.7957 0.984436C97.5733 -0.319565 103.877 -0.33694 114.658 0.984436C127.286 2.53225 133.714 4.49409 145.13 10.0235C154.121 14.3787 159.858 17.417 167.465 24.0889C175.323 30.9819 179.354 35.5274 185.217 44.1505C191.108 52.8164 194.262 58.1839 197.408 68.2794C199.735 75.7455 200.158 80.24 200.968 87.8497C202.143 98.8958 202.186 105.3 200.967 116.355C200.16 123.669 199.644 133.629 194.851 143.557C194.655 143.962 194.399 144.469 194.195 144.868C194.092 145.069 194.001 145.245 193.936 145.371C193.904 145.434 193.877 145.485 193.859 145.52C193.85 145.537 193.843 145.55 193.839 145.56C193.836 145.564 193.834 145.568 193.833 145.57C193.832 145.572 193.831 145.573 193.831 145.573V145.574L193.122 146.936L191.778 146.196L178.254 138.765L177.18 138.175L177.543 137.006L177.544 137.004C177.544 137.003 177.545 137.001 177.546 136.998C177.547 136.992 177.55 136.983 177.553 136.972C177.561 136.948 177.571 136.912 177.586 136.865C177.614 136.771 177.657 136.631 177.712 136.45C177.821 136.088 177.979 135.559 178.172 134.898C178.557 133.576 179.081 131.725 179.637 129.611C180.755 125.366 181.983 120.133 182.487 116.008C183.618 106.754 183.452 102.05 182.484 93.1133C181.575 84.7158 180.959 80.0005 178.069 72.2139C174.65 62.9996 171.22 58.096 165.285 50.3565C159.222 42.4499 155.137 38.7552 146.675 33.4063C139.964 29.165 136.021 27.0737 128.517 24.6671C119.959 21.9222 115.163 20.3237 106.385 19.7921C97.1817 19.2347 91.9234 20.1399 82.8113 22.2296C73.5923 24.3437 68.4903 26.1029 60.1765 30.4981C53.8591 33.8379 51.252 35.7945 45.9939 40.6563C41.2726 45.0218 38.326 48.0744 34.7058 53.2676L34.5339 53.5147C29.836 60.2535 27.1491 64.1143 24.3855 71.711C21.5963 79.3782 20.4271 84.0648 19.4646 92.1407C18.5197 100.068 18.6549 105.569 19.4675 113.566C20.2509 121.275 21.8574 124.351 24.4001 132.034C27.0647 140.085 29.0972 144.41 32.8259 152.124C37.1268 161.022 39.7309 165.447 45.2244 173.7C52.5174 184.657 57.0968 190.696 65.6199 200.755C69.1671 204.941 73.9095 210.371 77.7693 214.759C79.6982 216.952 81.406 218.883 82.6306 220.266C83.2428 220.957 83.7345 221.511 84.073 221.893C84.2421 222.083 84.3731 222.23 84.4617 222.33C84.5059 222.38 84.5396 222.418 84.5623 222.443C84.5733 222.456 84.582 222.465 84.5876 222.472C84.5904 222.475 84.593 222.478 84.5945 222.48L84.5955 222.481L101.933 241.941L127.073 211.558L123.844 207.166C123.834 207.157 123.824 207.148 123.814 207.138C123.736 207.061 123.625 206.95 123.489 206.813C123.218 206.538 122.847 206.149 122.445 205.693C121.669 204.814 120.669 203.563 120.112 202.349C119.469 200.945 119.204 199.121 119.084 197.776C119.022 197.079 118.995 196.46 118.983 196.015C118.977 195.792 118.976 195.61 118.975 195.483V195.276L118.508 170.796C118.106 170.848 117.65 170.908 117.159 170.969C115.447 171.181 113.298 171.431 111.603 171.576C107.71 171.909 105.449 172.122 101.459 172.076C94.714 171.999 90.7309 171.766 84.1003 170.051C77.1589 168.255 73.4006 166.424 67.2449 162.986C61.1305 159.572 57.4492 157.45 52.4089 152.348C47.1319 147.006 45.1273 143.029 41.6599 136.686C37.6437 129.338 35.2953 124.861 33.5085 116.503C31.3603 106.453 31.5581 100.221 33.5027 90.1944C35.5754 79.5074 38.4306 73.254 44.7546 64.3936C49.9699 57.0866 52.4053 53.805 60.0955 48.2286C67.7258 42.6955 74.3745 39.2663 84.0818 36.6241C92.5762 34.312 97.8352 33.8933 106.596 34.5987C118.277 35.5392 125.399 37.9774 135.179 43.1749C142.704 47.1735 146.403 49.8724 152.063 55.8262C158.108 62.1854 160.73 66.7337 164.337 74.5225C167.284 80.8878 168.369 84.8525 169.457 91.7286C170.115 95.8865 170.109 101.2 169.95 105.407C169.87 107.525 169.75 109.388 169.65 110.723C169.6 111.39 169.555 111.927 169.522 112.297C169.506 112.482 169.492 112.627 169.483 112.725C169.479 112.774 169.475 112.811 169.472 112.837C169.471 112.85 169.47 112.86 169.469 112.866C169.469 112.87 169.469 112.872 169.469 112.874V112.877L169.465 112.91L169.461 112.942L167.975 112.729L169.461 112.943L169.46 112.945C169.459 112.947 169.459 112.949 169.459 112.952C169.458 112.958 169.457 112.967 169.456 112.978C169.453 112.999 169.447 113.032 169.441 113.073C169.429 113.157 169.411 113.279 169.386 113.437C169.338 113.752 169.266 114.208 169.173 114.774C168.986 115.907 168.711 117.484 168.359 119.265C167.661 122.802 166.642 127.231 165.379 130.565C164.379 133.203 162.737 136.949 161.357 140.009C160.802 141.24 160.286 142.366 159.868 143.273L170.419 142.873L170.447 142.872H170.521C170.55 142.872 170.591 142.873 170.643 142.873C170.747 142.874 170.897 142.876 171.08 142.88C171.445 142.888 171.948 142.904 172.503 142.936C173.547 142.996 174.988 143.123 175.949 143.442C177.092 143.822 178.14 144.586 178.839 145.166C179.203 145.469 179.507 145.751 179.72 145.958C179.827 146.062 179.912 146.149 179.972 146.211C179.995 146.234 180.014 146.254 180.029 146.271L233.014 197.182L233.06 197.226L233.102 197.273L231.975 198.264C233.065 197.306 233.102 197.274 233.103 197.273V197.274L233.105 197.275C233.106 197.277 233.107 197.279 233.108 197.28C233.111 197.284 233.116 197.288 233.121 197.294C233.131 197.305 233.144 197.322 233.161 197.342C233.195 197.382 233.244 197.439 233.304 197.512C233.425 197.657 233.594 197.866 233.796 198.127C234.197 198.648 234.734 199.386 235.271 200.254C236.303 201.922 237.508 204.338 237.475 206.69C237.459 207.898 237.042 209.13 236.531 210.218C236.011 211.326 235.336 212.404 234.685 213.332C234.031 214.265 233.382 215.075 232.897 215.65C232.654 215.939 232.451 216.171 232.307 216.332C232.235 216.413 232.179 216.477 232.138 216.521C232.118 216.543 232.102 216.559 232.091 216.571C232.085 216.577 232.081 216.582 232.078 216.586C232.076 216.588 232.074 216.589 232.073 216.59L232.072 216.592H232.071L230.975 215.568L232.071 216.593L232.057 216.607L232.044 216.621L193.544 255.68L193.434 255.791L193.303 255.878L193.302 255.879C193.301 255.88 193.3 255.881 193.299 255.882C193.296 255.884 193.291 255.886 193.287 255.889C193.277 255.895 193.263 255.904 193.246 255.915C193.211 255.937 193.162 255.969 193.099 256.009C192.974 256.088 192.795 256.201 192.571 256.335C192.124 256.603 191.496 256.965 190.768 257.337C189.363 258.055 187.4 258.911 185.622 259.086C183.289 259.315 180.615 258.438 178.696 257.637C177.701 257.222 176.836 256.795 176.22 256.473C175.912 256.311 175.663 256.174 175.49 256.077C175.404 256.029 175.335 255.99 175.288 255.963C175.264 255.949 175.245 255.938 175.232 255.93C175.226 255.926 175.22 255.923 175.217 255.921C175.215 255.92 175.213 255.919 175.212 255.918L175.21 255.917L175.209 255.916L175.081 255.84L174.969 255.739L141.071 225.092L111.079 257.621L111.045 257.658L111.009 257.692L111.003 257.698C110.999 257.701 110.994 257.706 110.989 257.711C110.978 257.721 110.964 257.735 110.945 257.752C110.907 257.787 110.852 257.837 110.783 257.899C110.644 258.024 110.446 258.201 110.197 258.411C109.701 258.831 108.998 259.394 108.174 259.968C106.595 261.067 104.305 262.396 102.08 262.551C99.5217 262.728 96.7895 261.375 94.9031 260.213C93.9162 259.605 93.0692 258.99 92.4695 258.528C92.1687 258.297 91.9272 258.102 91.7595 257.963C91.6758 257.894 91.61 257.838 91.5642 257.799C91.5414 257.779 91.5233 257.764 91.5105 257.753C91.5041 257.747 91.4987 257.743 91.4949 257.739C91.4931 257.738 91.4912 257.736 91.49 257.735L91.488 257.733C91.4899 257.731 91.5335 257.68 92.4753 256.605L91.4871 257.733L91.4255 257.679L91.3708 257.619L66.8708 230.92L66.865 230.914L66.8601 230.908L67.9753 229.906L66.8591 230.908V230.907C66.8586 230.907 66.8571 230.906 66.8562 230.905C66.8543 230.903 66.852 230.9 66.8484 230.896C66.8409 230.887 66.8297 230.875 66.8152 230.858C66.7858 230.826 66.7415 230.777 66.6843 230.713C66.5698 230.585 66.401 230.396 66.1833 230.151C65.7477 229.663 65.1159 228.951 64.3308 228.062C62.7606 226.282 60.5757 223.788 58.1169 220.928C53.2057 215.215 47.1774 208.014 42.7742 202.128C36.5666 193.83 33.2593 189.018 27.7097 180.279C22.3307 171.809 19.0368 167.033 14.6248 157.878C10.0986 148.486 7.91586 142.942 5.03394 132.92C2.68357 124.746 1.32807 119.978 0.483154 111.393C-0.266565 103.774 -0.0454007 99.4019 0.479248 91.8594C1.22139 81.1903 2.43391 74.86 6.06421 64.7579C9.46889 55.2836 11.8442 50.3758 17.7576 42.1407C23.9184 33.561 28.855 28.3237 37.0212 21.588C45.8686 14.2905 50.6797 11.2349 61.4265 7.0108C70.9152 3.28128 76.7548 2.1993 86.7957 0.984436Z" fill="white"/>
<path d="M156.476 163.16L151.476 154.26H165.476C165.476 154.26 169.97 154.102 172.476 155.249C175.483 156.625 179.476 161.182 179.476 161.182L218.976 199.747C218.976 199.747 222.787 203.089 222.976 205.68C223.132 207.833 220.976 210.129 220.976 210.129L187.976 243.75C187.976 243.75 184.45 246.783 181.976 246.222C180.339 245.851 178.476 243.75 178.476 243.75L136.976 203.208C136.976 203.208 133.552 199.641 132.476 196.78C131.647 194.579 131.476 159.204 131.476 159.204C131.476 159.204 132.186 156.636 133.476 155.743C134.924 154.741 136.284 154.741 137.976 155.249C139.698 155.767 140.239 156.922 141.476 158.216C144.122 160.983 146.476 166.621 146.476 166.621C146.476 166.621 143.962 169.047 143.476 171.07C142.708 174.264 143.034 177.013 144.476 179.97C146.123 183.347 148.746 184.735 152.476 185.409C156.018 186.048 158.642 185.627 161.476 183.431C163.954 181.51 164.671 180.508 165.476 177.498C166.275 174.511 166.046 171.203 163.976 168.104C162.035 165.2 156.476 163.16 156.476 163.16Z" fill="#122231"/>
<path d="M59.4758 85.0418C59.4758 85.0418 53.6956 83.3681 52.4758 83.5585C50.3194 83.8952 49.4134 86.3714 48.4758 88.9971C47.4336 91.9159 47.5509 94.8022 47.4759 97.8967C47.429 99.8269 47.7268 101.411 47.9758 103.335C48.4036 106.641 48.4893 107.564 49.4758 110.752C50.3463 113.564 51.0579 115.169 52.4758 117.673C54.1 120.543 54.9266 121.99 57.4758 124.101C60.2238 126.377 62.5746 127.926 65.9758 129.045C70.0685 130.392 73.1778 130.89 77.4758 130.528C82.3398 130.119 85.336 129.062 89.9758 127.562C93.3216 126.48 94.5639 125.946 97.9758 125.09C99.9058 124.605 100.985 124.073 102.976 124.101C105.631 124.139 106.447 124.287 108.976 125.09C111.328 125.836 112.633 126.789 114.976 127.562C119.076 128.913 121.172 129.145 125.476 129.539C129.19 129.88 132.412 129.642 135.976 128.551C140.582 127.139 144.238 125.658 147.476 122.123C150.818 118.475 152.082 115.477 153.476 110.752C154.961 105.716 155.476 97.4023 154.976 91.9636C154.531 87.1219 153.476 84.5473 151.476 83.5585C149.866 82.7624 140.476 86.0305 140.476 86.0305C135.582 87.3371 131.922 88.3951 126.976 89.4915C120.805 90.8594 119.742 91.122 113.476 91.9636C108.604 92.6179 104.392 92.9098 99.4758 92.9525C94.1715 92.9985 90.2097 92.8166 84.9758 91.9636C78.2463 90.8669 59.4758 85.0418 59.4758 85.0418Z" fill="#122231" stroke="#122231" stroke-width="3"/>
<path d="M72.9756 101.358C72.9756 101.358 70.7684 101.813 69.4756 103.335C68.6333 104.327 68.3031 105.542 67.9758 106.796C67.5854 108.292 67.5369 109.269 67.9757 110.751C68.5242 112.605 69.4602 113.489 70.9757 114.707C72.3312 115.796 73.2907 116.23 74.9757 116.685C77.2362 117.294 79.2453 117.395 81.4756 116.685C82.974 116.207 83.6545 115.978 84.4756 114.707C85.7416 112.748 86.1053 111.014 85.4756 108.774C84.91 106.762 84.5172 105.509 82.4757 103.83C80.4341 102.15 79.9756 101.852 77.9756 101.358C75.9756 100.863 72.9756 101.358 72.9756 101.358Z" fill="white"/>
<path d="M119.476 105.313C117.976 107.29 117.476 107.785 116.976 109.763C116.476 111.74 117.173 113.149 117.976 114.707C119.131 116.95 122.476 117.179 122.476 117.179C122.476 117.179 126.302 117.549 128.476 116.685C130.402 115.919 132.476 114.212 132.476 114.212C132.476 114.212 133.666 113.175 134.476 111.246C135.092 109.775 135.599 108.384 135.476 106.796C135.381 105.579 135.169 104.346 134.476 103.335C133.441 101.828 131.476 101.358 131.476 101.358C131.476 101.358 128.368 100.88 126.476 101.358C124.528 101.849 123.476 102.346 123.476 102.346C123.476 102.346 120.976 103.335 119.476 105.313Z" fill="white"/>
<path d="M72.9756 101.358C72.9756 101.358 70.7684 101.813 69.4756 103.335C68.6333 104.327 68.3031 105.542 67.9758 106.796C67.5854 108.292 67.5369 109.269 67.9757 110.751C68.5242 112.605 69.4602 113.489 70.9757 114.707C72.3312 115.796 73.2907 116.23 74.9757 116.685C77.2362 117.294 79.2453 117.395 81.4756 116.685C82.974 116.207 83.6545 115.978 84.4756 114.707C85.7416 112.748 86.1053 111.014 85.4756 108.774C84.91 106.762 84.5172 105.509 82.4757 103.83C80.4341 102.15 79.9756 101.852 77.9756 101.358C75.9756 100.863 72.9756 101.358 72.9756 101.358Z" stroke="white" stroke-width="3"/>
<path d="M119.476 105.313C117.976 107.29 117.476 107.785 116.976 109.763C116.476 111.74 117.173 113.149 117.976 114.707C119.131 116.95 122.476 117.179 122.476 117.179C122.476 117.179 126.302 117.549 128.476 116.685C130.402 115.919 132.476 114.212 132.476 114.212C132.476 114.212 133.666 113.175 134.476 111.246C135.092 109.775 135.599 108.384 135.476 106.796C135.381 105.579 135.169 104.346 134.476 103.335C133.441 101.828 131.476 101.358 131.476 101.358C131.476 101.358 128.368 100.88 126.476 101.358C124.528 101.849 123.476 102.346 123.476 102.346C123.476 102.346 120.976 103.335 119.476 105.313Z" stroke="white" stroke-width="3"/>
<path d="M176.957 178.352L191.457 230.266L191.525 230.505L191.374 230.702L188.374 234.658L187.769 235.457L187.495 234.492L172.495 181.589L172.407 181.28L172.653 181.072L176.153 178.105L176.748 177.601L176.957 178.352ZM194.36 196.294C195.764 195.959 196.687 195.959 198.092 196.294C199.42 196.611 200.597 197.111 201.744 197.841C202.327 198.212 202.863 198.746 203.242 199.169C203.435 199.384 203.593 199.577 203.703 199.716C203.759 199.786 203.802 199.842 203.832 199.882C203.846 199.901 203.857 199.916 203.865 199.927L203.879 199.945C203.891 199.959 203.91 199.98 203.932 200.008C203.976 200.063 204.039 200.144 204.116 200.244C204.271 200.446 204.482 200.733 204.708 201.073C205.156 201.744 205.689 202.659 205.955 203.561C206.355 204.917 206.476 205.75 206.476 207.163C206.476 207.898 206.342 208.68 206.214 209.265C206.15 209.56 206.085 209.812 206.036 209.99C206.012 210.078 205.991 210.15 205.977 210.199C205.97 210.223 205.964 210.243 205.96 210.256C205.958 210.262 205.956 210.268 205.955 210.272C205.955 210.273 205.955 210.275 205.954 210.277L205.953 210.278V210.279L205.951 210.284V210.285L205.95 210.286C205.95 210.287 205.95 210.289 205.949 210.29C205.948 210.293 205.947 210.298 205.946 210.303C205.942 210.314 205.936 210.331 205.929 210.351C205.915 210.391 205.895 210.449 205.869 210.519C205.818 210.66 205.742 210.855 205.648 211.072C205.465 211.492 205.191 212.046 204.854 212.435C204.494 212.85 204.225 213.162 203.904 213.412C203.571 213.671 203.201 213.85 202.654 214.058C201.097 214.648 200.057 214.712 198.437 214.583C197.462 214.506 196.423 214.248 195.641 214.015C195.247 213.898 194.912 213.785 194.675 213.701C194.557 213.66 194.463 213.625 194.398 213.601C194.366 213.589 194.34 213.579 194.323 213.573C194.314 213.569 194.307 213.567 194.302 213.565C194.3 213.564 194.297 213.563 194.296 213.563L194.295 213.562H194.294L194.24 213.54L194.191 213.506H194.19L194.188 213.504C194.186 213.503 194.184 213.502 194.182 213.5C194.177 213.497 194.17 213.492 194.161 213.486C194.144 213.473 194.118 213.455 194.085 213.431C194.02 213.383 193.925 213.313 193.809 213.224C193.576 213.045 193.252 212.787 192.886 212.467C192.159 211.83 191.248 210.932 190.562 209.914C189.568 208.44 188.725 207.269 188.48 205.245C188.283 203.618 188.411 202.576 189.01 201.047C189.537 199.7 190.005 198.864 191.151 197.883C192.21 196.976 193.023 196.613 194.36 196.294ZM163.824 196.304C165.012 195.925 166.032 195.816 167.053 195.927C168.064 196.038 169.05 196.362 170.163 196.811C171.908 197.514 172.931 198.069 174.32 199.383C174.921 199.953 175.315 200.341 175.624 200.795C175.936 201.253 176.15 201.758 176.444 202.536C176.96 203.904 176.976 204.796 176.976 206.174C176.976 207.514 177.049 208.48 176.431 209.842C175.934 210.938 175.791 211.509 174.827 212.462C174.372 212.912 174.009 213.219 173.59 213.462C173.176 213.703 172.729 213.868 172.133 214.065C171.365 214.318 170.801 214.457 170.243 214.527C169.69 214.596 169.157 214.594 168.469 214.584C167.561 214.571 166.914 214.528 166.281 214.372C165.648 214.216 165.056 213.954 164.248 213.541C162.836 212.82 162.036 212.205 161.075 210.923C160.208 209.765 159.419 208.824 158.994 207.297C158.815 206.654 158.688 206.224 158.607 205.79C158.523 205.345 158.488 204.9 158.476 204.205C158.448 202.651 158.407 201.615 159.01 200.06C159.463 198.893 159.909 198.685 160.608 197.925C161.669 196.771 162.562 196.707 163.824 196.304ZM194.394 200.328C194.359 200.329 194.31 200.33 194.249 200.332C194.129 200.336 193.962 200.345 193.776 200.365C193.423 200.405 192.918 200.493 192.537 200.716C192.03 201.014 191.782 201.517 191.671 202.01C191.56 202.501 191.57 203.042 191.619 203.522C191.669 204.006 191.764 204.46 191.846 204.789C191.887 204.955 191.925 205.092 191.953 205.188C191.967 205.235 191.978 205.273 191.987 205.299C191.991 205.312 191.994 205.323 191.996 205.33C191.997 205.334 191.999 205.337 191.999 205.339L192 205.341V205.342L192.001 205.343L192.008 205.365L192.018 205.387V205.388C192.018 205.389 192.018 205.39 192.019 205.391C192.02 205.393 192.022 205.398 192.024 205.403C192.028 205.412 192.035 205.428 192.043 205.446C192.059 205.482 192.082 205.534 192.112 205.599C192.171 205.729 192.255 205.911 192.353 206.115C192.547 206.521 192.807 207.036 193.05 207.428C193.413 208.013 193.829 208.422 194.209 208.743C194.395 208.901 194.579 209.042 194.733 209.163C194.892 209.289 195.021 209.394 195.124 209.496C195.423 209.792 195.845 210.066 196.29 210.318C196.742 210.573 197.255 210.826 197.751 211.072L197.753 211.073C198.272 211.329 199.145 211.681 200.002 211.897C200.43 212.004 200.874 212.083 201.278 212.093C201.666 212.103 202.098 212.051 202.435 211.818C202.65 211.668 202.775 211.454 202.847 211.252C202.919 211.051 202.951 210.828 202.963 210.613C202.988 210.181 202.934 209.687 202.86 209.24C202.784 208.787 202.682 208.355 202.601 208.038C202.56 207.88 202.524 207.748 202.497 207.656L202.454 207.51V207.509L202.445 207.478L202.431 207.448L202.43 207.447V207.445C202.429 207.442 202.426 207.438 202.424 207.434C202.42 207.425 202.413 207.412 202.406 207.395C202.39 207.361 202.367 207.311 202.338 207.249C202.28 207.126 202.198 206.951 202.101 206.752C201.908 206.356 201.651 205.851 201.41 205.431C200.665 204.13 200.122 203.257 198.765 202.304C198.055 201.806 197.101 201.06 196.127 200.754C195.768 200.641 195.374 200.538 195.073 200.463C194.922 200.426 194.793 200.395 194.701 200.373C194.656 200.363 194.619 200.355 194.594 200.349C194.581 200.346 194.57 200.344 194.564 200.342L194.553 200.34L194.504 200.329L194.452 200.328L194.447 200.327C194.444 200.327 194.44 200.327 194.435 200.327C194.425 200.327 194.411 200.328 194.394 200.328ZM165.787 199.863C165.115 199.722 164.709 199.592 163.882 199.75C163.532 199.817 163.148 199.938 162.813 200.137C162.478 200.336 162.157 200.634 162.005 201.063C161.484 202.535 161.933 203.822 162.514 205.22C162.917 206.191 163.312 206.692 163.942 207.469C164.347 207.97 164.939 208.525 165.412 208.943C165.652 209.154 165.868 209.335 166.024 209.464C166.101 209.528 166.164 209.58 166.208 209.615C166.23 209.633 166.247 209.647 166.259 209.656C166.265 209.661 166.27 209.665 166.273 209.667C166.274 209.668 166.276 209.669 166.277 209.67L166.278 209.671L166.298 209.688L166.321 209.702H166.322L166.323 209.703C166.323 209.704 166.325 209.705 166.326 209.706C166.33 209.709 166.336 209.712 166.343 209.716C166.357 209.725 166.376 209.737 166.401 209.752C166.451 209.783 166.524 209.828 166.615 209.881C166.796 209.988 167.05 210.133 167.344 210.288C167.921 210.593 168.691 210.955 169.364 211.111C169.996 211.257 170.754 211.465 171.42 211.528C172.079 211.589 172.839 211.531 173.35 210.956C173.854 210.389 173.851 209.541 173.72 208.802C173.582 208.026 173.268 207.185 172.929 206.457C172.645 205.848 172.12 205.072 171.686 204.471C171.465 204.165 171.26 203.896 171.112 203.702C171.037 203.606 170.976 203.528 170.934 203.474C170.913 203.447 170.896 203.427 170.885 203.412C170.879 203.405 170.874 203.4 170.871 203.396C170.87 203.394 170.869 203.392 170.868 203.391L170.867 203.39H170.866V203.389L170.861 203.382L170.86 203.381C170.859 203.38 170.858 203.379 170.857 203.377C170.854 203.374 170.851 203.37 170.847 203.365C170.838 203.355 170.825 203.339 170.808 203.32C170.775 203.28 170.727 203.224 170.666 203.155C170.545 203.016 170.374 202.825 170.175 202.613C169.783 202.195 169.256 201.67 168.77 201.319C167.763 200.591 166.891 200.093 165.787 199.863Z" fill="white"/>
</svg>
