<svg width="1156" height="283" viewBox="0 0 1156 283" fill="none" xmlns="http://www.w3.org/2000/svg">
<g clip-path="url(#clip0_262_23)">
<path d="M316.615 86.8C322.512 88.0567 327.248 91.005 330.825 95.645C334.402 100.188 336.19 105.408 336.19 111.305C336.19 119.812 333.193 126.578 327.2 131.605C321.303 136.535 313.038 139 302.405 139H254.99V37.21H300.81C311.153 37.21 319.225 39.5783 325.025 44.315C330.922 49.0517 333.87 55.48 333.87 63.6C333.87 69.5933 332.275 74.5717 329.085 78.535C325.992 82.4983 321.835 85.2533 316.615 86.8ZM279.785 78.39H296.025C300.085 78.39 303.178 77.52 305.305 75.78C307.528 73.9433 308.64 71.285 308.64 67.805C308.64 64.325 307.528 61.6667 305.305 59.83C303.178 57.9933 300.085 57.075 296.025 57.075H279.785V78.39ZM298.055 118.99C302.212 118.99 305.402 118.072 307.625 116.235C309.945 114.302 311.105 111.547 311.105 107.97C311.105 104.393 309.897 101.59 307.48 99.56C305.16 97.53 301.922 96.515 297.765 96.515H279.785V118.99H298.055ZM405.961 140.015C396.391 140.015 387.594 137.792 379.571 133.345C371.644 128.898 365.313 122.712 360.576 114.785C355.936 106.762 353.616 97.7717 353.616 87.815C353.616 77.8583 355.936 68.9167 360.576 60.99C365.313 53.0633 371.644 46.8767 379.571 42.43C387.594 37.9833 396.391 35.76 405.961 35.76C415.531 35.76 424.279 37.9833 432.206 42.43C440.229 46.8767 446.513 53.0633 451.056 60.99C455.696 68.9167 458.016 77.8583 458.016 87.815C458.016 97.7717 455.696 106.762 451.056 114.785C446.416 122.712 440.133 128.898 432.206 133.345C424.279 137.792 415.531 140.015 405.961 140.015ZM405.961 117.395C414.081 117.395 420.558 114.688 425.391 109.275C430.321 103.862 432.786 96.7083 432.786 87.815C432.786 78.825 430.321 71.6717 425.391 66.355C420.558 60.9417 414.081 58.235 405.961 58.235C397.744 58.235 391.171 60.8933 386.241 66.21C381.408 71.5267 378.991 78.7283 378.991 87.815C378.991 96.805 381.408 104.007 386.241 109.42C391.171 114.737 397.744 117.395 405.961 117.395ZM546.63 69.4C544.794 66.0167 542.135 63.455 538.655 61.715C535.272 59.8783 531.26 58.96 526.62 58.96C518.597 58.96 512.169 61.6183 507.335 66.935C502.502 72.155 500.085 79.1633 500.085 87.96C500.085 97.3367 502.599 104.683 507.625 110C512.749 115.22 519.757 117.83 528.65 117.83C534.74 117.83 539.864 116.283 544.02 113.19C548.274 110.097 551.367 105.65 553.3 99.85H521.835V81.58H575.775V104.635C573.939 110.822 570.797 116.573 566.35 121.89C562 127.207 556.442 131.508 549.675 134.795C542.909 138.082 535.272 139.725 526.765 139.725C516.712 139.725 507.722 137.55 499.795 133.2C491.965 128.753 485.827 122.615 481.38 114.785C477.03 106.955 474.855 98.0133 474.855 87.96C474.855 77.9067 477.03 68.965 481.38 61.135C485.827 53.2083 491.965 47.07 499.795 42.72C507.625 38.2733 516.567 36.05 526.62 36.05C538.8 36.05 549.047 38.9983 557.36 44.895C565.77 50.7917 571.329 58.96 574.035 69.4H546.63ZM644.9 140.015C635.33 140.015 626.533 137.792 618.51 133.345C610.583 128.898 604.251 122.712 599.515 114.785C594.875 106.762 592.555 97.7717 592.555 87.815C592.555 77.8583 594.875 68.9167 599.515 60.99C604.251 53.0633 610.583 46.8767 618.51 42.43C626.533 37.9833 635.33 35.76 644.9 35.76C654.47 35.76 663.218 37.9833 671.145 42.43C679.168 46.8767 685.451 53.0633 689.995 60.99C694.635 68.9167 696.955 77.8583 696.955 87.815C696.955 97.7717 694.635 106.762 689.995 114.785C685.355 122.712 679.071 128.898 671.145 133.345C663.218 137.792 654.47 140.015 644.9 140.015ZM644.9 117.395C653.02 117.395 659.496 114.688 664.33 109.275C669.26 103.862 671.725 96.7083 671.725 87.815C671.725 78.825 669.26 71.6717 664.33 66.355C659.496 60.9417 653.02 58.235 644.9 58.235C636.683 58.235 630.11 60.8933 625.18 66.21C620.346 71.5267 617.93 78.7283 617.93 87.815C617.93 96.805 620.346 104.007 625.18 109.42C630.11 114.737 636.683 117.395 644.9 117.395Z" fill="#122231"/>
<path d="M264.316 204L267.889 186.835L254.235 159.619H260.593L267.132 172.576C268.565 175.402 269.957 178.429 271.31 181.658C272.803 178.913 274.841 175.916 277.425 172.667L287.839 159.619H294.923L273.731 187.289L270.25 204H264.316ZM288.55 191.8C288.55 185.523 290.396 180.326 294.09 176.209C297.137 172.818 301.133 171.123 306.078 171.123C309.953 171.123 313.071 172.334 315.432 174.756C317.814 177.178 319.005 180.447 319.005 184.564C319.005 188.258 318.258 191.699 316.765 194.888C315.271 198.056 313.142 200.488 310.377 202.184C307.632 203.879 304.736 204.727 301.688 204.727C299.186 204.727 296.905 204.192 294.847 203.122C292.808 202.052 291.244 200.539 290.154 198.581C289.085 196.623 288.55 194.363 288.55 191.8ZM294.029 191.255C294.029 194.282 294.756 196.583 296.209 198.157C297.662 199.711 299.509 200.488 301.749 200.488C302.919 200.488 304.08 200.256 305.23 199.792C306.381 199.308 307.45 198.581 308.439 197.612C309.428 196.644 310.266 195.544 310.952 194.312C311.658 193.061 312.224 191.719 312.647 190.286C313.273 188.288 313.586 186.371 313.586 184.534C313.586 181.628 312.849 179.378 311.376 177.783C309.923 176.169 308.086 175.361 305.866 175.361C304.151 175.361 302.586 175.775 301.174 176.603C299.761 177.41 298.479 178.601 297.329 180.175C296.199 181.749 295.361 183.586 294.816 185.685C294.292 187.763 294.029 189.62 294.029 191.255ZM344.661 198.188C340.806 202.547 336.86 204.727 332.824 204.727C330.342 204.727 328.333 204.02 326.8 202.607C325.286 201.174 324.529 199.429 324.529 197.37C324.529 196.018 324.872 193.697 325.558 190.407L329.433 171.85H334.913L330.614 192.405C330.251 194.121 330.069 195.453 330.069 196.401C330.069 197.612 330.432 198.561 331.159 199.247C331.906 199.913 332.996 200.246 334.428 200.246C335.962 200.246 337.456 199.873 338.909 199.126C340.382 198.379 341.644 197.37 342.693 196.099C343.763 194.827 344.631 193.324 345.297 191.588C345.741 190.478 346.255 188.53 346.841 185.745L349.747 171.85H355.226L348.506 204H343.45L344.661 198.188ZM357.844 204L364.565 171.85H369.409L368.047 178.419C369.701 175.937 371.316 174.1 372.89 172.909C374.485 171.718 376.109 171.123 377.764 171.123C378.854 171.123 380.196 171.517 381.791 172.304L379.55 177.39C378.602 176.703 377.562 176.36 376.432 176.36C374.515 176.36 372.547 177.43 370.529 179.569C368.511 181.709 366.926 185.553 365.776 191.104L363.051 204H357.844ZM397.955 204L407.249 159.619H413.001L420.479 176.27C422.76 181.355 424.566 185.634 425.898 189.105C426.665 191.124 427.553 193.848 428.562 197.279C429.107 193.546 429.793 189.691 430.621 185.715L436.07 159.619H441.852L432.588 204H426.715L415.696 178.358C413.738 173.838 412.214 169.852 411.124 166.4C410.822 169.286 410.236 172.828 409.369 177.026L403.738 204H397.955ZM466.025 193.071L471.353 193.616C470.586 196.26 468.82 198.773 466.055 201.154C463.31 203.536 460.031 204.727 456.216 204.727C453.835 204.727 451.645 204.182 449.647 203.092C447.669 201.982 446.155 200.377 445.106 198.278C444.076 196.179 443.562 193.788 443.562 191.104C443.562 187.592 444.369 184.191 445.984 180.901C447.618 177.591 449.727 175.139 452.311 173.545C454.894 171.93 457.689 171.123 460.697 171.123C464.531 171.123 467.589 172.314 469.869 174.695C472.17 177.077 473.321 180.326 473.321 184.443C473.321 186.018 473.179 187.632 472.897 189.287H449.223C449.142 189.913 449.102 190.478 449.102 190.982C449.102 193.99 449.788 196.29 451.16 197.885C452.553 199.459 454.248 200.246 456.246 200.246C458.123 200.246 459.97 199.631 461.786 198.399C463.603 197.168 465.016 195.392 466.025 193.071ZM450.101 185.109H468.144C468.164 184.544 468.174 184.141 468.174 183.898C468.174 181.154 467.488 179.055 466.116 177.602C464.743 176.128 462.977 175.392 460.818 175.392C458.477 175.392 456.337 176.199 454.4 177.813C452.482 179.428 451.049 181.86 450.101 185.109ZM485.323 165.825L486.625 159.619H492.074L490.773 165.825H485.323ZM477.331 204L484.052 171.85H489.531L482.811 204H477.331ZM491.665 206.906L497.205 207.421C497.165 208.672 497.316 209.611 497.659 210.236C498.002 210.862 498.547 211.346 499.294 211.689C500.283 212.133 501.564 212.355 503.139 212.355C506.449 212.355 508.83 211.498 510.283 209.782C511.232 208.632 512.11 206.129 512.917 202.274L513.462 199.671C510.616 202.557 507.589 204 504.38 204C501.131 204 498.406 202.809 496.206 200.428C494.026 198.026 492.937 194.635 492.937 190.256C492.937 186.643 493.794 183.323 495.51 180.296C497.245 177.269 499.304 174.988 501.686 173.454C504.067 171.9 506.519 171.123 509.042 171.123C513.26 171.123 516.509 173.121 518.79 177.117L519.88 171.85H524.905L518.427 202.88C517.72 206.291 516.792 208.945 515.642 210.842C514.491 212.759 512.887 214.243 510.828 215.292C508.79 216.341 506.428 216.866 503.744 216.866C501.161 216.866 498.931 216.533 497.054 215.867C495.197 215.201 493.804 214.222 492.876 212.931C491.968 211.659 491.514 210.196 491.514 208.541C491.514 208.036 491.564 207.492 491.665 206.906ZM498.507 189.771C498.507 191.971 498.719 193.626 499.143 194.736C499.748 196.29 500.606 197.481 501.716 198.309C502.846 199.116 504.097 199.52 505.47 199.52C507.266 199.52 509.052 198.894 510.828 197.643C512.604 196.371 514.037 194.413 515.127 191.77C516.237 189.126 516.792 186.603 516.792 184.201C516.792 181.557 516.055 179.458 514.582 177.904C513.129 176.33 511.323 175.543 509.163 175.543C507.831 175.543 506.539 175.906 505.288 176.633C504.037 177.339 502.866 178.429 501.776 179.902C500.707 181.355 499.889 183.101 499.324 185.14C498.779 187.178 498.507 188.722 498.507 189.771ZM527.1 204L536.363 159.619H541.843L538.301 176.663C540.339 174.685 542.236 173.272 543.992 172.425C545.748 171.557 547.554 171.123 549.411 171.123C552.075 171.123 554.144 171.829 555.617 173.242C557.09 174.635 557.827 176.481 557.827 178.782C557.827 179.912 557.504 181.991 556.858 185.019L552.892 204H547.413L551.5 184.534C552.085 181.709 552.378 179.933 552.378 179.206C552.378 178.157 552.015 177.299 551.288 176.633C550.561 175.967 549.512 175.634 548.14 175.634C546.162 175.634 544.275 176.159 542.478 177.208C540.682 178.237 539.269 179.66 538.24 181.477C537.231 183.273 536.303 186.179 535.455 190.195L532.579 204H527.1ZM562.231 204L571.495 159.619H576.974L573.675 175.482C575.41 173.888 576.985 172.768 578.397 172.122C579.81 171.456 581.283 171.123 582.817 171.123C585.824 171.123 588.327 172.243 590.325 174.483C592.343 176.724 593.352 179.983 593.352 184.262C593.352 187.107 592.949 189.711 592.141 192.072C591.334 194.434 590.335 196.422 589.144 198.036C587.954 199.631 586.722 200.912 585.451 201.881C584.18 202.829 582.878 203.536 581.546 204C580.214 204.484 578.932 204.727 577.701 204.727C575.582 204.727 573.715 204.172 572.1 203.062C570.486 201.931 569.224 200.216 568.316 197.915L567.045 204H562.231ZM570.345 190.801L570.314 191.83C570.314 194.575 570.97 196.664 572.282 198.097C573.594 199.53 575.229 200.246 577.186 200.246C579.104 200.246 580.86 199.58 582.454 198.248C584.069 196.896 585.39 194.797 586.42 191.951C587.449 189.105 587.964 186.482 587.964 184.08C587.964 181.376 587.308 179.277 585.996 177.783C584.704 176.29 583.1 175.543 581.182 175.543C579.205 175.543 577.388 176.31 575.733 177.844C574.078 179.357 572.696 181.699 571.586 184.867C570.758 187.229 570.345 189.206 570.345 190.801ZM598.332 191.8C598.332 185.523 600.178 180.326 603.872 176.209C606.919 172.818 610.915 171.123 615.86 171.123C619.735 171.123 622.853 172.334 625.215 174.756C627.596 177.178 628.787 180.447 628.787 184.564C628.787 188.258 628.04 191.699 626.547 194.888C625.053 198.056 622.924 200.488 620.159 202.184C617.414 203.879 614.518 204.727 611.47 204.727C608.968 204.727 606.687 204.192 604.629 203.122C602.59 202.052 601.026 200.539 599.936 198.581C598.867 196.623 598.332 194.363 598.332 191.8ZM603.811 191.255C603.811 194.282 604.538 196.583 605.991 198.157C607.444 199.711 609.291 200.488 611.531 200.488C612.702 200.488 613.862 200.256 615.012 199.792C616.163 199.308 617.232 198.581 618.221 197.612C619.21 196.644 620.048 195.544 620.734 194.312C621.44 193.061 622.006 191.719 622.429 190.286C623.055 188.288 623.368 186.371 623.368 184.534C623.368 181.628 622.631 179.378 621.158 177.783C619.705 176.169 617.868 175.361 615.648 175.361C613.933 175.361 612.369 175.775 610.956 176.603C609.543 177.41 608.261 178.601 607.111 180.175C605.981 181.749 605.143 183.586 604.598 185.685C604.074 187.763 603.811 189.62 603.811 191.255ZM632.495 204L639.215 171.85H644.059L642.697 178.419C644.352 175.937 645.966 174.1 647.541 172.909C649.135 171.718 650.76 171.123 652.415 171.123C653.504 171.123 654.847 171.517 656.441 172.304L654.201 177.39C653.252 176.703 652.213 176.36 651.083 176.36C649.165 176.36 647.197 177.43 645.179 179.569C643.161 181.709 641.577 185.553 640.426 191.104L637.702 204H632.495ZM653.761 204L663.025 159.619H668.504L664.962 176.663C667.001 174.685 668.898 173.272 670.654 172.425C672.41 171.557 674.216 171.123 676.073 171.123C678.737 171.123 680.805 171.829 682.279 173.242C683.752 174.635 684.489 176.481 684.489 178.782C684.489 179.912 684.166 181.991 683.52 185.019L679.554 204H674.075L678.162 184.534C678.747 181.709 679.039 179.933 679.039 179.206C679.039 178.157 678.676 177.299 677.95 176.633C677.223 175.967 676.174 175.634 674.801 175.634C672.823 175.634 670.936 176.159 669.14 177.208C667.344 178.237 665.931 179.66 664.902 181.477C663.893 183.273 662.964 186.179 662.117 190.195L659.241 204H653.761ZM689.862 191.8C689.862 185.523 691.708 180.326 695.402 176.209C698.449 172.818 702.445 171.123 707.39 171.123C711.265 171.123 714.383 172.334 716.744 174.756C719.126 177.178 720.317 180.447 720.317 184.564C720.317 188.258 719.57 191.699 718.076 194.888C716.583 198.056 714.454 200.488 711.689 202.184C708.944 203.879 706.048 204.727 703 204.727C700.498 204.727 698.217 204.192 696.159 203.122C694.12 202.052 692.556 200.539 691.466 198.581C690.396 196.623 689.862 194.363 689.862 191.8ZM695.341 191.255C695.341 194.282 696.068 196.583 697.521 198.157C698.974 199.711 700.821 200.488 703.061 200.488C704.231 200.488 705.392 200.256 706.542 199.792C707.693 199.308 708.762 198.581 709.751 197.612C710.74 196.644 711.578 195.544 712.264 194.312C712.97 193.061 713.535 191.719 713.959 190.286C714.585 188.288 714.898 186.371 714.898 184.534C714.898 181.628 714.161 179.378 712.688 177.783C711.235 176.169 709.398 175.361 707.178 175.361C705.463 175.361 703.898 175.775 702.486 176.603C701.073 177.41 699.791 178.601 698.641 180.175C697.511 181.749 696.673 183.586 696.128 185.685C695.603 187.763 695.341 189.62 695.341 191.255ZM724.993 191.8C724.993 185.523 726.84 180.326 730.533 176.209C733.581 172.818 737.577 171.123 742.522 171.123C746.397 171.123 749.515 172.334 751.876 174.756C754.258 177.178 755.448 180.447 755.448 184.564C755.448 188.258 754.702 191.699 753.208 194.888C751.715 198.056 749.585 200.488 746.82 202.184C744.076 203.879 741.18 204.727 738.132 204.727C735.629 204.727 733.349 204.192 731.29 203.122C729.252 202.052 727.688 200.539 726.598 198.581C725.528 196.623 724.993 194.363 724.993 191.8ZM730.473 191.255C730.473 194.282 731.199 196.583 732.653 198.157C734.106 199.711 735.952 200.488 738.193 200.488C739.363 200.488 740.524 200.256 741.674 199.792C742.824 199.308 743.894 198.581 744.883 197.612C745.872 196.644 746.709 195.544 747.396 194.312C748.102 193.061 748.667 191.719 749.091 190.286C749.717 188.288 750.029 186.371 750.029 184.534C750.029 181.628 749.293 179.378 747.82 177.783C746.366 176.169 744.53 175.361 742.31 175.361C740.594 175.361 739.03 175.775 737.617 176.603C736.205 177.41 734.923 178.601 733.773 180.175C732.642 181.749 731.805 183.586 731.26 185.685C730.735 187.763 730.473 189.62 730.473 191.255ZM780.832 199.338C777.704 202.93 774.434 204.727 771.024 204.727C767.976 204.727 765.433 203.606 763.395 201.366C761.376 199.106 760.367 195.836 760.367 191.558C760.367 187.642 761.164 184.07 762.759 180.841C764.373 177.591 766.382 175.16 768.783 173.545C771.205 171.93 773.627 171.123 776.049 171.123C780.045 171.123 783.062 173.05 785.101 176.905L788.733 159.619H794.183L784.919 204H779.863L780.832 199.338ZM765.816 190.528C765.816 192.769 766.039 194.535 766.483 195.826C766.927 197.118 767.683 198.198 768.753 199.065C769.823 199.913 771.104 200.337 772.598 200.337C775.08 200.337 777.33 199.045 779.349 196.462C782.053 193.031 783.405 188.793 783.405 183.747C783.405 181.204 782.739 179.216 781.407 177.783C780.075 176.35 778.4 175.634 776.382 175.634C775.07 175.634 773.869 175.926 772.779 176.512C771.71 177.097 770.64 178.096 769.57 179.509C768.521 180.901 767.633 182.677 766.906 184.837C766.18 186.996 765.816 188.894 765.816 190.528ZM795.59 204L796.892 197.794H803.128L802.008 203.213C801.322 206.462 800.252 208.844 798.799 210.357C797.366 211.871 795.671 212.739 793.713 212.961L794.227 210.569C796.629 209.903 798.213 207.714 798.98 204H795.59ZM844.147 204L847.719 186.835L834.066 159.619H840.424L846.963 172.576C848.396 175.402 849.788 178.429 851.14 181.658C852.634 178.913 854.672 175.916 857.256 172.667L867.67 159.619H874.754L853.562 187.289L850.081 204H844.147ZM868.38 191.8C868.38 185.523 870.227 180.326 873.921 176.209C876.968 172.818 880.964 171.123 885.909 171.123C889.784 171.123 892.902 172.334 895.263 174.756C897.645 177.178 898.836 180.447 898.836 184.564C898.836 188.258 898.089 191.699 896.595 194.888C895.102 198.056 892.973 200.488 890.208 202.184C887.463 203.879 884.567 204.727 881.519 204.727C879.017 204.727 876.736 204.192 874.677 203.122C872.639 202.052 871.075 200.539 869.985 198.581C868.915 196.623 868.38 194.363 868.38 191.8ZM873.86 191.255C873.86 194.282 874.587 196.583 876.04 198.157C877.493 199.711 879.339 200.488 881.58 200.488C882.75 200.488 883.911 200.256 885.061 199.792C886.212 199.308 887.281 198.581 888.27 197.612C889.259 196.644 890.097 195.544 890.783 194.312C891.489 193.061 892.054 191.719 892.478 190.286C893.104 188.288 893.417 186.371 893.417 184.534C893.417 181.628 892.68 179.378 891.207 177.783C889.754 176.169 887.917 175.361 885.697 175.361C883.981 175.361 882.417 175.775 881.005 176.603C879.592 177.41 878.31 178.601 877.16 180.175C876.03 181.749 875.192 183.586 874.647 185.685C874.122 187.763 873.86 189.62 873.86 191.255ZM924.492 198.188C920.637 202.547 916.691 204.727 912.655 204.727C910.172 204.727 908.164 204.02 906.63 202.607C905.117 201.174 904.36 199.429 904.36 197.37C904.36 196.018 904.703 193.697 905.389 190.407L909.264 171.85H914.744L910.445 192.405C910.082 194.121 909.9 195.453 909.9 196.401C909.9 197.612 910.263 198.561 910.99 199.247C911.736 199.913 912.826 200.246 914.259 200.246C915.793 200.246 917.287 199.873 918.74 199.126C920.213 198.379 921.474 197.37 922.524 196.099C923.594 194.827 924.461 193.324 925.127 191.588C925.571 190.478 926.086 188.53 926.671 185.745L929.578 171.85H935.057L928.336 204H923.281L924.492 198.188ZM937.675 204L944.396 171.85H949.24L947.877 178.419C949.532 175.937 951.147 174.1 952.721 172.909C954.315 171.718 955.94 171.123 957.595 171.123C958.685 171.123 960.027 171.517 961.621 172.304L959.381 177.39C958.433 176.703 957.393 176.36 956.263 176.36C954.346 176.36 952.378 177.43 950.36 179.569C948.342 181.709 946.757 185.553 945.607 191.104L942.882 204H937.675ZM977.514 204L986.777 159.619H1000.16C1003.37 159.619 1005.82 159.851 1007.51 160.315C1009.94 160.941 1012.01 162.061 1013.72 163.676C1015.44 165.27 1016.73 167.268 1017.6 169.67C1018.46 172.072 1018.9 174.766 1018.9 177.753C1018.9 181.325 1018.35 184.585 1017.26 187.531C1016.19 190.458 1014.78 193.041 1013.02 195.281C1011.29 197.501 1009.46 199.247 1007.55 200.519C1005.65 201.77 1003.4 202.698 1000.79 203.304C998.816 203.768 996.384 204 993.498 204H977.514ZM984.507 198.975H991.53C994.699 198.975 997.514 198.682 999.977 198.097C1001.51 197.733 1002.82 197.199 1003.91 196.492C1005.35 195.584 1006.65 194.383 1007.82 192.89C1009.35 190.912 1010.57 188.661 1011.48 186.139C1012.41 183.596 1012.87 180.71 1012.87 177.48C1012.87 173.888 1012.25 171.133 1011 169.216C1009.74 167.278 1008.15 165.997 1006.21 165.371C1004.78 164.907 1002.55 164.675 999.523 164.675H991.682L984.507 198.975ZM1045.86 193.071L1051.18 193.616C1050.42 196.26 1048.65 198.773 1045.89 201.154C1043.14 203.536 1039.86 204.727 1036.05 204.727C1033.67 204.727 1031.48 204.182 1029.48 203.092C1027.5 201.982 1025.99 200.377 1024.94 198.278C1023.91 196.179 1023.39 193.788 1023.39 191.104C1023.39 187.592 1024.2 184.191 1025.81 180.901C1027.45 177.591 1029.56 175.139 1032.14 173.545C1034.72 171.93 1037.52 171.123 1040.53 171.123C1044.36 171.123 1047.42 172.314 1049.7 174.695C1052 177.077 1053.15 180.326 1053.15 184.443C1053.15 186.018 1053.01 187.632 1052.73 189.287H1029.05C1028.97 189.913 1028.93 190.478 1028.93 190.982C1028.93 193.99 1029.62 196.29 1030.99 197.885C1032.38 199.459 1034.08 200.246 1036.08 200.246C1037.95 200.246 1039.8 199.631 1041.62 198.399C1043.43 197.168 1044.85 195.392 1045.86 193.071ZM1029.93 185.109H1047.97C1047.99 184.544 1048 184.141 1048 183.898C1048 181.154 1047.32 179.055 1045.95 177.602C1044.57 176.128 1042.81 175.392 1040.65 175.392C1038.31 175.392 1036.17 176.199 1034.23 177.813C1032.31 179.428 1030.88 181.86 1029.93 185.109ZM1079.05 200.004C1077.15 201.639 1075.33 202.84 1073.57 203.606C1071.81 204.353 1069.94 204.727 1067.94 204.727C1064.97 204.727 1062.58 203.859 1060.76 202.123C1058.95 200.367 1058.04 198.127 1058.04 195.402C1058.04 193.606 1058.44 192.022 1059.25 190.649C1060.08 189.257 1061.17 188.147 1062.52 187.319C1063.87 186.472 1065.53 185.866 1067.49 185.503C1068.72 185.261 1071.05 185.069 1074.48 184.928C1077.93 184.786 1080.4 184.423 1081.9 183.838C1082.32 182.344 1082.53 181.103 1082.53 180.114C1082.53 178.843 1082.07 177.844 1081.14 177.117C1079.87 176.108 1078.01 175.604 1075.57 175.604C1073.27 175.604 1071.38 176.118 1069.91 177.147C1068.45 178.157 1067.39 179.6 1066.73 181.477L1061.19 180.992C1062.32 177.803 1064.1 175.361 1066.55 173.666C1069.01 171.971 1072.11 171.123 1075.84 171.123C1079.82 171.123 1082.97 172.072 1085.29 173.969C1087.06 175.382 1087.95 177.218 1087.95 179.479C1087.95 181.194 1087.7 183.182 1087.19 185.442L1085.41 193.435C1084.84 195.978 1084.56 198.046 1084.56 199.641C1084.56 200.65 1084.78 202.103 1085.23 204H1079.69C1079.38 202.951 1079.17 201.618 1079.05 200.004ZM1081.08 187.713C1080.31 188.016 1079.48 188.248 1078.6 188.409C1077.73 188.571 1076.26 188.742 1074.21 188.924C1071.02 189.206 1068.77 189.57 1067.45 190.014C1066.14 190.438 1065.15 191.124 1064.49 192.072C1063.82 193.021 1063.49 194.07 1063.49 195.221C1063.49 196.755 1064.01 198.016 1065.06 199.005C1066.13 199.994 1067.65 200.488 1069.6 200.488C1071.42 200.488 1073.17 200.014 1074.84 199.065C1076.52 198.097 1077.84 196.755 1078.81 195.039C1079.78 193.324 1080.53 190.882 1081.08 187.713ZM1092.08 204L1101.35 159.619H1106.82L1097.56 204H1092.08ZM1107.44 193.011L1112.92 192.678C1112.92 194.252 1113.17 195.594 1113.65 196.704C1114.14 197.814 1115.02 198.722 1116.32 199.429C1117.63 200.135 1119.15 200.488 1120.89 200.488C1123.31 200.488 1125.12 200.004 1126.34 199.035C1127.55 198.066 1128.15 196.926 1128.15 195.614C1128.15 194.666 1127.79 193.768 1127.06 192.92C1126.32 192.072 1124.49 191.033 1121.58 189.802C1118.7 188.55 1116.85 187.673 1116.04 187.168C1114.69 186.34 1113.67 185.372 1112.98 184.262C1112.3 183.132 1111.96 181.84 1111.96 180.387C1111.96 177.844 1112.96 175.664 1114.98 173.848C1117 172.031 1119.83 171.123 1123.46 171.123C1127.5 171.123 1130.56 172.062 1132.66 173.938C1134.78 175.795 1135.88 178.247 1135.96 181.295L1130.6 181.658C1130.52 179.721 1129.84 178.187 1128.55 177.057C1127.25 175.926 1125.43 175.361 1123.07 175.361C1121.17 175.361 1119.7 175.795 1118.65 176.663C1117.6 177.531 1117.07 178.469 1117.07 179.479C1117.07 180.488 1117.53 181.376 1118.43 182.143C1119.04 182.667 1120.6 183.475 1123.13 184.564C1127.32 186.381 1129.97 187.814 1131.06 188.863C1132.79 190.538 1133.66 192.577 1133.66 194.979C1133.66 196.573 1133.17 198.137 1132.18 199.671C1131.21 201.205 1129.72 202.436 1127.7 203.364C1125.7 204.272 1123.34 204.727 1120.61 204.727C1116.9 204.727 1113.74 203.808 1111.14 201.972C1108.53 200.135 1107.3 197.148 1107.44 193.011Z" fill="#122231"/>
<path d="M102.774 6.02344C113.97 4.66693 120.463 4.64952 131.657 6.02344C144.741 7.62944 151.325 9.64077 163.166 15.3838C172.565 19.9432 178.442 23.0663 186.272 29.9443C194.426 37.1068 198.571 41.7866 204.652 50.7441C210.792 59.7886 214.014 65.2903 217.255 75.7051C219.648 83.3944 220.081 87.9832 220.931 95.9854C222.154 107.497 222.198 114.118 220.931 125.625C220.072 133.425 219.46 137.849 217.255 145.386C216.046 149.519 213.579 155.786 213.579 155.786L199.4 147.985C199.419 147.924 203.568 134.505 204.652 125.625C205.857 115.746 205.678 110.675 204.652 101.185C203.693 92.3142 203.029 87.2002 199.925 78.8252C196.254 68.9173 192.543 63.6134 186.272 55.4248C179.788 46.9577 175.358 42.9475 166.316 37.2246C159.191 32.7153 154.929 30.4473 146.886 27.8643C137.894 24.9762 132.69 23.2363 123.254 22.6641C113.376 22.0651 107.689 23.0497 98.0483 25.2637C88.2511 27.5136 82.7613 29.4091 73.8921 34.1045C67.1203 37.6895 64.2714 39.831 58.6626 45.0244C53.6563 49.6599 50.4744 52.9568 46.5845 58.5449L46.4038 58.8047C41.4605 65.9054 38.5339 70.1079 35.5562 78.3047C32.5882 86.4745 31.3314 91.522 30.3052 100.145C29.2959 108.625 29.4431 114.529 30.3052 123.025C31.1505 131.356 32.9262 134.828 35.5562 142.785C38.3873 151.351 40.5588 155.973 44.4839 164.105C49.0364 173.537 51.8087 178.254 57.6128 186.986C65.3077 198.563 70.1541 204.963 79.1431 215.587C86.597 224.396 99.0397 238.401 99.0981 238.467L118.529 260.308L146.886 225.986L159.49 237.947L126.931 273.308C126.931 273.308 122.284 277.726 118.529 277.987C114.245 278.285 108.596 273.347 108.551 273.308L82.8188 245.228C82.8188 245.228 66.795 227.358 57.6128 215.066C51.1177 206.372 47.6658 201.345 41.8579 192.187C36.19 183.249 32.7895 178.314 28.2046 168.786C23.4858 158.98 21.2272 153.233 18.2271 142.785C15.7631 134.204 14.3731 129.305 13.5005 120.426C12.7258 112.543 12.9516 108.046 13.5005 100.145C14.2709 89.0537 15.5177 82.5399 19.2769 72.0645C22.8118 62.214 25.2429 57.1878 31.355 48.6641C37.7444 39.7535 42.8361 34.3439 51.311 27.3438C60.4936 19.7592 65.405 16.6374 76.5171 12.2637C86.3164 8.40667 92.3071 7.29163 102.774 6.02344Z" fill="#F67E2E"/>
<path d="M102.774 6.02344L102.714 5.52707L102.714 5.52707L102.774 6.02344ZM131.657 6.02344L131.718 5.52716L131.718 5.52716L131.657 6.02344ZM163.166 15.3838L163.384 14.9339L163.384 14.9339L163.166 15.3838ZM186.272 29.9443L186.602 29.5687L186.602 29.5687L186.272 29.9443ZM204.652 50.7441L205.066 50.4633L205.066 50.4633L204.652 50.7441ZM217.255 75.7051L217.733 75.5565L217.733 75.5565L217.255 75.7051ZM220.931 95.9854L220.434 96.0382L220.434 96.0382L220.931 95.9854ZM220.931 125.625L221.428 125.68L221.428 125.68L220.931 125.625ZM217.255 145.386L216.775 145.245L216.775 145.245L217.255 145.386ZM213.579 155.786L213.338 156.224L213.836 156.498L214.044 155.969L213.579 155.786ZM199.4 147.985L198.922 147.838L198.802 148.227L199.159 148.423L199.4 147.985ZM204.652 125.625L205.148 125.686L205.148 125.686L204.652 125.625ZM204.652 101.185L205.149 101.131L205.149 101.131L204.652 101.185ZM199.925 78.8252L200.394 78.6515L200.394 78.6515L199.925 78.8252ZM186.272 55.4248L185.875 55.7288L185.875 55.7288L186.272 55.4248ZM166.316 37.2246L166.583 36.8021L166.583 36.8021L166.316 37.2246ZM146.886 27.8643L147.039 27.3882L147.039 27.3882L146.886 27.8643ZM123.254 22.6641L123.285 22.165L123.285 22.165L123.254 22.6641ZM98.0483 25.2637L97.9364 24.7764L97.9364 24.7764L98.0483 25.2637ZM73.8921 34.1045L73.6581 33.6626L73.6581 33.6626L73.8921 34.1045ZM58.6626 45.0244L58.3229 44.6575L58.3229 44.6575L58.6626 45.0244ZM46.5845 58.5449L46.1741 58.2593L46.174 58.2594L46.5845 58.5449ZM46.4038 58.8047L46.8142 59.0904L46.8143 59.0902L46.4038 58.8047ZM35.5562 78.3047L35.0862 78.134L35.0862 78.134L35.5562 78.3047ZM30.3052 100.145L29.8087 100.085L29.8087 100.085L30.3052 100.145ZM30.3052 123.025L29.8077 123.076L29.8077 123.076L30.3052 123.025ZM35.5562 142.785L36.0309 142.628L36.0309 142.628L35.5562 142.785ZM44.4839 164.105L44.9342 163.888L44.9342 163.888L44.4839 164.105ZM57.6128 186.986L57.1964 187.263L57.1964 187.263L57.6128 186.986ZM79.1431 215.587L78.7614 215.91L78.7614 215.91L79.1431 215.587ZM99.0981 238.467L98.7244 238.799L98.7246 238.799L99.0981 238.467ZM118.529 260.308L118.155 260.64L118.543 261.076L118.914 260.626L118.529 260.308ZM146.886 225.986L147.23 225.624L146.842 225.255L146.501 225.668L146.886 225.986ZM159.49 237.947L159.858 238.286L160.191 237.924L159.834 237.585L159.49 237.947ZM126.931 273.308L127.276 273.67L127.288 273.659L127.299 273.646L126.931 273.308ZM118.529 277.987L118.563 278.486L118.563 278.486L118.529 277.987ZM108.551 273.308L108.183 273.645L108.201 273.666L108.222 273.684L108.551 273.308ZM82.8188 245.228L82.4466 245.561L82.4502 245.565L82.8188 245.228ZM57.6128 215.066L58.0134 214.767L58.0134 214.767L57.6128 215.066ZM41.8579 192.187L41.4357 192.454L41.4357 192.454L41.8579 192.187ZM28.2046 168.786L27.754 169.003L27.754 169.003L28.2046 168.786ZM18.2271 142.785L18.7076 142.647L18.7076 142.647L18.2271 142.785ZM13.5005 120.426L13.0029 120.475L13.0029 120.475L13.5005 120.426ZM13.5005 100.145L13.0017 100.11L13.0017 100.11L13.5005 100.145ZM19.2769 72.0645L18.8062 71.8956L18.8062 71.8956L19.2769 72.0645ZM31.355 48.6641L31.7613 48.9554L31.7613 48.9554L31.355 48.6641ZM51.311 27.3438L50.9926 26.9582L50.9926 26.9582L51.311 27.3438ZM76.5171 12.2637L76.334 11.7984L76.334 11.7984L76.5171 12.2637ZM102.774 6.02344L102.834 6.51981C113.99 5.16807 120.443 5.15083 131.596 6.51971L131.657 6.02344L131.718 5.52716C120.483 4.14821 113.949 4.1658 102.714 5.52707L102.774 6.02344ZM131.657 6.02344L131.596 6.51971C144.623 8.11875 151.155 10.1137 162.947 15.8337L163.166 15.3838L163.384 14.9339C151.496 9.16784 144.859 7.14013 131.718 5.52716L131.657 6.02344ZM163.166 15.3838L162.947 15.8337C172.333 20.3863 178.162 23.4862 185.942 30.32L186.272 29.9443L186.602 29.5687C178.721 22.6464 172.798 19.5001 163.384 14.9339L163.166 15.3838ZM186.272 29.9443L185.942 30.32C194.065 37.4548 198.181 42.1028 204.238 51.025L204.652 50.7441L205.066 50.4633C198.96 41.4703 194.788 36.7587 186.602 29.5687L186.272 29.9443ZM204.652 50.7441L204.238 51.025C210.363 60.0472 213.557 65.5032 216.778 75.8537L217.255 75.7051L217.733 75.5565C214.471 65.0773 211.221 59.53 205.066 50.4633L204.652 50.7441ZM217.255 75.7051L216.778 75.8537C219.155 83.4914 219.584 88.0364 220.434 96.0382L220.931 95.9854L221.428 95.9325C220.578 87.93 220.142 83.2974 217.733 75.5565L217.255 75.7051ZM220.931 95.9854L220.434 96.0382C221.653 107.516 221.697 114.101 220.434 125.57L220.931 125.625L221.428 125.68C222.699 114.135 222.655 107.478 221.428 95.9325L220.931 95.9854ZM220.931 125.625L220.434 125.57C219.577 133.358 218.969 137.749 216.775 145.245L217.255 145.386L217.735 145.526C219.952 137.949 220.568 133.493 221.428 125.68L220.931 125.625ZM217.255 145.386L216.775 145.245C216.176 147.295 215.262 149.881 214.494 151.963C214.111 153.002 213.766 153.913 213.516 154.563C213.391 154.888 213.291 155.149 213.221 155.327C213.186 155.417 213.159 155.486 213.141 155.532C213.132 155.556 213.125 155.573 213.12 155.585C213.118 155.591 213.116 155.596 213.115 155.599C213.115 155.6 213.114 155.601 213.114 155.602C213.114 155.602 213.114 155.603 213.113 155.603C213.113 155.603 213.113 155.603 213.113 155.603C213.113 155.603 213.113 155.603 213.579 155.786C214.044 155.969 214.044 155.969 214.044 155.969C214.044 155.969 214.044 155.969 214.044 155.969C214.044 155.969 214.044 155.968 214.044 155.968C214.045 155.967 214.045 155.966 214.046 155.965C214.047 155.961 214.049 155.957 214.051 155.951C214.056 155.939 214.063 155.921 214.072 155.897C214.091 155.85 214.118 155.78 214.153 155.69C214.223 155.51 214.324 155.248 214.45 154.921C214.701 154.268 215.048 153.353 215.433 152.309C216.201 150.223 217.126 147.61 217.735 145.526L217.255 145.386ZM213.579 155.786L213.82 155.348L199.641 147.547L199.4 147.985L199.159 148.423L213.338 156.224L213.579 155.786ZM199.4 147.985L199.878 148.133C199.894 148.081 204.058 134.618 205.148 125.686L204.652 125.625L204.156 125.564C203.079 134.392 198.944 147.767 198.922 147.838L199.4 147.985ZM204.652 125.625L205.148 125.686C206.359 115.761 206.178 110.65 205.149 101.131L204.652 101.185L204.155 101.238C205.178 110.7 205.355 115.732 204.156 125.564L204.652 125.625ZM204.652 101.185L205.149 101.131C204.189 92.2483 203.519 87.0852 200.394 78.6515L199.925 78.8252L199.456 78.9989C202.538 87.3152 203.197 92.3801 204.155 101.238L204.652 101.185ZM199.925 78.8252L200.394 78.6515C196.697 68.675 192.951 63.3248 186.669 55.1208L186.272 55.4248L185.875 55.7288C192.134 63.9019 195.81 69.1597 199.456 78.9989L199.925 78.8252ZM186.272 55.4248L186.669 55.1208C180.148 46.6058 175.674 42.5558 166.583 36.8021L166.316 37.2246L166.049 37.6471C175.042 43.3392 179.428 47.3097 185.875 55.7288L186.272 55.4248ZM166.316 37.2246L166.583 36.8021C159.435 32.2774 155.134 29.9878 147.039 27.3882L146.886 27.8643L146.733 28.3403C154.725 30.9069 158.948 33.1531 166.049 37.6471L166.316 37.2246ZM146.886 27.8643L147.039 27.3882C138.046 24.4999 132.789 22.7414 123.285 22.165L123.254 22.6641L123.224 23.1631C132.591 23.7312 137.742 25.4526 146.733 28.3403L146.886 27.8643ZM123.254 22.6641L123.285 22.165C113.339 21.5619 107.6 22.5572 97.9364 24.7764L98.0483 25.2637L98.1603 25.751C107.779 23.5422 113.413 22.5682 123.224 23.1631L123.254 22.6641ZM98.0483 25.2637L97.9364 24.7764C88.1027 27.0346 82.571 28.9441 73.6581 33.6626L73.8921 34.1045L74.126 34.5464C82.9516 29.8741 88.3995 27.9925 98.1603 25.751L98.0483 25.2637ZM73.8921 34.1045L73.6581 33.6626C66.843 37.2706 63.9591 39.4388 58.3229 44.6575L58.6626 45.0244L59.0023 45.3913C64.5837 40.2233 67.3976 38.1085 74.126 34.5464L73.8921 34.1045ZM58.6626 45.0244L58.3229 44.6575C53.3014 49.3071 50.0919 52.6313 46.1741 58.2593L46.5845 58.5449L46.9948 58.8306C50.857 53.2824 54.0111 50.0128 59.0023 45.3913L58.6626 45.0244ZM46.5845 58.5449L46.174 58.2594L45.9933 58.5192L46.4038 58.8047L46.8143 59.0902L46.995 58.8304L46.5845 58.5449ZM46.4038 58.8047L45.9935 58.519C41.0472 65.6239 38.0877 69.8716 35.0862 78.134L35.5562 78.3047L36.0261 78.4754C38.98 70.3442 41.8737 66.1869 46.8142 59.0904L46.4038 58.8047ZM35.5562 78.3047L35.0862 78.134C32.1061 86.3372 30.8398 91.4222 29.8087 100.085L30.3052 100.145L30.8017 100.204C31.8231 91.6219 33.0704 86.6117 36.0261 78.4754L35.5562 78.3047ZM30.3052 100.145L29.8087 100.085C28.794 108.611 28.9429 114.553 29.8077 123.076L30.3052 123.025L30.8026 122.975C29.9432 114.506 29.7977 108.639 30.8017 100.204L30.3052 100.145ZM30.3052 123.025L29.8077 123.076C30.6602 131.477 32.4643 135.024 35.0814 142.942L35.5562 142.785L36.0309 142.628C33.3881 134.632 31.6408 131.235 30.8026 122.975L30.3052 123.025ZM35.5562 142.785L35.0814 142.942C37.9229 151.54 40.1056 156.185 44.0336 164.323L44.4839 164.105L44.9342 163.888C41.0119 155.762 38.8517 151.163 36.0309 142.628L35.5562 142.785ZM44.4839 164.105L44.0336 164.323C48.5973 173.778 51.3814 178.514 57.1964 187.263L57.6128 186.986L58.0292 186.71C52.236 177.994 49.4755 173.297 44.9342 163.888L44.4839 164.105ZM57.6128 186.986L57.1964 187.263C64.9025 198.857 69.7605 205.272 78.7614 215.91L79.1431 215.587L79.5248 215.264C70.5476 204.654 65.713 198.27 58.0292 186.71L57.6128 186.986ZM79.1431 215.587L78.7614 215.91C86.22 224.725 98.6668 238.734 98.7244 238.799L99.0981 238.467L99.4719 238.135C99.4126 238.068 86.9741 224.068 79.5248 215.264L79.1431 215.587ZM99.0981 238.467L98.7246 238.799L118.155 260.64L118.529 260.308L118.902 259.975L99.4717 238.134L99.0981 238.467ZM118.529 260.308L118.914 260.626L147.272 226.305L146.886 225.986L146.501 225.668L118.143 259.989L118.529 260.308ZM146.886 225.986L146.542 226.349L159.146 238.31L159.49 237.947L159.834 237.585L147.23 225.624L146.886 225.986ZM159.49 237.947L159.122 237.609L126.563 272.969L126.931 273.308L127.299 273.646L159.858 238.286L159.49 237.947ZM126.931 273.308C126.587 272.945 126.587 272.945 126.587 272.945C126.587 272.945 126.587 272.945 126.587 272.945C126.587 272.945 126.586 272.945 126.586 272.946C126.586 272.946 126.585 272.947 126.584 272.947C126.582 272.949 126.579 272.952 126.575 272.956C126.567 272.964 126.555 272.975 126.538 272.991C126.505 273.022 126.455 273.068 126.389 273.127C126.258 273.245 126.066 273.415 125.823 273.62C125.338 274.032 124.652 274.582 123.852 275.139C122.23 276.271 120.226 277.368 118.494 277.489L118.529 277.987L118.563 278.486C120.587 278.345 122.785 277.103 124.424 275.96C125.256 275.38 125.967 274.809 126.469 274.384C126.721 274.171 126.921 273.994 127.059 273.869C127.128 273.807 127.182 273.758 127.218 273.724C127.236 273.707 127.25 273.694 127.26 273.685C127.265 273.68 127.269 273.677 127.271 273.674C127.273 273.673 127.274 273.672 127.274 273.671C127.275 273.671 127.275 273.671 127.275 273.67C127.275 273.67 127.275 273.67 127.276 273.67C127.276 273.67 127.276 273.67 126.931 273.308ZM118.529 277.987L118.494 277.489C116.522 277.625 114.158 276.545 112.212 275.348C110.293 274.167 108.893 272.943 108.881 272.931L108.551 273.308L108.222 273.684C108.254 273.712 109.701 274.976 111.688 276.199C113.649 277.407 116.251 278.647 118.563 278.486L118.529 277.987ZM108.551 273.308L108.92 272.97L83.1875 244.89L82.8188 245.228L82.4502 245.565L108.183 273.645L108.551 273.308ZM82.8188 245.228C83.1911 244.894 83.1911 244.894 83.1909 244.894C83.1908 244.893 83.1906 244.893 83.1904 244.893C83.1899 244.892 83.1892 244.892 83.1883 244.891C83.1863 244.888 83.1835 244.885 83.1796 244.881C83.1719 244.872 83.1604 244.859 83.1452 244.842C83.1147 244.808 83.0692 244.758 83.0095 244.691C82.8901 244.557 82.7138 244.359 82.4859 244.103C82.0303 243.591 81.369 242.846 80.5468 241.913C78.9021 240.047 76.6137 237.43 74.0385 234.431C68.8862 228.428 62.5938 220.899 58.0134 214.767L57.6128 215.066L57.2122 215.366C61.814 221.526 68.1247 229.076 73.2798 235.082C75.8583 238.086 78.1497 240.705 79.7965 242.574C80.62 243.508 81.2823 244.255 81.7388 244.768C81.9671 245.025 82.144 245.223 82.2638 245.357C82.3237 245.424 82.3693 245.475 82.4 245.509C82.4154 245.527 82.427 245.539 82.4348 245.548C82.4387 245.553 82.4416 245.556 82.4436 245.558C82.4446 245.559 82.4453 245.56 82.4458 245.56C82.4461 245.561 82.4463 245.561 82.4464 245.561C82.4465 245.561 82.4466 245.561 82.8188 245.228ZM57.6128 215.066L58.0134 214.767C51.5262 206.083 48.0814 201.067 42.2802 191.919L41.8579 192.187L41.4357 192.454C47.2501 201.623 50.7093 206.661 57.2122 215.366L57.6128 215.066ZM41.8579 192.187L42.2802 191.919C36.6064 182.972 33.2245 178.065 28.6551 168.569L28.2046 168.786L27.754 169.003C32.3545 178.563 35.7735 183.526 41.4357 192.454L41.8579 192.187ZM28.2046 168.786L28.6551 168.569C23.9474 158.787 21.6993 153.066 18.7076 142.647L18.2271 142.785L17.7465 142.923C20.755 153.401 23.0241 159.174 27.754 169.003L28.2046 168.786ZM18.2271 142.785L18.7076 142.647C16.2451 134.071 14.866 129.208 13.9981 120.377L13.5005 120.426L13.0029 120.475C13.8802 129.401 15.2811 134.337 17.7465 142.923L18.2271 142.785ZM13.5005 120.426L13.9981 120.377C13.2275 112.535 13.4511 108.07 13.9993 100.179L13.5005 100.145L13.0017 100.11C12.4522 108.021 12.2242 112.551 13.0029 120.475L13.5005 120.426ZM13.5005 100.145L13.9993 100.179C14.7668 89.1296 16.0053 82.6614 19.7475 72.2333L19.2769 72.0645L18.8062 71.8956C15.03 82.4184 13.775 88.9778 13.0017 100.11L13.5005 100.145ZM19.2769 72.0645L19.7475 72.2333C23.2694 62.419 25.6806 57.4355 31.7613 48.9554L31.355 48.6641L30.9486 48.3727C24.8053 56.94 22.3541 62.009 18.8062 71.8956L19.2769 72.0645ZM31.355 48.6641L31.7613 48.9554C38.125 40.0808 43.1868 34.7027 51.6295 27.7293L51.311 27.3438L50.9926 26.9582C42.4853 33.9851 37.3639 39.4261 30.9486 48.3727L31.355 48.6641ZM51.311 27.3438L51.6295 27.7293C60.7773 20.1734 65.6438 17.0808 76.7002 12.7289L76.5171 12.2637L76.334 11.7984C65.1662 16.1941 60.2099 19.345 50.9926 26.9582L51.311 27.3438ZM76.5171 12.2637L76.7002 12.7289C86.4466 8.89274 92.3922 7.78497 102.834 6.51981L102.774 6.02344L102.714 5.52707C92.2219 6.79829 86.1861 7.92061 76.334 11.7984L76.5171 12.2637Z" fill="#F67E2E"/>
<path d="M100.107 48.807C108.6 46.5069 113.858 46.0897 122.618 46.7914C134.298 47.7269 141.42 50.1528 151.2 55.3236C158.724 59.3015 162.423 61.9869 168.083 67.9105C174.129 74.238 176.752 78.764 180.359 86.514C183.307 92.848 184.391 96.7938 185.48 103.636C186.138 107.774 186.132 113.062 185.973 117.247C185.893 119.354 185.773 121.208 185.673 122.536C185.623 123.2 185.578 123.734 185.545 124.103C185.529 124.287 185.515 124.43 185.506 124.528C185.502 124.576 185.498 124.614 185.495 124.64C185.494 124.652 185.493 124.663 185.492 124.669C185.492 124.672 185.492 124.675 185.491 124.677V124.68L185.489 124.713L185.484 124.746L185.483 124.748C185.482 124.75 185.482 124.753 185.482 124.755C185.481 124.761 185.48 124.77 185.479 124.781C185.476 124.802 185.47 124.834 185.464 124.875C185.452 124.958 185.434 125.081 185.409 125.238C185.361 125.551 185.289 126.005 185.196 126.569C185.009 127.695 184.734 129.265 184.382 131.036C183.683 134.556 182.664 138.963 181.401 142.282C180.401 144.906 178.759 148.633 177.379 151.678C176.827 152.897 176.313 154.012 175.896 154.912L186.442 154.514L186.47 154.513H186.545C186.574 154.513 186.615 154.514 186.666 154.514C186.77 154.515 186.92 154.517 187.103 154.521C187.468 154.529 187.972 154.545 188.526 154.577C189.57 154.637 191.01 154.763 191.97 155.08C193.112 155.458 194.161 156.217 194.86 156.794C195.224 157.096 195.527 157.377 195.74 157.583C195.847 157.687 195.933 157.773 195.993 157.834C196.023 157.865 196.047 157.89 196.065 157.908L248.53 207.556L248.741 207.756L248.863 208.021L247.499 208.646L248.863 208.022L248.865 208.028C248.867 208.031 248.87 208.037 248.872 208.043C248.878 208.056 248.887 208.074 248.897 208.096C248.917 208.142 248.947 208.208 248.984 208.292C249.057 208.461 249.161 208.704 249.284 209.006C249.532 209.609 249.861 210.454 250.189 211.422C250.829 213.312 251.528 215.855 251.498 218.013C251.47 220.065 250.773 222.472 250.146 224.261C249.824 225.178 249.505 225.977 249.266 226.547C249.146 226.833 249.046 227.062 248.975 227.222C248.94 227.302 248.912 227.364 248.892 227.408C248.882 227.429 248.874 227.446 248.868 227.458C248.866 227.464 248.863 227.469 248.862 227.472C248.861 227.474 248.86 227.476 248.86 227.477V227.478L248.859 227.479L248.746 227.72L248.558 227.909L209.558 266.769L209.45 266.875L209.324 266.958L208.499 265.706L209.323 266.959L209.322 266.96L209.307 266.97C209.297 266.976 209.283 266.985 209.266 266.996C209.232 267.019 209.183 267.05 209.12 267.089C208.995 267.168 208.815 267.281 208.591 267.414C208.144 267.682 207.516 268.041 206.788 268.411C205.383 269.125 203.421 269.977 201.645 270.151C199.314 270.379 196.642 269.506 194.722 268.709C193.727 268.296 192.862 267.872 192.246 267.551C191.938 267.39 191.689 267.254 191.516 267.158C191.429 267.109 191.361 267.071 191.314 267.043C191.29 267.03 191.271 267.019 191.258 267.011C191.252 267.007 191.246 267.004 191.242 267.001C191.241 267 191.239 266.999 191.238 266.998L191.237 266.997H191.236L191.998 265.706L191.235 266.997L191.097 266.915L190.979 266.806L156.479 234.832L156.47 234.825L157.499 233.733L156.47 234.824L144.47 223.51L144.429 223.472L144.392 223.431L139.926 218.549C139.905 218.529 139.875 218.501 139.84 218.467C139.762 218.391 139.65 218.281 139.515 218.144C139.244 217.87 138.873 217.483 138.471 217.03C137.695 216.155 136.693 214.91 136.136 213.701C135.492 212.302 135.228 210.485 135.108 209.147C135.045 208.453 135.018 207.836 135.006 207.393C135 207.171 134.999 206.991 134.998 206.865V206.689L134.531 182.31C134.129 182.361 133.672 182.421 133.181 182.482C131.469 182.693 129.321 182.942 127.626 183.086C123.732 183.417 121.472 183.629 117.482 183.583C110.737 183.506 106.755 183.275 100.125 181.569C93.1844 179.782 89.4265 177.96 83.2708 174.54C77.1568 171.144 73.4752 169.033 68.4348 163.956C63.1573 158.641 61.1513 154.684 57.6838 148.372C53.6677 141.062 51.3196 136.607 49.5325 128.289C47.3837 118.289 47.5817 112.086 49.5266 102.109C51.5998 91.474 54.4559 85.251 60.7805 76.4349C65.9961 69.1649 68.4311 65.9001 76.1213 60.3519C83.7518 54.8469 90.4001 51.4356 100.107 48.807ZM181.673 164.347C181.604 164.348 181.549 164.349 181.511 164.35C181.503 164.35 181.495 164.351 181.489 164.351H164.93L166.193 166.589L171.193 175.443L171.465 175.925L171.985 176.115C171.986 176.115 171.99 176.116 171.993 176.118C172.001 176.121 172.014 176.126 172.031 176.132C172.067 176.146 172.122 176.167 172.194 176.195C172.337 176.251 172.549 176.336 172.81 176.448C173.333 176.671 174.048 176.997 174.817 177.406C176.424 178.261 178.006 179.347 178.754 180.461C180.549 183.134 180.754 185.967 180.051 188.581C179.663 190.024 179.335 190.828 178.888 191.482C178.437 192.142 177.794 192.753 176.583 193.686C175.316 194.663 174.157 195.201 172.963 195.446C171.757 195.693 170.419 195.662 168.765 195.365C167.007 195.049 165.628 194.584 164.527 193.88C163.448 193.19 162.558 192.222 161.846 190.77C160.554 188.134 160.274 185.755 160.957 182.928C161.117 182.268 161.678 181.383 162.35 180.549C162.664 180.159 162.966 179.824 163.19 179.587C163.301 179.469 163.392 179.376 163.453 179.315C163.484 179.284 163.507 179.262 163.522 179.247L163.538 179.231L164.281 178.518L163.882 177.569V177.568L163.879 177.562C163.878 177.558 163.876 177.553 163.873 177.547C163.868 177.535 163.86 177.517 163.851 177.495C163.831 177.449 163.803 177.384 163.767 177.301C163.694 177.135 163.588 176.896 163.452 176.602C163.182 176.015 162.793 175.203 162.319 174.301C161.388 172.534 160.057 170.284 158.58 168.747C158.308 168.464 158.07 168.184 157.817 167.885C157.573 167.598 157.299 167.272 157 166.969C156.362 166.321 155.585 165.744 154.429 165.398C153.487 165.116 152.522 164.94 151.532 165.023C150.517 165.108 149.569 165.459 148.649 166.092C147.64 166.787 147.001 167.984 146.649 168.764C146.455 169.193 146.309 169.586 146.211 169.871C146.162 170.015 146.124 170.134 146.098 170.219C146.085 170.262 146.075 170.297 146.068 170.322C146.064 170.334 146.061 170.345 146.059 170.353C146.058 170.357 146.057 170.36 146.056 170.363C146.056 170.364 146.055 170.366 146.055 170.367L146.054 170.368V170.369L145.998 170.57L145.999 170.778V170.803C145.999 170.82 146 170.846 146 170.879C146.001 170.946 146 171.045 146.001 171.174C146.003 171.433 146.005 171.813 146.008 172.296C146.014 173.264 146.025 174.649 146.039 176.317C146.068 179.653 146.115 184.124 146.189 188.665C146.262 193.204 146.361 197.822 146.494 201.445C146.561 203.254 146.636 204.829 146.722 206.027C146.765 206.624 146.811 207.143 146.863 207.558C146.907 207.915 146.971 208.355 147.096 208.685C147.722 210.34 148.974 212.093 149.98 213.355C150.497 214.004 150.978 214.559 151.33 214.952C151.506 215.148 151.651 215.305 151.753 215.414C151.804 215.469 151.845 215.512 151.873 215.541C151.887 215.556 151.898 215.568 151.906 215.577L151.919 215.59L152.999 214.549L151.92 215.591L151.937 215.608L151.953 215.625L193.421 255.929C193.438 255.948 193.46 255.972 193.487 256C193.55 256.068 193.64 256.162 193.751 256.274C193.973 256.498 194.29 256.802 194.665 257.12C195.36 257.71 196.472 258.538 197.669 258.808C198.634 259.026 199.6 258.877 200.413 258.632C201.239 258.383 202.021 258.001 202.675 257.624C203.335 257.245 203.903 256.85 204.304 256.552C204.506 256.402 204.669 256.274 204.783 256.182C204.84 256.136 204.886 256.099 204.918 256.073C204.934 256.059 204.947 256.048 204.956 256.04C204.961 256.037 204.965 256.033 204.968 256.031C204.97 256.029 204.971 256.028 204.972 256.027L204.974 256.026V256.025L203.999 254.885L204.975 256.025L205.031 255.976L205.082 255.922L237.582 221.982L237.654 221.908L237.714 221.825L236.499 220.944L237.714 221.824L237.716 221.822C237.717 221.821 237.717 221.819 237.718 221.818C237.72 221.815 237.722 221.812 237.725 221.808C237.73 221.8 237.738 221.791 237.746 221.779C237.763 221.755 237.786 221.722 237.814 221.681C237.869 221.599 237.944 221.484 238.032 221.341C238.208 221.057 238.439 220.654 238.665 220.172C239.1 219.248 239.601 217.86 239.495 216.408C239.365 214.617 238.212 212.95 237.335 211.889C236.867 211.323 236.408 210.848 236.068 210.516C235.897 210.349 235.752 210.216 235.65 210.122C235.598 210.076 235.557 210.038 235.528 210.012C235.524 210.009 235.519 210.005 235.516 210.001L196.587 171.703C196.583 171.699 196.578 171.693 196.573 171.687C196.54 171.651 196.492 171.598 196.432 171.532C196.311 171.399 196.137 171.209 195.919 170.979C195.484 170.518 194.871 169.888 194.159 169.212C192.78 167.903 190.873 166.268 189.12 165.47C187.609 164.782 185.631 164.525 184.167 164.419C183.409 164.365 182.735 164.348 182.25 164.345C182.008 164.343 181.811 164.345 181.673 164.347Z" fill="#122231"/>
<path d="M75.499 96.9854C75.499 96.9854 69.7188 95.3203 68.499 95.5097C66.3426 95.8447 65.4366 98.3082 64.499 100.921C63.4568 103.824 63.5741 106.696 63.499 109.775C63.4522 111.695 63.75 113.271 63.999 115.186C64.4268 118.475 64.5125 119.393 65.499 122.564C66.3694 125.362 67.0811 126.959 68.499 129.451C70.1232 132.305 70.9498 133.745 73.499 135.845C76.247 138.11 78.5978 139.651 81.999 140.764C86.0917 142.104 89.201 142.6 93.499 142.24C98.363 141.833 101.359 140.781 105.999 139.289C109.345 138.212 110.587 137.681 113.999 136.829C115.929 136.347 117.008 135.817 118.999 135.845C121.655 135.883 122.47 136.031 124.999 136.829C127.351 137.572 128.656 138.52 130.999 139.289C135.099 140.633 137.195 140.863 141.499 141.256C145.214 141.595 148.436 141.358 151.999 140.272C156.606 138.869 160.262 137.394 163.499 133.878C166.841 130.248 168.105 127.266 169.499 122.564C170.984 117.554 171.499 109.283 170.999 103.872C170.554 99.055 169.499 96.4934 167.499 95.5097C165.889 94.7177 156.499 97.9691 156.499 97.9691C151.605 99.2691 147.946 100.322 142.999 101.412C136.828 102.773 135.766 103.035 129.499 103.872C124.627 104.523 120.415 104.813 115.499 104.856C110.195 104.902 106.233 104.721 100.999 103.872C94.2695 102.781 75.499 96.9854 75.499 96.9854Z" fill="white" stroke="#122231" stroke-width="3"/>
<path d="M88.9991 113.218C88.9991 113.218 86.7918 113.671 85.4991 115.186C84.6567 116.172 84.3265 117.381 83.9992 118.629C83.6089 120.117 83.5604 121.089 83.9991 122.564C84.5476 124.408 85.4837 125.288 86.9991 126.499C88.3546 127.583 89.3142 128.015 90.9991 128.467C93.2597 129.073 95.2688 129.174 97.499 128.467C98.9974 127.992 99.6779 127.764 100.499 126.499C101.765 124.55 102.129 122.825 101.499 120.596C100.933 118.594 100.541 117.349 98.4991 115.677C96.4576 114.006 95.9991 113.71 93.9991 113.218C91.9991 112.726 88.9991 113.218 88.9991 113.218Z" fill="#122231"/>
<path d="M135.499 117.153C133.999 119.121 133.499 119.613 132.999 121.58C132.499 123.548 133.196 124.949 133.999 126.499C135.155 128.731 138.499 128.959 138.499 128.959C138.499 128.959 142.325 129.327 144.499 128.467C146.425 127.705 148.499 126.007 148.499 126.007C148.499 126.007 149.69 124.975 150.499 123.056C151.116 121.593 151.623 120.208 151.499 118.629C151.404 117.418 151.192 116.191 150.499 115.186C149.465 113.686 147.499 113.218 147.499 113.218C147.499 113.218 144.391 112.743 142.499 113.218C140.551 113.707 139.499 114.202 139.499 114.202C139.499 114.202 136.999 115.186 135.499 117.153Z" fill="#122231"/>
<path d="M88.9991 113.218C88.9991 113.218 86.7918 113.671 85.4991 115.186C84.6567 116.172 84.3265 117.381 83.9992 118.629C83.6089 120.117 83.5604 121.089 83.9991 122.564C84.5476 124.408 85.4837 125.288 86.9991 126.499C88.3546 127.583 89.3142 128.015 90.9991 128.467C93.2597 129.073 95.2688 129.174 97.499 128.467C98.9974 127.992 99.6779 127.764 100.499 126.499C101.765 124.55 102.129 122.825 101.499 120.596C100.933 118.594 100.541 117.349 98.4991 115.677C96.4576 114.006 95.9991 113.71 93.9991 113.218C91.9991 112.726 88.9991 113.218 88.9991 113.218Z" stroke="#122231" stroke-width="3"/>
<path d="M135.499 117.153C133.999 119.121 133.499 119.613 132.999 121.58C132.499 123.548 133.196 124.949 133.999 126.499C135.155 128.731 138.499 128.959 138.499 128.959C138.499 128.959 142.325 129.327 144.499 128.467C146.425 127.705 148.499 126.007 148.499 126.007C148.499 126.007 149.69 124.975 150.499 123.056C151.116 121.593 151.623 120.208 151.499 118.629C151.404 117.418 151.192 116.191 150.499 115.186C149.465 113.686 147.499 113.218 147.499 113.218C147.499 113.218 144.391 112.743 142.499 113.218C140.551 113.707 139.499 114.202 139.499 114.202C139.499 114.202 136.999 115.186 135.499 117.153Z" stroke="#122231" stroke-width="3"/>
<path d="M192.98 189.82L207.48 241.469L207.548 241.708L207.396 241.906L204.396 245.842L203.792 246.636L203.518 245.676L188.518 193.043L188.429 192.732L188.677 192.524L192.177 189.573L192.77 189.072L192.98 189.82ZM210.384 207.668C211.788 207.335 212.71 207.335 214.115 207.668C215.442 207.983 216.619 208.482 217.766 209.208C218.349 209.577 218.885 210.108 219.264 210.529C219.457 210.742 219.615 210.934 219.725 211.073C219.78 211.142 219.824 211.199 219.854 211.239C219.865 211.253 219.874 211.266 219.882 211.276L219.884 211.278C219.884 211.279 219.886 211.281 219.887 211.282C219.891 211.286 219.895 211.293 219.901 211.3C219.913 211.315 219.932 211.336 219.954 211.364C219.998 211.419 220.062 211.499 220.139 211.599C220.294 211.799 220.505 212.084 220.731 212.422C221.179 213.09 221.712 214.001 221.978 214.899C222.378 216.249 222.499 217.078 222.499 218.485C222.499 219.216 222.365 219.995 222.237 220.577C222.172 220.871 222.108 221.121 222.059 221.298C222.035 221.386 222.014 221.457 222 221.506C221.993 221.531 221.987 221.55 221.983 221.564C221.981 221.57 221.979 221.576 221.978 221.579C221.978 221.581 221.977 221.582 221.976 221.583V221.585L221.974 221.592L221.973 221.594C221.973 221.595 221.973 221.596 221.972 221.597C221.971 221.6 221.969 221.605 221.968 221.611C221.964 221.622 221.959 221.638 221.952 221.657C221.938 221.698 221.917 221.754 221.891 221.824C221.84 221.965 221.765 222.159 221.671 222.375C221.488 222.793 221.213 223.345 220.876 223.732C220.515 224.145 220.247 224.457 219.926 224.705C219.593 224.963 219.223 225.14 218.676 225.347C217.119 225.934 216.08 225.998 214.46 225.869C213.486 225.792 212.447 225.535 211.665 225.304C211.271 225.187 210.936 225.075 210.699 224.992C210.581 224.951 210.487 224.916 210.422 224.892C210.389 224.88 210.363 224.871 210.345 224.865C210.337 224.861 210.331 224.858 210.326 224.857C210.324 224.856 210.321 224.854 210.32 224.854H210.318L210.263 224.832L210.215 224.798H210.214L210.212 224.797C210.21 224.796 210.208 224.794 210.206 224.792C210.201 224.789 210.194 224.784 210.185 224.778C210.168 224.765 210.142 224.746 210.109 224.723C210.044 224.675 209.949 224.606 209.833 224.518C209.6 224.34 209.275 224.082 208.91 223.764C208.183 223.131 207.271 222.238 206.585 221.225C205.591 219.759 204.748 218.592 204.503 216.577C204.306 214.958 204.435 213.921 205.034 212.399C205.561 211.058 206.028 210.226 207.175 209.249C208.235 208.346 209.047 207.986 210.384 207.668ZM179.847 207.678C181.035 207.301 182.056 207.193 183.076 207.304C184.087 207.414 185.072 207.737 186.185 208.183C187.93 208.883 188.953 209.434 190.342 210.742C190.943 211.309 191.336 211.694 191.646 212.147C191.958 212.602 192.173 213.106 192.467 213.88C192.983 215.241 192.999 216.129 192.999 217.5C192.999 218.833 193.072 219.796 192.454 221.152C191.957 222.242 191.814 222.811 190.849 223.76C190.394 224.208 190.031 224.512 189.612 224.754C189.198 224.993 188.751 225.158 188.155 225.354C187.387 225.605 186.823 225.743 186.265 225.813C185.712 225.881 185.18 225.881 184.492 225.871C183.584 225.859 182.937 225.816 182.304 225.66C181.672 225.505 181.079 225.243 180.272 224.833C178.861 224.116 178.06 223.504 177.099 222.229C176.232 221.076 175.442 220.139 175.017 218.619C174.838 217.979 174.711 217.551 174.63 217.119C174.546 216.676 174.511 216.233 174.499 215.542C174.471 213.996 174.43 212.964 175.033 211.416C175.486 210.254 175.933 210.047 176.632 209.291C177.693 208.143 178.585 208.079 179.847 207.678ZM210.418 211.682C210.383 211.682 210.333 211.683 210.273 211.685C210.153 211.689 209.986 211.699 209.8 211.72C209.447 211.759 208.942 211.845 208.561 212.067C208.053 212.363 207.805 212.866 207.694 213.357C207.583 213.846 207.593 214.384 207.642 214.862C207.692 215.344 207.786 215.796 207.868 216.124C207.909 216.289 207.947 216.425 207.975 216.521C207.989 216.568 208.001 216.605 208.01 216.631C208.014 216.644 208.017 216.656 208.019 216.663C208.02 216.667 208.022 216.669 208.022 216.671C208.023 216.672 208.022 216.673 208.022 216.674L208.023 216.675L208.031 216.698L208.04 216.72L208.043 216.723C208.044 216.725 208.046 216.73 208.048 216.735C208.052 216.744 208.057 216.759 208.065 216.777C208.081 216.813 208.106 216.865 208.135 216.93C208.195 217.06 208.278 217.241 208.377 217.445C208.571 217.848 208.83 218.359 209.073 218.749C209.436 219.332 209.852 219.739 210.232 220.059C210.418 220.216 210.603 220.357 210.757 220.478C210.916 220.603 211.044 220.706 211.147 220.808C211.446 221.102 211.868 221.375 212.313 221.625C212.764 221.879 213.278 222.131 213.774 222.375H213.775V222.376C214.294 222.632 215.167 222.981 216.024 223.196C216.452 223.303 216.896 223.381 217.3 223.391C217.687 223.401 218.12 223.35 218.457 223.117C218.672 222.969 218.797 222.755 218.869 222.554C218.941 222.353 218.974 222.131 218.986 221.915C219.011 221.485 218.957 220.993 218.883 220.547C218.807 220.097 218.705 219.667 218.624 219.353C218.583 219.195 218.547 219.064 218.52 218.973L218.48 218.837C218.479 218.834 218.479 218.832 218.478 218.83L218.477 218.827V218.826H218.476L218.468 218.795L218.454 218.765L218.453 218.764L218.447 218.751C218.443 218.742 218.436 218.728 218.428 218.711C218.413 218.677 218.389 218.628 218.36 218.567C218.302 218.444 218.219 218.271 218.122 218.073C217.929 217.68 217.673 217.175 217.432 216.757C216.687 215.463 216.144 214.595 214.788 213.648C214.078 213.152 213.123 212.409 212.15 212.105C211.791 211.993 211.397 211.89 211.096 211.816C210.945 211.778 210.815 211.748 210.723 211.727C210.678 211.716 210.641 211.707 210.616 211.701C210.604 211.699 210.594 211.697 210.588 211.696L210.577 211.694V211.693L210.526 211.682H210.475L210.469 211.681C210.467 211.681 210.462 211.681 210.458 211.681C210.448 211.681 210.435 211.682 210.418 211.682ZM181.81 211.218C181.138 211.078 180.731 210.948 179.905 211.106C179.556 211.172 179.172 211.294 178.837 211.491C178.502 211.689 178.18 211.986 178.028 212.413C177.506 213.88 177.956 215.162 178.537 216.553C178.94 217.519 179.336 218.017 179.966 218.79C180.371 219.289 180.963 219.841 181.436 220.257C181.676 220.467 181.892 220.648 182.048 220.777C182.125 220.841 182.188 220.892 182.232 220.927C182.254 220.944 182.271 220.958 182.283 220.967C182.289 220.972 182.293 220.976 182.297 220.979C182.298 220.98 182.3 220.981 182.301 220.982H182.302V220.983L182.322 220.998L182.344 221.013H182.345L182.346 221.014C182.347 221.015 182.349 221.016 182.35 221.017C182.354 221.019 182.36 221.022 182.367 221.027C182.38 221.035 182.4 221.048 182.425 221.063C182.475 221.094 182.548 221.137 182.638 221.191C182.82 221.297 183.074 221.442 183.368 221.596C183.945 221.899 184.714 222.259 185.386 222.414C186.019 222.56 186.777 222.766 187.443 222.828C188.101 222.89 188.861 222.832 189.372 222.26C189.877 221.694 189.874 220.849 189.743 220.114C189.605 219.341 189.291 218.503 188.952 217.78C188.668 217.173 188.142 216.401 187.708 215.803C187.487 215.499 187.282 215.231 187.134 215.038C187.059 214.942 186.998 214.864 186.956 214.811C186.935 214.784 186.918 214.763 186.907 214.749C186.901 214.742 186.897 214.736 186.894 214.733L186.889 214.728V214.727L186.884 214.72H186.883V214.719L186.882 214.718C186.881 214.717 186.88 214.716 186.88 214.715C186.877 214.712 186.873 214.708 186.869 214.702C186.86 214.692 186.847 214.677 186.831 214.657C186.797 214.618 186.749 214.562 186.688 214.493C186.567 214.356 186.397 214.165 186.198 213.954C185.806 213.539 185.278 213.017 184.792 212.667C183.785 211.943 182.914 211.448 181.81 211.218Z" fill="#122231"/>
<path d="M729.715 139V37.5H746.245L795.98 111.885V37.5H812.51V139H795.98L746.245 64.76V139H729.715ZM834.851 139V37.5H851.381V139H834.851ZM873.718 139V37.5H890.248L939.983 111.885V37.5H956.513V139H939.983L890.248 64.76V139H873.718ZM1004.08 140.74C994.514 140.74 986.878 138.033 981.174 132.62C975.471 127.207 972.619 119.57 972.619 109.71H989.004C989.101 114.543 990.261 118.507 992.484 121.6C994.804 124.597 998.574 126.095 1003.79 126.095C1008.82 126.095 1012.4 124.645 1014.52 121.745C1016.65 118.845 1017.71 115.123 1017.71 110.58V37.5H1034.1V110.58C1034.1 120.15 1031.39 127.593 1025.98 132.91C1020.66 138.13 1013.36 140.74 1004.08 140.74ZM1045.75 139L1082.87 37.5H1101.14L1138.26 139H1120.86L1112.45 114.93H1071.42L1062.86 139H1045.75ZM1076.2 101.735H1107.81L1091.86 56.785L1076.2 101.735Z" fill="#F67E2E"/>
</g>
<defs>
<clipPath id="clip0_262_23">
<rect width="1156" height="283" fill="white"/>
</clipPath>
</defs>
</svg>
