<svg width="2014" height="877" viewBox="0 0 2014 877" fill="none" xmlns="http://www.w3.org/2000/svg">
<path d="M768.497 664.559C753.657 644.179 732.747 625.169 714.797 607.109L623.727 515.139C623.727 515.139 589.327 485.079 578.467 480.499C559.677 474.979 541.527 476.379 522.137 476.819C568.887 405.239 572.517 308.779 530.227 234.459C429.477 57.3486 171.237 91.8486 116.177 286.079C98.2968 349.169 111.167 409.689 143.387 465.519C174.237 514.249 218.567 548.629 274.577 563.669C316.027 574.809 353.387 571.599 394.857 564.069C395.167 582.939 394.837 604.879 394.927 623.579C395.137 667.899 397.067 679.189 427.187 709.579C395.547 745.239 364.997 780.969 332.947 816.579C302.617 782.269 273.447 748.109 243.567 712.949C160.337 615.029 69.5968 496.359 55.9168 364.109C48.4368 291.729 73.8068 209.799 121.617 155.279C176.817 92.3586 238.937 63.7686 320.747 56.9686C365.577 54.6986 416.997 64.4386 457.017 85.0686C597.447 157.429 645.907 313.799 590.187 454.279C598.877 457.769 614.197 466.539 636.867 488.539C683.447 383.089 677.247 254.249 616.897 155.959C505.167 -26.0414 240.937 -54.2514 93.8168 100.469C52.5368 143.889 24.2268 196.789 10.2068 253.529C10.1968 253.559 10.1868 253.579 10.1868 253.599C9.94681 254.549 9.7068 255.509 9.4868 256.469C9.3568 256.999 9.2368 257.539 9.1168 258.069C-0.253199 298.219 -2.49321 340.199 2.82679 382.039C22.3568 536.219 132.917 669.249 231.077 782.409L275.997 833.629C286.217 845.189 296.797 858.179 308.777 867.759C324.587 880.799 347.667 880.089 362.157 865.049C397.757 828.079 433.947 787.819 465.257 747.289L533.417 815.119C546.887 828.479 560.927 843.699 575.877 854.959C596.917 870.819 628.867 866.669 647.067 848.439C670.297 825.209 693.087 801.969 715.507 777.989C733.457 758.789 753.487 741.059 769.467 720.249C779.497 704.209 779.897 680.239 768.497 664.559ZM727.747 709.479C700.687 737.229 673.917 765.249 647.237 793.359C638.137 802.959 628.777 813.429 617.827 820.879C609.527 826.509 597.747 823.119 591.097 816.519C570.847 797.349 551.237 777.269 531.527 757.659L475.797 702.129C464.207 690.549 448.247 677.689 440.157 663.539C437.147 658.299 436.097 651.649 435.437 645.699C434.287 635.409 433.397 537.589 435.547 530.059C435.567 529.999 435.577 529.939 435.597 529.879C437.937 521.919 446.977 517.899 454.457 521.489C467.797 527.899 476.667 543.679 485.287 555.519C478.257 567.169 471.077 582.249 476.647 595.549C496.397 642.819 565.527 616.919 545.287 566.659C541.037 556.099 531.237 551.309 521.167 547.329C514.727 536.799 509.817 529.239 502.547 519.119C522.077 518.889 544.157 518.039 563.657 519.529C570.167 520.029 576.557 523.159 581.337 527.579C604.647 549.149 627.377 573.569 649.747 596.129L701.937 648.619C711.747 658.489 725.417 671.379 733.467 682.139C738.807 692.729 736.077 700.949 727.747 709.479Z" fill="#FEFEFE"/>
<path d="M170.167 278.949C184.857 282.009 205.977 288.679 219.887 293.179C284.257 314.009 346.317 319.459 412.067 302.099C423.167 299.169 491.537 279.269 497.977 280.179C501.337 283.309 502.307 286.929 502.907 291.419C508.547 333.709 507.557 365.889 483.037 401.009C462.647 423.489 431.997 432.029 402.397 424.149C378.527 417.799 362.007 409.079 336.397 408.409C303.927 407.569 281.327 426.799 249.627 427.409C201.957 429.689 173.587 399.989 163.707 355.069C159.637 336.559 159.277 295.489 170.167 278.949Z" fill="#111827"/>
<path d="M419.957 330.868C463.917 327.228 462.427 386.288 414.877 395.168C367.907 396.398 373.437 339.508 419.957 330.868Z" fill="white"/>
<path d="M243.227 330.969C287.777 334.029 304.647 385.249 260.857 395.349C215.217 395.919 196.717 338.179 243.227 330.969Z" fill="white"/>
<path d="M801.087 299.089C813.897 291.839 819.447 279.459 819.447 267.289C819.447 253.839 814.537 243.379 805.357 236.549C796.397 229.509 783.377 225.879 767.147 225.879H709.097V383.829H760.957C787.637 383.829 798.097 382.339 812.617 370.169C822.217 362.269 827.127 348.399 827.127 335.809C827.127 329.189 826.487 308.059 801.087 299.089ZM749.437 261.309H763.737C766.937 261.309 771.207 261.309 774.617 262.809C778.037 264.299 780.807 267.289 780.807 273.269C780.807 279.459 778.037 282.659 774.407 284.359C770.777 285.859 766.507 285.859 763.737 285.859H749.437V261.309ZM780.387 346.479C776.117 348.399 770.997 348.399 768.427 348.399H749.437V319.579H768.427C771.637 319.579 776.757 319.579 780.807 321.289C785.077 322.999 788.497 326.409 788.497 333.239C788.497 340.719 784.867 344.559 780.387 346.479Z" fill="white"/>
<path d="M923.596 222.889C880.056 222.889 840.356 254.909 840.356 306.559V306.779C840.356 347.329 873.656 386.819 923.386 386.819C972.476 386.819 1007.06 348.819 1007.06 304.859C1007.06 260.889 972.266 222.889 923.596 222.889ZM924.236 351.389C897.136 351.389 880.696 328.759 880.696 304.639V304.429C880.696 282.229 895.856 258.319 923.816 258.319C952.846 258.319 966.716 284.579 966.716 305.069C966.716 325.349 952.846 351.389 924.236 351.389Z" fill="white"/>
<path d="M1189.98 293.969H1096.28V326.199H1143.45C1141.31 333.879 1136.83 340.289 1130.43 344.559C1124.03 349.039 1115.7 351.599 1105.67 351.599C1085.82 351.599 1062.34 337.299 1062.34 304.219C1062.34 273.049 1085.6 258.319 1105.46 258.319C1116.55 258.319 1125.31 262.379 1131.92 268.139C1135.34 271.349 1138.11 274.969 1140.25 278.819H1185.5C1176.75 248.289 1144.3 222.889 1106.52 222.889C1059.99 222.889 1022 257.039 1022 304.219C1022 349.679 1058.07 387.029 1105.88 387.029C1131.92 387.029 1167.35 374.009 1182.72 339.219C1189.55 323.849 1190.83 305.279 1189.98 293.969Z" fill="white"/>
<path d="M1287.52 222.889C1243.98 222.889 1204.27 254.909 1204.27 306.559V306.779C1204.27 347.329 1237.57 386.819 1287.31 386.819C1336.4 386.819 1370.97 348.819 1370.97 304.859C1370.97 260.889 1336.18 222.889 1287.52 222.889ZM1288.16 351.389C1261.05 351.389 1244.62 328.759 1244.62 304.639V304.429C1244.62 282.229 1259.77 258.319 1287.73 258.319C1316.76 258.319 1330.63 284.579 1330.63 305.069C1330.63 325.349 1316.76 351.389 1288.16 351.389Z" fill="white"/>
<path d="M1493.48 224.489V344.019L1422.28 224.489H1392.73V382.439H1416.64V258.219L1490.52 382.439H1517.39V224.489H1493.48Z" fill="#FEFEFE"/>
<path d="M1553.66 224.489V382.439H1580.26V224.489H1553.66Z" fill="#FEFEFE"/>
<path d="M1717.01 224.489V344.019L1645.81 224.489H1616.26V382.439H1640.17V258.219L1714.05 382.439H1740.92V224.489H1717.01Z" fill="#FEFEFE"/>
<path d="M1835.49 224.489V336.549C1835.49 345.089 1834.42 350.849 1831.73 355.759C1828.51 361.099 1822.06 365.789 1812.12 366.009C1801.64 366.009 1790.62 362.589 1787.4 344.449C1787.4 343.379 1787.13 342.309 1787.13 341.249H1760.53C1760.8 343.599 1760.8 345.939 1761.07 348.289C1763.49 372.619 1784.44 385.429 1811.58 385.429C1821.25 385.429 1831.46 383.509 1839.52 379.029C1847.85 375.189 1853.76 369.419 1857.52 362.589C1861.02 355.549 1862.09 347.649 1862.09 339.749V224.489H1835.49Z" fill="#FEFEFE"/>
<path d="M1956.39 224.489H1930.87L1874.98 382.439H1902.12L1916.63 341.029H1971.71L1986.48 382.439H2013.62L1956.39 224.489ZM1923.34 321.609L1944.03 253.309L1964.72 321.609H1923.34Z" fill="#FEFEFE"/>
<path d="M740.687 415.549C760.117 414.779 783.387 415.349 803.137 415.349H916.757H1262.86L1731.3 415.359C1810.27 415.359 1889.16 415.359 1968.23 415.469C2013.28 413.589 2015.35 444.859 2012.97 481.639C2010.94 513.279 2023.59 545.379 1983.54 557.759C1962.65 558.759 1938.42 558.249 1917.24 558.249L1802.88 558.259L1455.06 558.269H989.947C911.607 558.269 833.307 558.309 754.927 558.139C717.287 560.099 706.607 536.849 709.557 502.469C712.397 469.439 697.287 426.719 740.687 415.549Z" fill="#0D0D0E"/>
<path d="M786.017 447.179L767.217 481.689L761.037 447.179H751.507L760.857 490.479L756.087 516.379H765.347L770.117 490.479L795.547 447.179H786.017Z" fill="#FEFEFE"/>
<path d="M814.167 463.639C800.417 463.639 791.907 475.799 789.197 490.479V490.569C786.487 505.439 790.407 517.509 804.157 517.509C817.807 517.509 826.227 505.439 828.937 490.569C831.647 475.799 827.817 463.639 814.167 463.639ZM820.337 490.569C817.907 503.849 812.857 509.839 805.657 509.839C798.267 509.839 795.457 503.849 797.887 490.669V490.569C800.327 477.389 805.377 471.399 812.577 471.399C819.957 471.399 822.767 477.389 820.337 490.569Z" fill="#FEFEFE"/>
<path d="M873.177 464.759L867.287 496.649C865.697 505.349 860.837 509.369 854.757 509.369C847.277 509.369 847.737 502.819 848.577 498.149L854.757 464.759H846.427L839.787 500.859C837.547 512.639 842.407 517.509 851.107 517.509C857.187 517.509 862.517 514.889 865.877 508.529C865.227 511.329 864.757 513.769 864.297 516.379H871.867L881.407 464.759H873.177Z" fill="#FEFEFE"/>
<path d="M902.637 474.299C903.287 471.489 903.757 468.779 904.507 464.759H896.937L887.397 516.379H895.627L900.857 487.949C902.827 477.389 908.807 472.519 913.207 472.519C914.327 472.519 915.447 472.709 916.387 473.459L918.257 463.639C912.827 463.729 906.657 465.419 902.637 474.299Z" fill="#FEFEFE"/>
<path d="M994.477 447.179L984.747 499.549L969.697 447.179H959.407L946.597 516.379H954.917L965.017 461.959L980.637 516.379H989.987L1002.8 447.179H994.477Z" fill="#FEFEFE"/>
<path d="M1046.29 493.279C1047.88 485.709 1048.81 477.479 1046.01 471.209C1043.77 466.349 1039.56 463.639 1033.2 463.639C1020.67 463.639 1011.41 474.949 1008.51 490.669C1005.98 504.409 1009.35 517.509 1023.38 517.509C1027.31 517.509 1031.51 516.379 1035.26 513.769C1039.09 511.049 1042.36 506.749 1044.42 500.859H1036.28C1034.13 506.279 1030.02 509.839 1024.78 509.839C1017.11 509.839 1015.05 502.169 1016.74 493.279H1046.29ZM1031.79 470.559C1038.99 470.559 1040.68 477.949 1039.37 486.179H1018.05C1019.92 476.819 1025.34 470.559 1031.79 470.559Z" fill="#FEFEFE"/>
<path d="M1068.92 447.179L1067.15 456.719H1075.37L1077.15 447.179H1068.92ZM1065.65 464.759L1056.11 516.379H1064.34L1073.88 464.759H1065.65Z" fill="#FEFEFE"/>
<path d="M1117.55 464.759C1116.99 467.939 1116.52 470.469 1116.15 473.179C1114.47 466.069 1110.63 463.639 1105.02 463.639C1093.8 463.639 1086.13 474.209 1083.04 490.669C1080.05 506.939 1083.79 517.509 1095.01 517.509C1101.19 517.509 1105.77 514.229 1108.67 508.339C1108.11 510.959 1107.64 513.579 1107.26 515.449C1105.3 525.269 1100.25 527.979 1094.83 527.979C1092.4 527.979 1090.06 527.419 1088.66 525.639C1087.44 524.239 1087.07 522.649 1087.16 520.119H1078.65C1077.43 531.529 1086.32 535.739 1093.24 535.739C1099.22 535.739 1104.27 533.869 1108.11 530.319C1111.66 527.039 1114.09 522.369 1115.4 515.539L1124.75 464.759H1117.55ZM1111.75 490.569C1110.45 497.769 1109.14 501.799 1106.61 504.789C1104.27 507.689 1101.65 509.369 1098.1 509.369C1091.46 509.369 1089.12 502.259 1091.27 490.669V490.569C1093.42 478.979 1098.38 471.779 1105.02 471.779C1108.57 471.779 1110.63 473.549 1111.85 476.359C1113.25 479.349 1113.06 483.369 1111.75 490.569Z" fill="#FEFEFE"/>
<path d="M1171.05 468.129C1169.08 465.229 1165.72 463.639 1161.04 463.639C1154.78 463.639 1149.91 466.259 1147.2 471.399C1147.76 468.779 1148.23 466.539 1148.6 464.199L1151.78 447.179H1143.55L1130.74 516.379H1138.97L1144.77 485.329C1145.7 479.909 1147.11 477.289 1149.35 475.049C1152.25 472.149 1155.24 471.779 1157.39 471.779C1159.45 471.779 1162.16 472.429 1163.29 474.669C1164.32 476.919 1164.22 479.719 1163.47 483.749L1157.39 516.379H1165.62L1172.08 481.309C1173.2 475.419 1173.11 471.119 1171.05 468.129Z" fill="#FEFEFE"/>
<path d="M1210.89 463.639C1204.72 463.639 1199.95 467.469 1197.23 473.079C1197.7 470.839 1198.17 468.409 1198.82 464.759L1202.1 447.179H1193.87L1181.06 516.379H1188.63L1190.13 508.059C1191.44 514.889 1195.27 517.509 1200.88 517.509C1210.8 517.509 1219.59 507.589 1222.77 490.569C1225.76 474.299 1221.55 463.639 1210.89 463.639ZM1214.54 490.479V490.569C1212.57 501.419 1207.9 509.369 1200.88 509.369C1192.75 509.369 1192.28 500.109 1194.05 490.569C1195.83 481.129 1199.67 471.779 1207.8 471.779C1214.82 471.779 1216.5 479.819 1214.54 490.479Z" fill="#FEFEFE"/>
<path d="M1258.02 463.639C1244.28 463.639 1235.77 475.799 1233.05 490.479V490.569C1230.34 505.439 1234.27 517.509 1248.02 517.509C1261.67 517.509 1270.09 505.439 1272.8 490.569C1275.51 475.799 1271.68 463.639 1258.02 463.639ZM1264.2 490.569C1261.76 503.849 1256.71 509.839 1249.51 509.839C1242.13 509.839 1239.32 503.849 1241.75 490.669V490.569C1244.18 477.389 1249.23 471.399 1256.43 471.399C1263.82 471.399 1266.63 477.389 1264.2 490.569Z" fill="#FEFEFE"/>
<path d="M1296.18 474.299C1296.84 471.489 1297.3 468.779 1298.05 464.759H1290.48L1280.94 516.379H1289.17L1294.41 487.949C1296.37 477.389 1302.35 472.519 1306.75 472.519C1307.87 472.519 1308.99 472.709 1309.93 473.459L1311.8 463.639C1306.38 463.729 1300.2 465.419 1296.18 474.299Z" fill="#FEFEFE"/>
<path d="M1352.58 468.129C1350.61 465.229 1347.24 463.639 1342.57 463.639C1336.3 463.639 1331.44 466.259 1328.73 471.399C1329.29 468.779 1329.76 466.539 1330.13 464.199L1333.31 447.179H1325.08L1312.27 516.379H1320.5L1326.3 485.329C1327.23 479.909 1328.64 477.289 1330.88 475.049C1333.78 472.149 1336.77 471.779 1338.92 471.779C1340.98 471.779 1343.69 472.429 1344.81 474.669C1345.84 476.919 1345.75 479.719 1345 483.749L1338.92 516.379H1347.15L1353.61 481.309C1354.73 475.419 1354.63 471.119 1352.58 468.129Z" fill="#FEFEFE"/>
<path d="M1389.71 463.639C1375.96 463.639 1367.45 475.799 1364.73 490.479V490.569C1362.02 505.439 1365.95 517.509 1379.7 517.509C1393.35 517.509 1401.77 505.439 1404.48 490.569C1407.19 475.799 1403.36 463.639 1389.71 463.639ZM1395.88 490.569C1393.44 503.849 1388.4 509.839 1381.19 509.839C1373.81 509.839 1371 503.849 1373.43 490.669V490.569C1375.86 477.389 1380.91 471.399 1388.11 471.399C1395.5 471.399 1398.31 477.389 1395.88 490.569Z" fill="#FEFEFE"/>
<path d="M1439.74 463.639C1425.99 463.639 1417.48 475.799 1414.77 490.479V490.569C1412.06 505.439 1415.99 517.509 1429.73 517.509C1443.39 517.509 1451.8 505.439 1454.51 490.569C1457.23 475.799 1453.39 463.639 1439.74 463.639ZM1445.91 490.569C1443.48 503.849 1438.43 509.839 1431.23 509.839C1423.84 509.839 1421.03 503.849 1423.47 490.669V490.569C1425.9 477.389 1430.95 471.399 1438.15 471.399C1445.54 471.399 1448.34 477.389 1445.91 490.569Z" fill="#FEFEFE"/>
<path d="M1501.56 447.179L1498.28 464.759C1497.72 467.849 1497.35 470.189 1496.97 472.709C1495.76 466.069 1492.02 463.639 1486.78 463.639C1476.12 463.639 1467.89 474.209 1464.8 490.669C1461.62 507.589 1466.86 517.509 1476.77 517.509C1482.76 517.509 1488.37 513.769 1490.99 507.589L1489.4 516.379H1496.97L1509.79 447.179H1501.56ZM1493.51 490.569C1492.21 497.769 1490.9 501.699 1488.37 504.789C1486.03 507.589 1483.41 509.369 1479.86 509.369C1473.22 509.369 1470.88 502.169 1473.03 490.669V490.569C1475.18 478.879 1480.14 471.779 1486.78 471.779C1490.34 471.779 1492.39 473.459 1493.61 476.359C1495.01 479.349 1494.92 483.279 1493.51 490.569Z" fill="#FEFEFE"/>
<path d="M1518.21 505.249L1508.29 524.708H1515.21L1526.25 505.249H1518.21Z" fill="#FEFEFE"/>
<path d="M1591.62 447.179L1572.82 481.689L1566.65 447.179H1557.11L1566.46 490.479L1561.7 516.379H1570.95L1575.72 490.479L1601.16 447.179H1591.62Z" fill="#FEFEFE"/>
<path d="M1619.77 463.639C1606.03 463.639 1597.51 475.799 1594.8 490.479V490.569C1592.09 505.439 1596.02 517.509 1609.77 517.509C1623.42 517.509 1631.84 505.439 1634.55 490.569C1637.26 475.799 1633.43 463.639 1619.77 463.639ZM1625.95 490.569C1623.51 503.849 1618.46 509.839 1611.26 509.839C1603.88 509.839 1601.07 503.849 1603.5 490.669V490.569C1605.93 477.389 1610.98 471.399 1618.18 471.399C1625.57 471.399 1628.38 477.389 1625.95 490.569Z" fill="#FEFEFE"/>
<path d="M1678.79 464.759L1672.89 496.649C1671.3 505.349 1666.44 509.369 1660.36 509.369C1652.88 509.369 1653.35 502.819 1654.19 498.149L1660.36 464.759H1652.04L1645.4 500.859C1643.16 512.639 1648.02 517.509 1656.72 517.509C1662.79 517.509 1668.13 514.889 1671.49 508.529C1670.84 511.329 1670.37 513.769 1669.9 516.379H1677.48L1687.02 464.759H1678.79Z" fill="#FEFEFE"/>
<path d="M1708.25 474.299C1708.9 471.489 1709.37 468.779 1710.12 464.759H1702.54L1693 516.379H1701.23L1706.47 487.949C1708.43 477.389 1714.42 472.519 1718.81 472.519C1719.93 472.519 1721.06 472.709 1721.99 473.459L1723.86 463.639C1718.44 463.729 1712.27 465.419 1708.25 474.299Z" fill="#FEFEFE"/>
<path d="M1802.33 457.279C1798.68 449.989 1791.48 447.179 1781.94 447.179H1764.73L1751.92 516.379H1769.41C1785.87 516.379 1799.62 505.819 1804.1 481.779C1805.98 471.399 1805.32 463.079 1802.33 457.279ZM1794.66 481.779C1791.95 496.279 1785.4 507.869 1770.62 507.869H1762.86L1772.5 455.689H1779.98C1787.27 455.689 1791.76 457.839 1793.91 462.329C1796.06 466.719 1796.25 473.079 1794.66 481.779Z" fill="#FEFEFE"/>
<path d="M1850.96 493.279C1852.55 485.709 1853.48 477.479 1850.68 471.209C1848.44 466.349 1844.23 463.639 1837.87 463.639C1825.34 463.639 1816.08 474.949 1813.18 490.669C1810.65 504.409 1814.02 517.509 1828.05 517.509C1831.98 517.509 1836.18 516.379 1839.93 513.769C1843.76 511.049 1847.03 506.749 1849.09 500.859H1840.95C1838.8 506.279 1834.69 509.839 1829.45 509.839C1821.78 509.839 1819.72 502.169 1821.41 493.279H1850.96ZM1836.47 470.559C1843.67 470.559 1845.35 477.949 1844.04 486.179H1822.72C1824.59 476.819 1830.01 470.559 1836.47 470.559Z" fill="#FEFEFE"/>
<path d="M1896.13 464.759L1894.54 473.269C1893.61 466.069 1889.21 463.639 1883.97 463.639C1873.31 463.639 1865.08 474.209 1862 490.669C1858.82 507.589 1864.05 517.509 1873.97 517.509C1879.95 517.509 1884.72 514.229 1888.09 508.149L1886.59 516.379H1894.17L1903.71 464.759H1896.13ZM1890.71 490.569C1889.4 497.769 1888.09 501.799 1885.56 504.789C1883.23 507.689 1880.61 509.369 1877.05 509.369C1870.41 509.369 1868.07 502.259 1870.23 490.669V490.569C1872.38 478.979 1877.33 471.779 1883.97 471.779C1887.53 471.779 1889.58 473.549 1890.8 476.359C1892.2 479.349 1892.02 483.369 1890.71 490.569Z" fill="#FEFEFE"/>
<path d="M1923.44 447.179L1910.63 516.379H1918.86L1931.67 447.179H1923.44Z" fill="#FEFEFE"/>
<path d="M1970.95 478.789C1972.35 469.059 1968.14 463.639 1958.51 463.639C1949.07 463.639 1941.96 469.249 1940.46 477.669C1938.69 487.209 1943.73 490.569 1949.63 492.629C1955.8 494.779 1960.29 496.559 1959.26 502.259C1958.42 506.559 1955.33 510.019 1950.28 510.019C1945.14 510.019 1942.05 506.749 1943.08 500.769H1934.94C1933.54 511.989 1939.25 517.509 1948.79 517.509C1958.14 517.509 1966.27 510.959 1967.96 501.699C1969.92 491.319 1964.21 487.859 1958.79 486.079C1953.09 484.209 1948.13 482.719 1949.07 477.389C1949.81 473.459 1952.9 470.839 1956.83 470.839C1961.32 470.839 1963.75 473.079 1962.81 478.789H1970.95Z" fill="#FEFEFE"/>
<path d="M564.777 719.189C558.507 720.839 552.507 720.699 546.757 718.779C541.007 716.849 536.187 713.809 532.297 709.649C528.407 705.489 525.697 700.529 524.177 694.779C522.657 689.029 522.987 683.019 525.167 676.759C526.447 672.929 528.817 669.289 532.277 665.839C535.737 662.399 539.447 659.979 543.407 658.569C549.677 656.409 555.677 656.099 561.427 657.639C567.177 659.179 572.127 661.909 576.267 665.809C580.417 669.719 583.407 674.579 585.257 680.389C587.097 686.209 587.187 692.249 585.517 698.509C584.227 703.109 581.597 707.389 577.637 711.339C573.667 715.299 569.377 717.919 564.777 719.189ZM632.867 777.049L623.837 786.049L622.687 787.199L574.077 606.809L575.037 605.849L584.257 596.659L585.217 595.699L633.827 776.089L632.867 777.049ZM538.207 671.789C536.927 673.069 536.697 674.949 537.527 677.439C538.347 679.939 539.787 682.649 541.827 685.589C543.867 688.539 546.317 691.439 549.187 694.319C552.057 697.199 554.957 699.669 557.897 701.709C560.837 703.759 563.547 705.209 566.037 706.039C568.527 706.879 570.417 706.659 571.697 705.379C572.977 704.109 573.197 702.219 572.377 699.729C571.557 697.239 570.117 694.519 568.077 691.579C566.037 688.639 563.587 685.729 560.707 682.839C557.837 679.959 554.937 677.499 551.997 675.449C549.057 673.399 546.347 671.959 543.857 671.119C541.377 670.299 539.487 670.519 538.207 671.789ZM664.267 720.309C658.007 721.959 651.997 721.819 646.247 719.899C640.497 717.969 635.647 714.969 631.687 710.869C627.727 706.769 625.027 701.819 623.567 695.999C622.107 690.179 622.467 684.149 624.647 677.889C626.057 674.189 628.497 670.609 631.947 667.169C635.407 663.719 638.987 661.299 642.697 659.899C648.967 657.739 654.997 657.399 660.817 658.879C666.627 660.359 671.577 663.089 675.657 667.049C679.737 671.019 682.737 675.879 684.647 681.629C686.557 687.389 686.667 693.389 684.997 699.649C683.837 704.379 681.277 708.719 677.307 712.669C673.347 716.619 668.997 719.169 664.267 720.309ZM637.697 672.909C635.777 674.819 636.087 678.019 638.637 682.499C641.187 686.979 644.567 691.329 648.777 695.549C652.987 699.769 657.327 703.169 661.797 705.729C666.267 708.289 669.457 708.619 671.377 706.699C673.297 704.789 672.987 701.589 670.437 697.109C667.887 692.629 664.507 688.279 660.297 684.059C656.087 679.839 651.747 676.439 647.277 673.879C642.817 671.329 639.617 670.999 637.697 672.909Z" fill="white"/>
</svg>
