<svg width="400" height="400" viewBox="0 0 400 400" fill="none" xmlns="http://www.w3.org/2000/svg">
<path d="M378.4 298.083C371.46 289.218 361.681 280.948 353.287 273.092L310.696 233.085C310.696 233.085 294.609 220.009 289.53 218.017C280.742 215.616 272.254 216.225 263.186 216.416C285.049 185.279 286.747 143.319 266.969 110.989C219.852 33.9466 99.0817 48.9542 73.332 133.444C64.9701 160.888 70.989 187.215 86.0572 211.501C100.485 232.698 121.216 247.653 147.41 254.196C166.795 259.042 184.267 257.645 203.661 254.37C203.806 262.578 203.652 272.122 203.694 280.257C203.792 299.536 204.695 304.447 218.781 317.667C203.984 333.179 189.697 348.721 174.708 364.212C160.524 349.287 146.882 334.427 132.908 319.133C93.9842 276.537 51.5481 224.916 45.1504 167.387C41.6523 135.902 53.517 100.262 75.8761 76.5462C101.691 49.176 130.743 36.7393 169.003 33.7813C189.968 32.7939 214.016 37.0308 232.732 46.0049C298.406 77.4815 321.069 145.502 295.011 206.611C299.075 208.129 306.239 211.944 316.841 221.514C338.625 175.644 335.726 119.598 307.502 76.842C255.25 -2.32801 131.678 -14.5994 62.875 52.7038C43.5697 71.5915 30.3301 94.603 23.7734 119.285C23.7687 119.298 23.764 119.307 23.764 119.315C23.6518 119.729 23.5395 120.146 23.4367 120.564C23.3759 120.794 23.3197 121.029 23.2636 121.26C18.8816 138.725 17.834 156.986 20.322 175.187C29.4555 242.255 81.1608 300.123 127.067 349.348L148.074 371.628C152.854 376.657 157.802 382.308 163.405 386.475C170.798 392.147 181.592 391.839 188.369 385.296C205.018 369.214 221.942 351.701 236.585 334.071L268.461 363.577C274.761 369.388 281.327 376.009 288.318 380.907C298.158 387.806 313.1 386.001 321.612 378.071C332.475 367.966 343.134 357.856 353.619 347.425C362.013 339.073 371.381 331.361 378.854 322.308C383.545 315.331 383.732 304.904 378.4 298.083ZM359.343 317.623C346.688 329.694 334.168 341.883 321.691 354.111C317.435 358.287 313.058 362.841 307.937 366.082C304.055 368.531 298.546 367.057 295.436 364.186C285.966 355.847 276.795 347.112 267.577 338.582L241.514 314.426C236.094 309.389 228.63 303.795 224.847 297.639C223.439 295.36 222.948 292.467 222.639 289.879C222.101 285.403 221.685 242.851 222.691 239.575C222.7 239.549 222.705 239.523 222.714 239.497C223.808 236.035 228.036 234.286 231.534 235.848C237.773 238.636 241.921 245.5 245.952 250.651C242.665 255.718 239.307 262.278 241.912 268.064C251.148 288.626 283.478 277.36 274.012 255.497C272.025 250.903 267.442 248.819 262.732 247.088C259.721 242.507 257.424 239.219 254.024 234.817C263.158 234.717 273.484 234.347 282.603 234.995C285.648 235.212 288.636 236.574 290.872 238.497C301.773 247.88 312.403 258.502 322.865 268.316L347.272 291.149C351.86 295.443 358.253 301.05 362.018 305.73C364.515 310.337 363.239 313.913 359.343 317.623Z" fill="url(#paint0_linear_215_282)"/>
<path d="M99.0439 131.456C105.819 132.827 115.237 135.592 121.546 137.49C151.784 146.592 180.992 148.986 211.948 141.384C214.534 140.749 223.881 138.252 232.86 135.988C237.367 134.852 241.797 133.771 245.285 132.998C247.03 132.612 248.528 132.305 249.678 132.107C250.253 132.009 250.73 131.939 251.101 131.9C251.261 131.884 251.389 131.874 251.488 131.869C252.439 132.796 252.842 133.842 253.095 135.235L253.203 135.909C255.821 154.169 255.337 167.836 244.141 182.783C235.017 192.107 221.369 195.763 208.062 192.686L207.428 192.534C201.835 191.15 197.256 189.55 192.325 188.19C187.758 186.931 183.069 185.938 177.477 185.696L176.346 185.658L175.619 185.647C168.153 185.6 161.779 187.59 155.588 189.603C149.168 191.69 142.962 193.793 135.725 193.923H135.711L135.697 193.924C124.763 194.41 116.126 191.487 109.662 186.119C103.187 180.742 98.8065 172.838 96.5332 163.225C95.609 159.315 95.0927 152.936 95.4453 146.634C95.6213 143.489 96.0127 140.391 96.666 137.651C97.2542 135.185 98.0444 133.06 99.0439 131.456Z" fill="#FEFEFE" stroke="black" stroke-width="2"/>
<path d="M215.4 152.928C235.959 151.344 235.262 177.036 213.024 180.898C191.058 181.433 193.644 156.686 215.4 152.928Z" fill="#0D0D0E"/>
<path d="M132.749 152.971C153.584 154.303 161.473 176.583 140.994 180.977C119.65 181.225 110.998 156.108 132.749 152.971Z" fill="#0D0D0E"/>
<path d="M283.127 321.847C280.195 322.565 277.389 322.504 274.7 321.669C272.011 320.829 269.757 319.507 267.938 317.697C266.118 315.888 264.851 313.73 264.14 311.229C263.429 308.727 263.584 306.113 264.603 303.39C265.202 301.724 266.31 300.141 267.928 298.64C269.546 297.143 271.281 296.091 273.133 295.477C276.066 294.538 278.872 294.403 281.561 295.073C284.25 295.743 286.565 296.93 288.501 298.627C290.442 300.328 291.84 302.442 292.705 304.969C293.566 307.501 293.608 310.128 292.827 312.851C292.224 314.852 290.994 316.714 289.142 318.432C287.285 320.155 285.279 321.295 283.127 321.847ZM314.971 347.016L310.748 350.931L310.21 351.431L287.477 272.962L287.926 272.544L292.238 268.547L292.687 268.129L315.42 346.599L314.971 347.016ZM270.702 301.228C270.103 301.785 269.995 302.603 270.384 303.686C270.767 304.773 271.44 305.952 272.395 307.231C273.349 308.514 274.494 309.776 275.837 311.029C277.179 312.281 278.535 313.356 279.91 314.243C281.285 315.135 282.552 315.766 283.717 316.127C284.881 316.492 285.765 316.397 286.364 315.84C286.962 315.287 287.065 314.465 286.682 313.382C286.298 312.299 285.625 311.116 284.671 309.837C283.717 308.558 282.571 307.292 281.224 306.035C279.882 304.782 278.526 303.712 277.151 302.82C275.776 301.928 274.508 301.302 273.344 300.937C272.184 300.58 271.3 300.676 270.702 301.228ZM329.656 322.334C326.728 323.052 323.917 322.991 321.228 322.156C318.539 321.316 316.271 320.011 314.419 318.228C312.567 316.444 311.304 314.291 310.622 311.759C309.939 309.228 310.107 306.605 311.127 303.882C311.786 302.272 312.927 300.715 314.541 299.218C316.159 297.718 317.833 296.665 319.568 296.056C322.5 295.116 325.32 294.968 328.042 295.612C330.759 296.256 333.074 297.444 334.982 299.166C336.89 300.893 338.293 303.007 339.187 305.508C340.08 308.014 340.131 310.624 339.35 313.347C338.808 315.405 337.611 317.293 335.754 319.011C333.902 320.729 331.868 321.838 329.656 322.334ZM317.23 301.715C316.332 302.546 316.477 303.938 317.669 305.887C318.862 307.836 320.443 309.728 322.411 311.564C324.38 313.399 326.41 314.878 328.5 315.992C330.591 317.106 332.083 317.249 332.981 316.414C333.879 315.583 333.734 314.191 332.541 312.242C331.349 310.293 329.768 308.401 327.799 306.566C325.83 304.73 323.8 303.251 321.71 302.137C319.624 301.028 318.128 300.884 317.23 301.715Z" fill="white"/>
<defs>
<linearGradient id="paint0_linear_215_282" x1="200.693" y1="9" x2="200.693" y2="390.483" gradientUnits="userSpaceOnUse">
<stop stop-color="#D14A23"/>
<stop offset="1" stop-color="#F17B2B"/>
</linearGradient>
</defs>
</svg>
