<svg width="923" height="283" viewBox="0 0 923 283" fill="none" xmlns="http://www.w3.org/2000/svg">
<g clip-path="url(#clip0_124_89)">
<path d="M290.57 85.4C295.043 86.3533 298.637 88.59 301.35 92.11C304.063 95.5567 305.42 99.5167 305.42 103.99C305.42 110.443 303.147 115.577 298.6 119.39C294.127 123.13 287.857 125 279.79 125H243.82V47.78H278.58C286.427 47.78 292.55 49.5767 296.95 53.17C301.423 56.7633 303.66 61.64 303.66 67.8C303.66 72.3467 302.45 76.1233 300.03 79.13C297.683 82.1367 294.53 84.2267 290.57 85.4ZM262.63 79.02H274.95C278.03 79.02 280.377 78.36 281.99 77.04C283.677 75.6467 284.52 73.63 284.52 70.99C284.52 68.35 283.677 66.3333 281.99 64.94C280.377 63.5467 278.03 62.85 274.95 62.85H262.63V79.02ZM276.49 109.82C279.643 109.82 282.063 109.123 283.75 107.73C285.51 106.263 286.39 104.173 286.39 101.46C286.39 98.7467 285.473 96.62 283.64 95.08C281.88 93.54 279.423 92.77 276.27 92.77H262.63V109.82H276.49ZM358.35 125.77C351.09 125.77 344.416 124.083 338.33 120.71C332.316 117.337 327.513 112.643 323.92 106.63C320.4 100.543 318.64 93.7233 318.64 86.17C318.64 78.6167 320.4 71.8333 323.92 65.82C327.513 59.8067 332.316 55.1133 338.33 51.74C344.416 48.3667 351.09 46.68 358.35 46.68C365.61 46.68 372.246 48.3667 378.26 51.74C384.346 55.1133 389.113 59.8067 392.56 65.82C396.08 71.8333 397.84 78.6167 397.84 86.17C397.84 93.7233 396.08 100.543 392.56 106.63C389.04 112.643 384.273 117.337 378.26 120.71C372.246 124.083 365.61 125.77 358.35 125.77ZM358.35 108.61C364.51 108.61 369.423 106.557 373.09 102.45C376.83 98.3433 378.7 92.9167 378.7 86.17C378.7 79.35 376.83 73.9233 373.09 69.89C369.423 65.7833 364.51 63.73 358.35 63.73C352.116 63.73 347.13 65.7467 343.39 69.78C339.723 73.8133 337.89 79.2767 337.89 86.17C337.89 92.99 339.723 98.4533 343.39 102.56C347.13 106.593 352.116 108.61 358.35 108.61ZM465.064 72.2C463.671 69.6333 461.654 67.69 459.014 66.37C456.448 64.9767 453.404 64.28 449.884 64.28C443.798 64.28 438.921 66.2967 435.254 70.33C431.588 74.29 429.754 79.6067 429.754 86.28C429.754 93.3933 431.661 98.9667 435.474 103C439.361 106.96 444.678 108.94 451.424 108.94C456.044 108.94 459.931 107.767 463.084 105.42C466.311 103.073 468.658 99.7 470.124 95.3H446.254V81.44H487.174V98.93C485.781 103.623 483.398 107.987 480.024 112.02C476.724 116.053 472.508 119.317 467.374 121.81C462.241 124.303 456.448 125.55 449.994 125.55C442.368 125.55 435.548 123.9 429.534 120.6C423.594 117.227 418.938 112.57 415.564 106.63C412.264 100.69 410.614 93.9067 410.614 86.28C410.614 78.6533 412.264 71.87 415.564 65.93C418.938 59.9167 423.594 55.26 429.534 51.96C435.474 48.5867 442.258 46.9 449.884 46.9C459.124 46.9 466.898 49.1367 473.204 53.61C479.584 58.0833 483.801 64.28 485.854 72.2H465.064ZM539.613 125.77C532.353 125.77 525.68 124.083 519.593 120.71C513.58 117.337 508.777 112.643 505.183 106.63C501.663 100.543 499.903 93.7233 499.903 86.17C499.903 78.6167 501.663 71.8333 505.183 65.82C508.777 59.8067 513.58 55.1133 519.593 51.74C525.68 48.3667 532.353 46.68 539.613 46.68C546.873 46.68 553.51 48.3667 559.523 51.74C565.61 55.1133 570.377 59.8067 573.823 65.82C577.343 71.8333 579.103 78.6167 579.103 86.17C579.103 93.7233 577.343 100.543 573.823 106.63C570.303 112.643 565.537 117.337 559.523 120.71C553.51 124.083 546.873 125.77 539.613 125.77ZM539.613 108.61C545.773 108.61 550.687 106.557 554.353 102.45C558.093 98.3433 559.963 92.9167 559.963 86.17C559.963 79.35 558.093 73.9233 554.353 69.89C550.687 65.7833 545.773 63.73 539.613 63.73C533.38 63.73 528.393 65.7467 524.653 69.78C520.987 73.8133 519.153 79.2767 519.153 86.17C519.153 92.99 520.987 98.4533 524.653 102.56C528.393 106.593 533.38 108.61 539.613 108.61Z" fill="#122231"/>
<rect x="241" y="136" width="677" height="61" rx="15" fill="#122231"/>
<path d="M273.789 182L276.324 169.818L266.635 150.504H271.146L275.787 159.699C276.804 161.704 277.792 163.853 278.752 166.145C279.812 164.197 281.258 162.07 283.092 159.764L290.482 150.504H295.51L280.471 170.141L278 182H273.789ZM290.987 173.342C290.987 168.887 292.297 165.199 294.919 162.277C297.081 159.871 299.917 158.668 303.426 158.668C306.176 158.668 308.389 159.527 310.065 161.246C311.755 162.965 312.6 165.285 312.6 168.207C312.6 170.828 312.07 173.27 311.01 175.533C309.95 177.782 308.439 179.508 306.477 180.711C304.529 181.914 302.474 182.516 300.311 182.516C298.535 182.516 296.917 182.136 295.456 181.377C294.009 180.618 292.899 179.544 292.126 178.154C291.366 176.765 290.987 175.161 290.987 173.342ZM294.876 172.955C294.876 175.104 295.391 176.736 296.422 177.854C297.454 178.956 298.764 179.508 300.354 179.508C301.185 179.508 302.008 179.343 302.825 179.014C303.641 178.67 304.4 178.154 305.102 177.467C305.804 176.779 306.398 175.999 306.885 175.125C307.387 174.237 307.788 173.285 308.088 172.268C308.532 170.85 308.754 169.489 308.754 168.186C308.754 166.123 308.232 164.526 307.186 163.395C306.155 162.249 304.851 161.676 303.276 161.676C302.058 161.676 300.948 161.969 299.946 162.557C298.943 163.13 298.034 163.975 297.217 165.092C296.415 166.209 295.821 167.512 295.434 169.002C295.062 170.477 294.876 171.795 294.876 172.955ZM330.808 177.875C328.072 180.969 325.272 182.516 322.407 182.516C320.646 182.516 319.22 182.014 318.132 181.012C317.058 179.995 316.521 178.756 316.521 177.295C316.521 176.335 316.764 174.688 317.251 172.354L320.001 159.184H323.89L320.839 173.771C320.581 174.989 320.452 175.934 320.452 176.607C320.452 177.467 320.71 178.14 321.226 178.627C321.756 179.1 322.529 179.336 323.546 179.336C324.635 179.336 325.694 179.071 326.726 178.541C327.771 178.011 328.666 177.295 329.411 176.393C330.17 175.49 330.786 174.423 331.259 173.191C331.574 172.404 331.939 171.021 332.355 169.045L334.417 159.184H338.306L333.536 182H329.948L330.808 177.875ZM340.164 182L344.933 159.184H348.371L347.404 163.846C348.578 162.084 349.724 160.781 350.841 159.936C351.973 159.09 353.126 158.668 354.3 158.668C355.074 158.668 356.026 158.947 357.158 159.506L355.568 163.115C354.895 162.628 354.157 162.385 353.355 162.385C351.994 162.385 350.598 163.144 349.166 164.662C347.733 166.18 346.609 168.909 345.793 172.848L343.859 182H340.164ZM368.63 182L375.225 150.504H379.307L384.614 162.32C386.233 165.93 387.514 168.966 388.46 171.43C389.004 172.862 389.634 174.796 390.35 177.23C390.737 174.581 391.224 171.845 391.811 169.023L395.679 150.504H399.782L393.208 182H389.04L381.22 163.803C379.83 160.594 378.749 157.766 377.975 155.316C377.761 157.365 377.345 159.878 376.729 162.857L372.733 182H368.63ZM416.937 174.244L420.718 174.631C420.174 176.507 418.921 178.29 416.958 179.98C415.01 181.671 412.683 182.516 409.976 182.516C408.286 182.516 406.732 182.129 405.314 181.355C403.91 180.568 402.836 179.429 402.091 177.939C401.361 176.45 400.995 174.753 400.995 172.848C400.995 170.355 401.568 167.942 402.714 165.607C403.874 163.258 405.371 161.518 407.204 160.387C409.038 159.241 411.022 158.668 413.156 158.668C415.877 158.668 418.047 159.513 419.665 161.203C421.298 162.893 422.115 165.199 422.115 168.121C422.115 169.238 422.014 170.384 421.814 171.559H405.013C404.956 172.003 404.927 172.404 404.927 172.762C404.927 174.896 405.414 176.529 406.388 177.66C407.376 178.777 408.579 179.336 409.997 179.336C411.329 179.336 412.64 178.899 413.929 178.025C415.218 177.152 416.221 175.891 416.937 174.244ZM405.636 168.594H418.441C418.455 168.193 418.462 167.906 418.462 167.734C418.462 165.786 417.975 164.297 417.001 163.266C416.027 162.22 414.774 161.697 413.242 161.697C411.58 161.697 410.062 162.27 408.687 163.416C407.326 164.562 406.309 166.288 405.636 168.594ZM430.633 154.908L431.557 150.504H435.424L434.5 154.908H430.633ZM424.961 182L429.73 159.184H433.619L428.85 182H424.961ZM435.133 184.062L439.065 184.428C439.036 185.316 439.144 185.982 439.387 186.426C439.631 186.87 440.017 187.214 440.547 187.457C441.249 187.772 442.159 187.93 443.276 187.93C445.625 187.93 447.315 187.321 448.346 186.104C449.019 185.287 449.642 183.511 450.215 180.775L450.602 178.928C448.583 180.976 446.434 182 444.157 182C441.851 182 439.917 181.155 438.356 179.465C436.809 177.76 436.036 175.354 436.036 172.246C436.036 169.682 436.644 167.326 437.862 165.178C439.094 163.029 440.555 161.411 442.245 160.322C443.935 159.219 445.675 158.668 447.465 158.668C450.459 158.668 452.765 160.086 454.383 162.922L455.157 159.184H458.723L454.125 181.205C453.624 183.626 452.965 185.509 452.149 186.855C451.333 188.216 450.194 189.269 448.733 190.014C447.286 190.758 445.61 191.131 443.706 191.131C441.872 191.131 440.29 190.895 438.958 190.422C437.64 189.949 436.652 189.255 435.993 188.338C435.348 187.436 435.026 186.397 435.026 185.223C435.026 184.865 435.062 184.478 435.133 184.062ZM439.989 171.902C439.989 173.464 440.139 174.638 440.44 175.426C440.87 176.529 441.478 177.374 442.266 177.961C443.068 178.534 443.956 178.82 444.93 178.82C446.205 178.82 447.472 178.376 448.733 177.488C449.993 176.586 451.01 175.197 451.784 173.32C452.571 171.444 452.965 169.654 452.965 167.949C452.965 166.073 452.443 164.583 451.397 163.48C450.366 162.363 449.084 161.805 447.551 161.805C446.606 161.805 445.689 162.062 444.801 162.578C443.913 163.079 443.083 163.853 442.309 164.898C441.55 165.93 440.97 167.169 440.569 168.615C440.182 170.062 439.989 171.158 439.989 171.902ZM460.28 182L466.855 150.504H470.743L468.23 162.6C469.676 161.196 471.023 160.193 472.269 159.592C473.515 158.976 474.797 158.668 476.114 158.668C478.005 158.668 479.473 159.169 480.519 160.172C481.564 161.16 482.087 162.471 482.087 164.104C482.087 164.906 481.858 166.381 481.399 168.529L478.585 182H474.696L477.597 168.186C478.012 166.18 478.22 164.92 478.22 164.404C478.22 163.66 477.962 163.051 477.446 162.578C476.931 162.105 476.186 161.869 475.212 161.869C473.808 161.869 472.469 162.242 471.194 162.986C469.92 163.717 468.917 164.727 468.187 166.016C467.47 167.29 466.812 169.353 466.21 172.203L464.169 182H460.28ZM485.212 182L491.787 150.504H495.675L493.334 161.762C494.565 160.63 495.683 159.835 496.685 159.377C497.688 158.904 498.733 158.668 499.822 158.668C501.956 158.668 503.732 159.463 505.15 161.053C506.582 162.643 507.298 164.956 507.298 167.992C507.298 170.012 507.012 171.859 506.439 173.535C505.866 175.211 505.157 176.622 504.312 177.768C503.467 178.899 502.593 179.809 501.691 180.496C500.789 181.169 499.865 181.671 498.92 182C497.974 182.344 497.065 182.516 496.191 182.516C494.687 182.516 493.362 182.122 492.216 181.334C491.071 180.532 490.175 179.314 489.531 177.682L488.629 182H485.212ZM490.97 172.633L490.949 173.363C490.949 175.311 491.414 176.794 492.345 177.811C493.276 178.827 494.436 179.336 495.826 179.336C497.186 179.336 498.433 178.863 499.564 177.918C500.71 176.958 501.648 175.469 502.379 173.449C503.109 171.43 503.474 169.568 503.474 167.863C503.474 165.944 503.009 164.454 502.078 163.395C501.161 162.335 500.022 161.805 498.662 161.805C497.258 161.805 495.969 162.349 494.795 163.438C493.62 164.512 492.639 166.173 491.851 168.422C491.264 170.098 490.97 171.501 490.97 172.633ZM510.832 173.342C510.832 168.887 512.143 165.199 514.764 162.277C516.927 159.871 519.763 158.668 523.272 158.668C526.022 158.668 528.235 159.527 529.91 161.246C531.6 162.965 532.445 165.285 532.445 168.207C532.445 170.828 531.916 173.27 530.856 175.533C529.796 177.782 528.285 179.508 526.322 180.711C524.375 181.914 522.319 182.516 520.156 182.516C518.38 182.516 516.762 182.136 515.301 181.377C513.854 180.618 512.744 179.544 511.971 178.154C511.212 176.765 510.832 175.161 510.832 173.342ZM514.721 172.955C514.721 175.104 515.236 176.736 516.268 177.854C517.299 178.956 518.61 179.508 520.199 179.508C521.03 179.508 521.854 179.343 522.67 179.014C523.486 178.67 524.246 178.154 524.947 177.467C525.649 176.779 526.244 175.999 526.731 175.125C527.232 174.237 527.633 173.285 527.934 172.268C528.378 170.85 528.6 169.489 528.6 168.186C528.6 166.123 528.077 164.526 527.031 163.395C526 162.249 524.697 161.676 523.121 161.676C521.904 161.676 520.794 161.969 519.791 162.557C518.789 163.13 517.879 163.975 517.063 165.092C516.261 166.209 515.666 167.512 515.279 169.002C514.907 170.477 514.721 171.795 514.721 172.955ZM535.077 182L539.846 159.184H543.284L542.317 163.846C543.492 162.084 544.637 160.781 545.755 159.936C546.886 159.09 548.039 158.668 549.214 158.668C549.987 158.668 550.94 158.947 552.071 159.506L550.481 163.115C549.808 162.628 549.07 162.385 548.268 162.385C546.908 162.385 545.511 163.144 544.079 164.662C542.647 166.18 541.522 168.909 540.706 172.848L538.772 182H535.077ZM550.169 182L556.743 150.504H560.632L558.118 162.6C559.565 161.196 560.911 160.193 562.158 159.592C563.404 158.976 564.685 158.668 566.003 158.668C567.894 158.668 569.362 159.169 570.408 160.172C571.453 161.16 571.976 162.471 571.976 164.104C571.976 164.906 571.747 166.381 571.288 168.529L568.474 182H564.585L567.486 168.186C567.901 166.18 568.109 164.92 568.109 164.404C568.109 163.66 567.851 163.051 567.335 162.578C566.82 162.105 566.075 161.869 565.101 161.869C563.697 161.869 562.358 162.242 561.083 162.986C559.809 163.717 558.806 164.727 558.075 166.016C557.359 167.29 556.7 169.353 556.099 172.203L554.058 182H550.169ZM575.789 173.342C575.789 168.887 577.099 165.199 579.721 162.277C581.883 159.871 584.719 158.668 588.228 158.668C590.978 158.668 593.191 159.527 594.867 161.246C596.557 162.965 597.402 165.285 597.402 168.207C597.402 170.828 596.872 173.27 595.812 175.533C594.752 177.782 593.241 179.508 591.279 180.711C589.331 181.914 587.276 182.516 585.113 182.516C583.337 182.516 581.719 182.136 580.258 181.377C578.811 180.618 577.701 179.544 576.928 178.154C576.168 176.765 575.789 175.161 575.789 173.342ZM579.678 172.955C579.678 175.104 580.193 176.736 581.224 177.854C582.256 178.956 583.566 179.508 585.156 179.508C585.987 179.508 586.81 179.343 587.627 179.014C588.443 178.67 589.202 178.154 589.904 177.467C590.606 176.779 591.2 175.999 591.687 175.125C592.189 174.237 592.59 173.285 592.89 172.268C593.334 170.85 593.556 169.489 593.556 168.186C593.556 166.123 593.034 164.526 591.988 163.395C590.957 162.249 589.653 161.676 588.078 161.676C586.861 161.676 585.75 161.969 584.748 162.557C583.745 163.13 582.836 163.975 582.019 165.092C581.217 166.209 580.623 167.512 580.236 169.002C579.864 170.477 579.678 171.795 579.678 172.955ZM600.721 173.342C600.721 168.887 602.032 165.199 604.653 162.277C606.816 159.871 609.651 158.668 613.161 158.668C615.911 158.668 618.123 159.527 619.799 161.246C621.489 162.965 622.334 165.285 622.334 168.207C622.334 170.828 621.804 173.27 620.745 175.533C619.685 177.782 618.174 179.508 616.211 180.711C614.263 181.914 612.208 182.516 610.045 182.516C608.269 182.516 606.651 182.136 605.19 181.377C603.743 180.618 602.633 179.544 601.86 178.154C601.101 176.765 600.721 175.161 600.721 173.342ZM604.61 172.955C604.61 175.104 605.125 176.736 606.157 177.854C607.188 178.956 608.498 179.508 610.088 179.508C610.919 179.508 611.743 179.343 612.559 179.014C613.375 178.67 614.135 178.154 614.836 177.467C615.538 176.779 616.133 175.999 616.62 175.125C617.121 174.237 617.522 173.285 617.823 172.268C618.267 170.85 618.489 169.489 618.489 168.186C618.489 166.123 617.966 164.526 616.92 163.395C615.889 162.249 614.586 161.676 613.01 161.676C611.793 161.676 610.683 161.969 609.68 162.557C608.677 163.13 607.768 163.975 606.952 165.092C606.149 166.209 605.555 167.512 605.168 169.002C604.796 170.477 604.61 171.795 604.61 172.955ZM640.349 178.691C638.129 181.241 635.808 182.516 633.388 182.516C631.225 182.516 629.42 181.721 627.974 180.131C626.541 178.527 625.825 176.206 625.825 173.17C625.825 170.391 626.391 167.856 627.522 165.564C628.668 163.258 630.093 161.533 631.798 160.387C633.517 159.241 635.235 158.668 636.954 158.668C639.79 158.668 641.931 160.036 643.378 162.771L645.956 150.504H649.823L643.249 182H639.661L640.349 178.691ZM629.692 172.439C629.692 174.029 629.85 175.283 630.165 176.199C630.48 177.116 631.017 177.882 631.776 178.498C632.535 179.1 633.445 179.4 634.505 179.4C636.267 179.4 637.864 178.484 639.296 176.65C641.215 174.215 642.175 171.208 642.175 167.627C642.175 165.822 641.702 164.411 640.757 163.395C639.811 162.378 638.623 161.869 637.19 161.869C636.259 161.869 635.407 162.077 634.634 162.492C633.875 162.908 633.116 163.617 632.356 164.619C631.612 165.607 630.981 166.868 630.466 168.4C629.95 169.933 629.692 171.279 629.692 172.439ZM650.822 182L651.746 177.596H656.171L655.376 181.441C654.89 183.747 654.13 185.438 653.099 186.512C652.082 187.586 650.879 188.202 649.49 188.359L649.855 186.662C651.559 186.189 652.684 184.635 653.228 182H650.822ZM685.282 182L687.817 169.818L678.128 150.504H682.639L687.28 159.699C688.297 161.704 689.285 163.853 690.245 166.145C691.305 164.197 692.751 162.07 694.585 159.764L701.975 150.504H707.003L691.964 170.141L689.493 182H685.282ZM702.48 173.342C702.48 168.887 703.79 165.199 706.411 162.277C708.574 159.871 711.41 158.668 714.919 158.668C717.669 158.668 719.882 159.527 721.558 161.246C723.248 162.965 724.093 165.285 724.093 168.207C724.093 170.828 723.563 173.27 722.503 175.533C721.443 177.782 719.932 179.508 717.97 180.711C716.022 181.914 713.967 182.516 711.804 182.516C710.028 182.516 708.409 182.136 706.948 181.377C705.502 180.618 704.392 179.544 703.618 178.154C702.859 176.765 702.48 175.161 702.48 173.342ZM706.368 172.955C706.368 175.104 706.884 176.736 707.915 177.854C708.946 178.956 710.257 179.508 711.847 179.508C712.678 179.508 713.501 179.343 714.318 179.014C715.134 178.67 715.893 178.154 716.595 177.467C717.297 176.779 717.891 175.999 718.378 175.125C718.879 174.237 719.28 173.285 719.581 172.268C720.025 170.85 720.247 169.489 720.247 168.186C720.247 166.123 719.724 164.526 718.679 163.395C717.648 162.249 716.344 161.676 714.769 161.676C713.551 161.676 712.441 161.969 711.439 162.557C710.436 163.13 709.527 163.975 708.71 165.092C707.908 166.209 707.314 167.512 706.927 169.002C706.555 170.477 706.368 171.795 706.368 172.955ZM742.301 177.875C739.565 180.969 736.765 182.516 733.9 182.516C732.138 182.516 730.713 182.014 729.625 181.012C728.551 179.995 728.013 178.756 728.013 177.295C728.013 176.335 728.257 174.688 728.744 172.354L731.494 159.184H735.383L732.332 173.771C732.074 174.989 731.945 175.934 731.945 176.607C731.945 177.467 732.203 178.14 732.719 178.627C733.248 179.1 734.022 179.336 735.039 179.336C736.127 179.336 737.187 179.071 738.219 178.541C739.264 178.011 740.159 177.295 740.904 176.393C741.663 175.49 742.279 174.423 742.752 173.191C743.067 172.404 743.432 171.021 743.847 169.045L745.91 159.184H749.799L745.029 182H741.441L742.301 177.875ZM751.657 182L756.426 159.184H759.864L758.897 163.846C760.071 162.084 761.217 160.781 762.334 159.936C763.466 159.09 764.619 158.668 765.793 158.668C766.567 158.668 767.519 158.947 768.651 159.506L767.061 163.115C766.388 162.628 765.65 162.385 764.848 162.385C763.487 162.385 762.091 163.144 760.659 164.662C759.226 166.18 758.102 168.909 757.285 172.848L755.352 182H751.657ZM779.929 182L786.503 150.504H795.999C798.277 150.504 800.017 150.669 801.22 150.998C802.939 151.442 804.407 152.237 805.624 153.383C806.842 154.514 807.759 155.932 808.374 157.637C808.99 159.341 809.298 161.253 809.298 163.373C809.298 165.908 808.912 168.221 808.138 170.312C807.379 172.389 806.376 174.223 805.13 175.812C803.899 177.388 802.602 178.627 801.242 179.529C799.895 180.417 798.298 181.076 796.451 181.506C795.047 181.835 793.321 182 791.273 182H779.929ZM784.892 178.434H789.876C792.125 178.434 794.123 178.226 795.871 177.811C796.959 177.553 797.89 177.173 798.664 176.672C799.68 176.027 800.604 175.175 801.435 174.115C802.524 172.712 803.39 171.115 804.035 169.324C804.693 167.52 805.023 165.471 805.023 163.18C805.023 160.63 804.579 158.675 803.691 157.314C802.803 155.939 801.671 155.03 800.296 154.586C799.279 154.257 797.697 154.092 795.548 154.092H789.984L784.892 178.434ZM828.43 174.244L832.211 174.631C831.667 176.507 830.413 178.29 828.451 179.98C826.503 181.671 824.176 182.516 821.469 182.516C819.779 182.516 818.225 182.129 816.807 181.355C815.403 180.568 814.329 179.429 813.584 177.939C812.854 176.45 812.488 174.753 812.488 172.848C812.488 170.355 813.061 167.942 814.207 165.607C815.367 163.258 816.864 161.518 818.697 160.387C820.531 159.241 822.514 158.668 824.648 158.668C827.37 158.668 829.54 159.513 831.158 161.203C832.791 162.893 833.607 165.199 833.607 168.121C833.607 169.238 833.507 170.384 833.307 171.559H816.506C816.449 172.003 816.42 172.404 816.42 172.762C816.42 174.896 816.907 176.529 817.881 177.66C818.869 178.777 820.072 179.336 821.49 179.336C822.822 179.336 824.133 178.899 825.422 178.025C826.711 177.152 827.714 175.891 828.43 174.244ZM817.129 168.594H829.934C829.948 168.193 829.955 167.906 829.955 167.734C829.955 165.786 829.468 164.297 828.494 163.266C827.52 162.22 826.267 161.697 824.734 161.697C823.073 161.697 821.555 162.27 820.18 163.416C818.819 164.562 817.802 166.288 817.129 168.594ZM851.987 179.164C850.641 180.324 849.344 181.176 848.098 181.721C846.852 182.251 845.52 182.516 844.102 182.516C841.997 182.516 840.299 181.9 839.01 180.668C837.721 179.422 837.077 177.832 837.077 175.898C837.077 174.624 837.363 173.499 837.936 172.525C838.523 171.537 839.297 170.749 840.256 170.162C841.216 169.561 842.391 169.131 843.78 168.873C844.654 168.701 846.308 168.565 848.743 168.465C851.192 168.365 852.947 168.107 854.006 167.691C854.307 166.632 854.458 165.751 854.458 165.049C854.458 164.146 854.128 163.438 853.469 162.922C852.567 162.206 851.249 161.848 849.516 161.848C847.883 161.848 846.544 162.213 845.499 162.943C844.467 163.66 843.715 164.684 843.243 166.016L839.311 165.672C840.113 163.409 841.381 161.676 843.114 160.473C844.861 159.27 847.06 158.668 849.71 158.668C852.531 158.668 854.766 159.341 856.413 160.688C857.673 161.69 858.303 162.993 858.303 164.598C858.303 165.815 858.124 167.226 857.766 168.83L856.499 174.502C856.098 176.307 855.897 177.775 855.897 178.906C855.897 179.622 856.055 180.654 856.37 182H852.438C852.223 181.255 852.073 180.31 851.987 179.164ZM853.426 170.441C852.882 170.656 852.295 170.821 851.665 170.936C851.049 171.05 850.01 171.172 848.549 171.301C846.286 171.501 844.689 171.759 843.758 172.074C842.827 172.375 842.126 172.862 841.653 173.535C841.18 174.208 840.944 174.953 840.944 175.77C840.944 176.858 841.316 177.753 842.061 178.455C842.82 179.157 843.894 179.508 845.284 179.508C846.573 179.508 847.812 179.171 849.001 178.498C850.189 177.811 851.128 176.858 851.815 175.641C852.503 174.423 853.04 172.69 853.426 170.441ZM861.235 182L867.81 150.504H871.698L865.124 182H861.235ZM872.138 174.201L876.027 173.965C876.027 175.082 876.199 176.035 876.543 176.822C876.886 177.61 877.517 178.255 878.433 178.756C879.364 179.257 880.446 179.508 881.677 179.508C883.396 179.508 884.685 179.164 885.545 178.477C886.404 177.789 886.834 176.98 886.834 176.049C886.834 175.376 886.576 174.738 886.06 174.137C885.53 173.535 884.234 172.798 882.172 171.924C880.123 171.036 878.813 170.413 878.24 170.055C877.28 169.467 876.557 168.78 876.07 167.992C875.583 167.19 875.34 166.273 875.34 165.242C875.34 163.438 876.056 161.891 877.488 160.602C878.92 159.312 880.925 158.668 883.504 158.668C886.368 158.668 888.545 159.334 890.035 160.666C891.539 161.984 892.319 163.724 892.377 165.887L888.574 166.145C888.517 164.77 888.03 163.681 887.113 162.879C886.196 162.077 884.9 161.676 883.224 161.676C881.878 161.676 880.832 161.984 880.088 162.6C879.343 163.215 878.97 163.882 878.97 164.598C878.97 165.314 879.293 165.944 879.937 166.488C880.367 166.861 881.477 167.434 883.267 168.207C886.246 169.496 888.123 170.513 888.896 171.258C890.128 172.447 890.744 173.893 890.744 175.598C890.744 176.729 890.393 177.839 889.691 178.928C889.004 180.016 887.944 180.89 886.511 181.549C885.093 182.193 883.418 182.516 881.484 182.516C878.849 182.516 876.607 181.864 874.759 180.561C872.912 179.257 872.038 177.137 872.138 174.201Z" fill="white"/>
<path d="M102.775 6.02393C113.97 4.66744 120.464 4.64997 131.657 6.02393C144.741 7.62992 151.325 9.64132 163.165 15.3843C172.565 19.9437 178.441 23.0659 186.272 29.9438C194.426 37.1064 198.57 41.7869 204.652 50.7446C210.792 59.7889 214.014 65.2899 217.255 75.7046C219.648 83.3942 220.081 87.9826 220.931 95.9849C222.154 107.497 222.198 114.118 220.931 125.625C220.072 133.426 219.46 137.849 217.255 145.385C216.051 149.502 213.598 155.737 213.579 155.786L199.4 147.986C199.4 147.986 203.566 134.526 204.652 125.625C205.857 115.747 205.678 110.675 204.652 101.185C203.693 92.3143 203.029 87.2001 199.925 78.8247C196.253 68.9167 192.543 63.6131 186.272 55.4243C179.788 46.9573 175.358 42.9469 166.317 37.2241C159.192 32.7147 154.929 30.4469 146.886 27.8638C137.894 24.9758 132.691 23.2358 123.255 22.6636C113.377 22.0645 107.689 23.0501 98.0481 25.2642C88.2509 27.5141 82.761 29.4086 73.8918 34.104C67.1201 37.689 64.2711 39.8306 58.6624 45.0239C53.656 49.6595 50.4742 52.9563 46.5842 58.5444L46.4036 58.8042C41.4602 65.9049 38.5336 70.1084 35.5559 78.3052C32.5881 86.4748 31.3312 91.5224 30.3049 100.145C29.2956 108.625 29.4429 114.529 30.3049 123.025C31.1503 131.356 32.9259 134.828 35.5559 142.786C38.3871 151.352 40.5584 155.974 44.4836 164.106C49.0362 173.538 51.8085 178.254 57.6125 186.986C65.3075 198.563 70.1539 204.963 79.1428 215.586C86.6082 224.409 99.0775 238.444 99.0979 238.467L118.529 260.307L146.886 225.987L159.49 237.947L126.931 273.307C126.931 273.307 122.284 277.727 118.529 277.988C114.228 278.286 108.551 273.307 108.551 273.307L82.8186 245.227C82.7585 245.16 66.7775 227.335 57.6125 215.067C51.1175 206.373 47.6656 201.345 41.8577 192.186C36.1898 183.248 32.7892 178.313 28.2043 168.786C23.4856 158.98 21.2269 153.234 18.2268 142.786C15.7627 134.204 14.3728 129.305 13.5002 120.425C12.7256 112.543 12.9514 108.046 13.5002 100.145C14.2706 89.054 15.5175 82.5403 19.2766 72.0649C22.8115 62.2144 25.2436 57.1883 31.3557 48.6646C37.7452 39.754 42.8358 34.3444 51.3108 27.3442C60.4935 19.7596 65.4048 16.6379 76.5168 12.2642C86.3163 8.4071 92.3075 7.29214 102.775 6.02393Z" fill="#F67E2E"/>
<path d="M102.775 6.02393L102.715 5.52756L102.715 5.52756L102.775 6.02393ZM131.657 6.02393L131.718 5.52765L131.718 5.52765L131.657 6.02393ZM163.165 15.3843L163.383 14.9344L163.383 14.9344L163.165 15.3843ZM186.272 29.9438L185.942 30.3195L185.942 30.3195L186.272 29.9438ZM204.652 50.7446L205.065 50.4638L205.065 50.4638L204.652 50.7446ZM217.255 75.7046L216.778 75.8532L216.778 75.8532L217.255 75.7046ZM220.931 95.9849L220.434 96.0377L220.434 96.0377L220.931 95.9849ZM220.931 125.625L220.434 125.571L220.931 125.625ZM217.255 145.385L217.735 145.526L217.735 145.526L217.255 145.385ZM213.579 155.786L213.338 156.224L213.836 156.498L214.045 155.969L213.579 155.786ZM199.4 147.986L198.922 147.838L198.801 148.227L199.159 148.424L199.4 147.986ZM204.652 125.625L205.148 125.686L205.148 125.686L204.652 125.625ZM204.652 101.185L204.155 101.239L204.155 101.239L204.652 101.185ZM199.925 78.8247L200.394 78.651L200.394 78.651L199.925 78.8247ZM186.272 55.4243L185.875 55.7283L185.875 55.7283L186.272 55.4243ZM166.317 37.2241L166.584 36.8016L166.584 36.8016L166.317 37.2241ZM146.886 27.8638L146.733 28.3398L146.733 28.3398L146.886 27.8638ZM123.255 22.6636L123.285 22.1645L123.285 22.1645L123.255 22.6636ZM98.0481 25.2642L98.16 25.7515L98.16 25.7515L98.0481 25.2642ZM73.8918 34.104L73.6579 33.6621L73.6579 33.6621L73.8918 34.104ZM58.6624 45.0239L58.3226 44.657L58.3226 44.657L58.6624 45.0239ZM46.5842 58.5444L46.1739 58.2588L46.1737 58.2589L46.5842 58.5444ZM46.4036 58.8042L46.8139 59.0899L46.814 59.0897L46.4036 58.8042ZM35.5559 78.3052L35.086 78.1345L35.086 78.1345L35.5559 78.3052ZM30.3049 100.145L30.8014 100.204L30.8014 100.204L30.3049 100.145ZM30.3049 123.025L29.8075 123.075L29.8075 123.075L30.3049 123.025ZM35.5559 142.786L36.0307 142.629L36.0307 142.629L35.5559 142.786ZM44.4836 164.106L44.9339 163.889L44.9339 163.889L44.4836 164.106ZM57.6125 186.986L57.1961 187.263L57.1961 187.263L57.6125 186.986ZM79.1428 215.586L78.7611 215.909L78.7611 215.909L79.1428 215.586ZM99.0979 238.467L98.7241 238.799L98.7243 238.8L99.0979 238.467ZM118.529 260.307L118.155 260.639L118.543 261.075L118.914 260.626L118.529 260.307ZM146.886 225.987L147.23 225.624L146.842 225.255L146.501 225.668L146.886 225.987ZM159.49 237.947L159.857 238.285L160.191 237.923L159.834 237.584L159.49 237.947ZM126.931 273.307L127.276 273.669L127.288 273.658L127.299 273.646L126.931 273.307ZM118.529 277.988L118.563 278.487L118.563 278.487L118.529 277.988ZM108.551 273.307L108.182 273.645L108.201 273.665L108.221 273.683L108.551 273.307ZM82.8186 245.227L82.4463 245.561L82.45 245.565L82.8186 245.227ZM57.6125 215.067L57.212 215.366L57.212 215.366L57.6125 215.067ZM41.8577 192.186L42.2799 191.918L42.2799 191.918L41.8577 192.186ZM28.2043 168.786L27.7538 169.002L27.7538 169.002L28.2043 168.786ZM18.2268 142.786L18.7074 142.648L18.7074 142.648L18.2268 142.786ZM13.5002 120.425L13.0026 120.474L13.0026 120.474L13.5002 120.425ZM13.5002 100.145L13.0014 100.11L13.5002 100.145ZM19.2766 72.0649L18.806 71.8961L18.806 71.8961L19.2766 72.0649ZM31.3557 48.6646L30.9494 48.3732L30.9494 48.3732L31.3557 48.6646ZM51.3108 27.3442L50.9924 26.9587L50.9924 26.9587L51.3108 27.3442ZM76.5168 12.2642L76.3337 11.7989L76.3337 11.7989L76.5168 12.2642ZM102.775 6.02393L102.835 6.5203C113.991 5.16858 120.444 5.15128 131.597 6.5202L131.657 6.02393L131.718 5.52765C120.484 4.14866 113.95 4.16631 102.715 5.52756L102.775 6.02393ZM131.657 6.02393L131.597 6.5202C144.624 8.11923 151.155 10.1143 162.947 15.8341L163.165 15.3843L163.383 14.9344C151.496 9.1684 144.859 7.14061 131.718 5.52765L131.657 6.02393ZM163.165 15.3843L162.947 15.8341C172.333 20.3868 178.162 23.4858 185.942 30.3195L186.272 29.9438L186.602 29.5682C178.721 22.6459 172.797 19.5005 163.383 14.9344L163.165 15.3843ZM186.272 29.9438L185.942 30.3195C194.065 37.4544 198.181 42.1032 204.238 51.0255L204.652 50.7446L205.065 50.4638C198.96 41.4707 194.788 36.7584 186.602 29.5682L186.272 29.9438ZM204.652 50.7446L204.238 51.0255C210.363 60.0475 213.556 65.5028 216.778 75.8532L217.255 75.7046L217.733 75.556C214.471 65.0769 211.22 59.5303 205.065 50.4638L204.652 50.7446ZM217.255 75.7046L216.778 75.8532C219.155 83.4912 219.584 88.0358 220.434 96.0377L220.931 95.9849L221.428 95.932C220.578 87.9294 220.142 83.2972 217.733 75.556L217.255 75.7046ZM220.931 95.9849L220.434 96.0377C221.653 107.516 221.697 114.101 220.434 125.571L220.931 125.625L221.428 125.68C222.699 114.135 222.655 107.477 221.428 95.932L220.931 95.9849ZM220.931 125.625L220.434 125.571C219.576 133.358 218.968 137.749 216.775 145.245L217.255 145.385L217.735 145.526C219.952 137.949 220.568 133.493 221.428 125.68L220.931 125.625ZM217.255 145.385L216.775 145.245C215.578 149.337 213.135 155.55 213.114 155.603L213.579 155.786L214.045 155.969C214.062 155.925 216.523 149.668 217.735 145.526L217.255 145.385ZM213.579 155.786L213.82 155.348L199.641 147.548L199.4 147.986L199.159 148.424L213.338 156.224L213.579 155.786ZM199.4 147.986C199.877 148.134 199.877 148.134 199.877 148.133C199.877 148.133 199.877 148.133 199.878 148.133C199.878 148.133 199.878 148.132 199.878 148.131C199.879 148.129 199.879 148.127 199.88 148.123C199.883 148.117 199.886 148.107 199.89 148.094C199.898 148.068 199.909 148.029 199.925 147.979C199.956 147.877 200.001 147.728 200.06 147.534C200.176 147.147 200.343 146.585 200.548 145.883C200.956 144.479 201.512 142.514 202.102 140.271C203.28 135.789 204.601 130.172 205.148 125.686L204.652 125.625L204.155 125.565C203.617 129.98 202.311 135.543 201.135 140.016C200.548 142.25 199.994 144.206 199.587 145.604C199.384 146.303 199.218 146.862 199.102 147.246C199.044 147.438 198.999 147.586 198.969 147.686C198.953 147.737 198.942 147.775 198.934 147.8C198.93 147.813 198.927 147.822 198.925 147.829C198.924 147.832 198.923 147.834 198.923 147.836C198.922 147.837 198.922 147.837 198.922 147.837C198.922 147.838 198.922 147.838 198.922 147.838C198.922 147.838 198.922 147.838 199.4 147.986ZM204.652 125.625L205.148 125.686C206.359 115.761 206.178 110.651 205.149 101.131L204.652 101.185L204.155 101.239C205.177 110.7 205.355 115.732 204.155 125.565L204.652 125.625ZM204.652 101.185L205.149 101.131C204.188 92.2484 203.519 87.0851 200.394 78.651L199.925 78.8247L199.456 78.9984C202.538 87.3151 203.197 92.3802 204.155 101.239L204.652 101.185ZM199.925 78.8247L200.394 78.651C196.697 68.6744 192.951 63.3245 186.669 55.1203L186.272 55.4243L185.875 55.7283C192.134 63.9016 195.81 69.1591 199.456 78.9984L199.925 78.8247ZM186.272 55.4243L186.669 55.1203C180.148 46.6054 175.674 42.5552 166.584 36.8016L166.317 37.2241L166.049 37.6466C175.042 43.3386 179.428 47.3092 185.875 55.7283L186.272 55.4243ZM166.317 37.2241L166.584 36.8016C159.435 32.2768 155.133 29.9873 147.039 27.3877L146.886 27.8638L146.733 28.3398C154.725 30.9064 158.949 33.1526 166.049 37.6466L166.317 37.2241ZM146.886 27.8638L147.039 27.3877C138.046 24.4995 132.79 22.7409 123.285 22.1645L123.255 22.6636L123.225 23.1627C132.592 23.7307 137.742 25.4522 146.733 28.3398L146.886 27.8638ZM123.255 22.6636L123.285 22.1645C113.339 21.5613 107.6 22.5576 97.9362 24.7768L98.0481 25.2642L98.16 25.7515C107.779 23.5426 113.414 22.5677 123.225 23.1627L123.255 22.6636ZM98.0481 25.2642L97.9362 24.7768C88.1026 27.0351 82.5707 28.9436 73.6579 33.6621L73.8918 34.104L74.1258 34.5459C82.9513 29.8736 88.3993 27.993 98.16 25.7515L98.0481 25.2642ZM73.8918 34.104L73.6579 33.6621C66.8427 37.2701 63.9588 39.4384 58.3226 44.657L58.6624 45.0239L59.0021 45.3908C64.5834 40.2228 67.3974 38.108 74.1258 34.5459L73.8918 34.104ZM58.6624 45.0239L58.3226 44.657C53.3011 49.3066 50.0917 52.6307 46.1739 58.2588L46.5842 58.5444L46.9946 58.8301C50.8568 53.2819 54.0108 50.0124 59.0021 45.3908L58.6624 45.0239ZM46.5842 58.5444L46.1737 58.2589L45.9931 58.5187L46.4036 58.8042L46.814 59.0897L46.9947 58.8299L46.5842 58.5444ZM46.4036 58.8042L45.9932 58.5185C41.047 65.6234 38.0875 69.8721 35.086 78.1345L35.5559 78.3052L36.0259 78.4759C38.9798 70.3446 41.8735 66.1864 46.8139 59.0899L46.4036 58.8042ZM35.5559 78.3052L35.086 78.1345C32.1059 86.3376 30.8395 91.4226 29.8084 100.086L30.3049 100.145L30.8014 100.204C31.8228 91.6222 33.0702 86.6121 36.0259 78.4759L35.5559 78.3052ZM30.3049 100.145L29.8084 100.086C28.7938 108.611 28.9427 114.553 29.8075 123.075L30.3049 123.025L30.8024 122.974C29.943 114.505 29.7975 108.639 30.8014 100.204L30.3049 100.145ZM30.3049 123.025L29.8075 123.075C30.66 131.477 32.464 135.024 35.0812 142.943L35.5559 142.786L36.0307 142.629C33.3878 134.632 31.6406 131.235 30.8024 122.974L30.3049 123.025ZM35.5559 142.786L35.0812 142.943C37.9227 151.54 40.1053 156.185 44.0334 164.323L44.4836 164.106L44.9339 163.889C41.0115 155.762 38.8515 151.164 36.0307 142.629L35.5559 142.786ZM44.4836 164.106L44.0334 164.323C48.5971 173.778 51.3812 178.514 57.1961 187.263L57.6125 186.986L58.029 186.709C52.2358 177.993 49.4752 173.297 44.9339 163.889L44.4836 164.106ZM57.6125 186.986L57.1961 187.263C64.9023 198.857 69.7603 205.272 78.7611 215.909L79.1428 215.586L79.5245 215.263C70.5474 204.654 65.7128 198.269 58.029 186.709L57.6125 186.986ZM79.1428 215.586L78.7611 215.909C86.2312 224.738 98.7047 238.777 98.7241 238.799L99.0979 238.467L99.4717 238.135C99.4504 238.111 86.9853 224.081 79.5245 215.263L79.1428 215.586ZM99.0979 238.467L98.7243 238.8L118.155 260.639L118.529 260.307L118.902 259.975L99.4715 238.135L99.0979 238.467ZM118.529 260.307L118.914 260.626L147.271 226.305L146.886 225.987L146.501 225.668L118.143 259.989L118.529 260.307ZM146.886 225.987L146.542 226.35L159.145 238.309L159.49 237.947L159.834 237.584L147.23 225.624L146.886 225.987ZM159.49 237.947L159.122 237.608L126.563 272.968L126.931 273.307L127.299 273.646L159.857 238.285L159.49 237.947ZM126.931 273.307C126.586 272.945 126.586 272.945 126.586 272.945C126.586 272.945 126.586 272.945 126.586 272.945C126.586 272.945 126.586 272.945 126.586 272.945C126.586 272.946 126.585 272.946 126.584 272.947C126.582 272.949 126.579 272.952 126.575 272.955C126.567 272.963 126.554 272.975 126.538 272.99C126.504 273.021 126.454 273.067 126.389 273.126C126.258 273.245 126.066 273.415 125.823 273.62C125.337 274.031 124.652 274.582 123.852 275.14C122.229 276.271 120.226 277.369 118.494 277.489L118.529 277.988L118.563 278.487C120.587 278.346 122.784 277.103 124.424 275.96C125.256 275.38 125.966 274.809 126.469 274.383C126.721 274.17 126.921 273.993 127.059 273.869C127.128 273.806 127.181 273.757 127.218 273.723C127.236 273.706 127.25 273.693 127.26 273.684C127.265 273.68 127.268 273.676 127.271 273.674C127.272 273.672 127.273 273.671 127.274 273.671C127.274 273.67 127.275 273.67 127.275 273.67C127.275 273.67 127.275 273.67 127.275 273.67C127.275 273.669 127.276 273.669 126.931 273.307ZM118.529 277.988L118.494 277.489C116.514 277.626 114.139 276.537 112.189 275.334C111.23 274.742 110.4 274.139 109.81 273.685C109.516 273.457 109.282 273.268 109.122 273.135C109.043 273.069 108.981 273.018 108.941 272.983C108.92 272.965 108.905 272.952 108.895 272.943C108.89 272.939 108.886 272.936 108.884 272.934C108.882 272.933 108.882 272.932 108.881 272.932C108.881 272.931 108.881 272.931 108.881 272.931C108.881 272.931 108.881 272.931 108.881 272.931C108.881 272.931 108.881 272.931 108.551 273.307C108.221 273.683 108.221 273.683 108.222 273.683C108.222 273.683 108.222 273.683 108.222 273.684C108.222 273.684 108.222 273.684 108.223 273.684C108.224 273.685 108.225 273.686 108.227 273.688C108.23 273.69 108.234 273.694 108.24 273.699C108.252 273.71 108.269 273.724 108.291 273.743C108.336 273.781 108.401 273.836 108.484 273.906C108.652 274.044 108.895 274.241 109.2 274.476C109.809 274.946 110.667 275.57 111.664 276.185C113.629 277.397 116.242 278.648 118.563 278.487L118.529 277.988ZM108.551 273.307L108.92 272.969L83.1872 244.889L82.8186 245.227L82.45 245.565L108.182 273.645L108.551 273.307ZM82.8186 245.227L83.1909 244.893C83.1279 244.823 67.1623 227.015 58.0131 214.768L57.6125 215.067L57.212 215.366C66.3927 227.655 82.3892 245.497 82.4463 245.561L82.8186 245.227ZM57.6125 215.067L58.0131 214.768C51.5259 206.084 48.0812 201.066 42.2799 191.918L41.8577 192.186L41.4354 192.454C47.2499 201.623 50.709 206.661 57.212 215.366L57.6125 215.067ZM41.8577 192.186L42.2799 191.918C36.6063 182.971 33.2243 178.064 28.6549 168.569L28.2043 168.786L27.7538 169.002C32.3542 178.562 35.7734 183.525 41.4354 192.454L41.8577 192.186ZM28.2043 168.786L28.6549 168.569C23.9473 158.786 21.699 153.066 18.7074 142.648L18.2268 142.786L17.7462 142.924C20.7548 153.401 23.024 159.174 27.7538 169.002L28.2043 168.786ZM18.2268 142.786L18.7074 142.648C16.2447 134.071 14.8658 129.208 13.9978 120.376L13.5002 120.425L13.0026 120.474C13.8799 129.401 15.2807 134.337 17.7462 142.924L18.2268 142.786ZM13.5002 120.425L13.9978 120.376C13.2273 112.535 13.4509 108.071 13.999 100.18L13.5002 100.145L13.0014 100.11C12.4519 108.022 12.224 112.55 13.0026 120.474L13.5002 120.425ZM13.5002 100.145L13.999 100.18C14.7666 89.1299 16.0051 82.6619 19.7472 72.2338L19.2766 72.0649L18.806 71.8961C15.0299 82.4188 13.7747 88.9781 13.0014 100.11L13.5002 100.145ZM19.2766 72.0649L19.7472 72.2338C23.2692 62.4195 25.6812 57.4361 31.762 48.9559L31.3557 48.6646L30.9494 48.3732C24.8061 56.9405 22.3539 62.0094 18.806 71.8961L19.2766 72.0649ZM31.3557 48.6646L31.762 48.9559C38.1257 40.0813 43.1866 34.7031 51.6292 27.7297L51.3108 27.3442L50.9924 26.9587C42.485 33.9856 37.3646 39.4267 30.9494 48.3732L31.3557 48.6646ZM51.3108 27.3442L51.6292 27.7297C60.7772 20.1737 65.6436 17.0812 76.7 12.7294L76.5168 12.2642L76.3337 11.7989C65.166 16.1945 60.2098 19.3454 50.9924 26.9587L51.3108 27.3442ZM76.5168 12.2642L76.7 12.7294C86.4465 8.89317 92.3927 7.78549 102.835 6.5203L102.775 6.02393L102.715 5.52756C92.2224 6.7988 86.186 7.92104 76.3337 11.7989L76.5168 12.2642Z" fill="#F67E2E"/>
<path d="M100.106 48.807C108.6 46.5069 113.858 46.0897 122.618 46.7914C134.297 47.7269 141.42 50.1528 151.2 55.3236C158.724 59.3015 162.423 61.987 168.083 67.9105C174.129 74.238 176.751 78.764 180.358 86.514C183.306 92.848 184.391 96.7938 185.479 103.636C186.137 107.774 186.132 113.062 185.972 117.247C185.892 119.354 185.773 121.208 185.673 122.536C185.623 123.201 185.577 123.734 185.545 124.103C185.528 124.287 185.515 124.43 185.506 124.528C185.501 124.576 185.497 124.614 185.495 124.64C185.494 124.653 185.493 124.663 185.492 124.669C185.492 124.672 185.491 124.675 185.491 124.677V124.68L185.488 124.713L185.483 124.746L185.482 124.748C185.482 124.75 185.482 124.753 185.481 124.755C185.48 124.761 185.48 124.77 185.478 124.781C185.475 124.802 185.47 124.834 185.464 124.875C185.451 124.958 185.433 125.081 185.409 125.238C185.361 125.551 185.289 126.005 185.195 126.569C185.008 127.695 184.733 129.265 184.382 131.036C183.683 134.556 182.664 138.963 181.4 142.282C180.4 144.906 178.758 148.633 177.379 151.678C176.827 152.897 176.312 154.012 175.895 154.912L186.441 154.514L186.469 154.513H186.545C186.573 154.513 186.614 154.514 186.666 154.514C186.77 154.515 186.92 154.517 187.102 154.521C187.467 154.529 187.971 154.545 188.525 154.577C189.569 154.637 191.01 154.763 191.969 155.08C193.111 155.458 194.16 156.217 194.859 156.794C195.224 157.096 195.527 157.377 195.74 157.583C195.847 157.687 195.933 157.773 195.993 157.834C196.023 157.865 196.047 157.89 196.064 157.908L248.529 207.556L248.741 207.756L248.862 208.021L247.499 208.646L248.862 208.022L248.865 208.028C248.867 208.031 248.869 208.037 248.872 208.043C248.877 208.056 248.886 208.074 248.896 208.096C248.917 208.142 248.946 208.208 248.983 208.292C249.057 208.461 249.16 208.705 249.284 209.006C249.531 209.609 249.86 210.454 250.188 211.422C250.828 213.312 251.528 215.855 251.498 218.013C251.469 220.065 250.772 222.472 250.145 224.261C249.824 225.178 249.504 225.977 249.265 226.547C249.146 226.833 249.045 227.062 248.974 227.222C248.939 227.302 248.911 227.364 248.891 227.408C248.882 227.429 248.873 227.446 248.868 227.458C248.865 227.464 248.863 227.469 248.861 227.472C248.86 227.474 248.86 227.476 248.859 227.477V227.478L248.858 227.479L248.746 227.72L248.557 227.909L209.557 266.769L209.45 266.875L209.324 266.958L208.499 265.706L209.323 266.959L209.321 266.96L209.306 266.97C209.297 266.976 209.283 266.985 209.265 266.996C209.231 267.019 209.182 267.05 209.12 267.089C208.995 267.168 208.814 267.281 208.591 267.414C208.144 267.682 207.515 268.041 206.788 268.411C205.382 269.125 203.421 269.977 201.644 270.151C199.313 270.378 196.641 269.506 194.721 268.709C193.727 268.296 192.862 267.872 192.246 267.551C191.937 267.39 191.688 267.254 191.515 267.158C191.429 267.109 191.361 267.071 191.313 267.043C191.29 267.03 191.271 267.019 191.258 267.011C191.251 267.007 191.246 267.004 191.242 267.001C191.24 267 191.238 266.999 191.237 266.998L191.236 266.997H191.235L191.998 265.706L191.234 266.997L191.096 266.915L190.978 266.806L156.478 234.832L156.469 234.825L157.499 233.733L156.469 234.824L144.469 223.51L144.428 223.472L144.391 223.431L139.926 218.549C139.904 218.529 139.875 218.501 139.84 218.467C139.761 218.391 139.65 218.281 139.514 218.144C139.244 217.87 138.873 217.483 138.47 217.03C137.695 216.155 136.693 214.91 136.135 213.701C135.492 212.302 135.227 210.485 135.107 209.147C135.045 208.453 135.017 207.836 135.006 207.393C135 207.171 134.998 206.991 134.998 206.865V206.689L134.53 182.31C134.128 182.361 133.671 182.421 133.18 182.482C131.468 182.693 129.32 182.942 127.626 183.086C123.732 183.417 121.471 183.629 117.481 183.583C110.737 183.506 106.755 183.275 100.125 181.569C93.184 179.782 89.426 177.96 83.2703 174.54C77.1564 171.144 73.4747 169.033 68.4343 163.956C63.1569 158.641 61.1508 154.684 57.6833 148.372C53.6672 141.062 51.3191 136.607 49.532 128.289C47.3832 118.289 47.5812 112.086 49.5261 102.109C51.5993 91.474 54.4554 85.2511 60.78 76.4349C65.9956 69.1648 68.4306 65.9001 76.1208 60.3519C83.7513 54.8469 90.3997 51.4356 100.106 48.807ZM181.673 164.347C181.604 164.348 181.549 164.349 181.51 164.35C181.502 164.35 181.495 164.351 181.488 164.351H164.929L166.192 166.589L171.192 175.443L171.465 175.925L171.984 176.115C171.986 176.115 171.989 176.116 171.993 176.118C172.001 176.121 172.014 176.126 172.031 176.132C172.067 176.146 172.122 176.167 172.193 176.195C172.337 176.251 172.549 176.336 172.809 176.448C173.332 176.671 174.047 176.997 174.816 177.406C176.424 178.261 178.005 179.347 178.754 180.461C180.548 183.134 180.753 185.967 180.051 188.581C179.663 190.024 179.334 190.828 178.887 191.482C178.436 192.142 177.793 192.753 176.583 193.686C175.315 194.663 174.156 195.201 172.963 195.446C171.756 195.693 170.419 195.662 168.764 195.365C167.006 195.049 165.628 194.585 164.526 193.88C163.447 193.19 162.557 192.222 161.845 190.77C160.553 188.134 160.274 185.755 160.957 182.928C161.116 182.268 161.678 181.383 162.349 180.549C162.663 180.159 162.966 179.824 163.189 179.587C163.3 179.469 163.392 179.376 163.453 179.315C163.483 179.284 163.507 179.262 163.521 179.247L163.538 179.231L164.28 178.518L163.882 177.569V177.568L163.879 177.562C163.877 177.558 163.875 177.553 163.873 177.547C163.868 177.535 163.86 177.517 163.85 177.495C163.831 177.449 163.803 177.384 163.766 177.301C163.693 177.135 163.587 176.896 163.452 176.602C163.182 176.015 162.793 175.203 162.318 174.301C161.388 172.533 160.057 170.284 158.58 168.747C158.308 168.464 158.07 168.184 157.816 167.885C157.573 167.598 157.299 167.272 157 166.969C156.361 166.321 155.585 165.744 154.428 165.398C153.486 165.116 152.522 164.94 151.532 165.023C150.517 165.108 149.568 165.459 148.648 166.092C147.64 166.787 147 167.984 146.648 168.764C146.455 169.193 146.308 169.586 146.211 169.871C146.162 170.015 146.124 170.134 146.097 170.219C146.084 170.262 146.074 170.297 146.067 170.322C146.064 170.334 146.061 170.345 146.058 170.353C146.057 170.357 146.056 170.36 146.055 170.363C146.055 170.364 146.055 170.366 146.054 170.367L146.053 170.368V170.369L145.998 170.57L145.999 170.778V170.803C145.999 170.82 146 170.846 146 170.879C146 170.946 146 171.045 146.001 171.174C146.002 171.433 146.004 171.813 146.008 172.296C146.014 173.264 146.024 174.649 146.039 176.317C146.068 179.653 146.115 184.124 146.188 188.665C146.262 193.204 146.361 197.822 146.494 201.445C146.56 203.254 146.636 204.829 146.721 206.027C146.764 206.624 146.811 207.143 146.862 207.558C146.906 207.915 146.971 208.355 147.095 208.685C147.722 210.34 148.974 212.093 149.979 213.355C150.496 214.004 150.978 214.559 151.33 214.952C151.506 215.148 151.651 215.305 151.753 215.414C151.804 215.469 151.845 215.512 151.873 215.541C151.887 215.556 151.897 215.568 151.905 215.577L151.919 215.59L152.999 214.549L151.92 215.591L151.936 215.608L151.953 215.625L193.421 255.929C193.438 255.948 193.46 255.972 193.486 256C193.549 256.068 193.639 256.162 193.751 256.274C193.973 256.498 194.289 256.802 194.665 257.12C195.36 257.71 196.471 258.538 197.669 258.808C198.634 259.026 199.599 258.877 200.413 258.632C201.238 258.383 202.02 258.001 202.675 257.624C203.334 257.245 203.902 256.85 204.303 256.552C204.505 256.402 204.669 256.274 204.783 256.182C204.84 256.136 204.886 256.099 204.918 256.073C204.934 256.059 204.946 256.048 204.956 256.04C204.96 256.037 204.965 256.033 204.968 256.031C204.969 256.029 204.97 256.028 204.971 256.027L204.973 256.026V256.025L203.999 254.885L204.974 256.025L205.031 255.976L205.082 255.922L237.582 221.982L237.653 221.908L237.714 221.825L236.499 220.944L237.714 221.824L237.716 221.822C237.716 221.821 237.717 221.819 237.718 221.818C237.719 221.815 237.722 221.812 237.724 221.808C237.73 221.8 237.737 221.791 237.746 221.779C237.763 221.755 237.786 221.722 237.813 221.681C237.868 221.599 237.944 221.484 238.032 221.341C238.207 221.057 238.438 220.654 238.665 220.172C239.1 219.248 239.601 217.86 239.495 216.408C239.364 214.617 238.211 212.95 237.335 211.889C236.867 211.323 236.408 210.848 236.067 210.516C235.896 210.349 235.752 210.216 235.649 210.122C235.598 210.076 235.557 210.038 235.527 210.012C235.523 210.008 235.519 210.005 235.515 210.001L196.587 171.703C196.582 171.698 196.577 171.693 196.572 171.687C196.54 171.651 196.492 171.598 196.431 171.532C196.311 171.399 196.136 171.209 195.919 170.979C195.484 170.518 194.871 169.888 194.159 169.212C192.78 167.903 190.873 166.268 189.12 165.47C187.608 164.782 185.63 164.525 184.167 164.419C183.409 164.365 182.734 164.348 182.25 164.345C182.007 164.343 181.811 164.345 181.673 164.347Z" fill="#122231"/>
<path d="M75.4987 96.9854C75.4987 96.9854 69.7185 95.3203 68.4987 95.5097C66.3423 95.8447 65.4363 98.3082 64.4987 100.921C63.4565 103.824 63.5739 106.696 63.4988 109.775C63.452 111.695 63.7497 113.271 63.9988 115.186C64.4266 118.475 64.5123 119.393 65.4988 122.564C66.3692 125.362 67.0808 126.959 68.4987 129.451C70.123 132.305 70.9495 133.745 73.4987 135.845C76.2467 138.11 78.5976 139.651 81.9987 140.764C86.0915 142.104 89.2008 142.6 93.4987 142.24C98.3627 141.833 101.359 140.781 105.999 139.289C109.345 138.212 110.587 137.681 113.999 136.829C115.929 136.347 117.008 135.817 118.999 135.845C121.654 135.883 122.47 136.031 124.999 136.829C127.35 137.572 128.656 138.52 130.999 139.289C135.099 140.633 137.195 140.863 141.499 141.256C145.213 141.595 148.435 141.358 151.999 140.272C156.605 138.869 160.261 137.394 163.499 133.878C166.841 130.248 168.105 127.266 169.499 122.564C170.984 117.554 171.499 109.283 170.999 103.872C170.554 99.055 169.499 96.4934 167.499 95.5097C165.889 94.7177 156.499 97.9691 156.499 97.9691C151.605 99.2691 147.945 100.322 142.999 101.412C136.828 102.773 135.765 103.035 129.499 103.872C124.627 104.523 120.415 104.813 115.499 104.856C110.194 104.902 106.233 104.721 100.999 103.872C94.2693 102.781 75.4987 96.9854 75.4987 96.9854Z" fill="white" stroke="#122231" stroke-width="3"/>
<path d="M88.9988 113.218C88.9988 113.218 86.7916 113.671 85.4988 115.186C84.6565 116.172 84.3263 117.381 83.999 118.629C83.6086 120.117 83.5601 121.089 83.9989 122.564C84.5474 124.408 85.4834 125.288 86.9989 126.499C88.3543 127.583 89.3139 128.015 90.9989 128.467C93.2594 129.073 95.2685 129.174 97.4988 128.467C98.9972 127.992 99.6776 127.764 100.499 126.499C101.765 124.55 102.128 122.825 101.499 120.596C100.933 118.594 100.54 117.349 98.4989 115.677C96.4573 114.006 95.9988 113.71 93.9988 113.218C91.9988 112.726 88.9988 113.218 88.9988 113.218Z" fill="#122231"/>
<path d="M135.499 117.153C133.999 119.121 133.499 119.613 132.999 121.58C132.499 123.548 133.196 124.949 133.999 126.499C135.155 128.731 138.499 128.959 138.499 128.959C138.499 128.959 142.325 129.327 144.499 128.467C146.425 127.705 148.499 126.007 148.499 126.007C148.499 126.007 149.69 124.975 150.499 123.056C151.116 121.593 151.622 120.208 151.499 118.629C151.404 117.418 151.192 116.191 150.499 115.186C149.465 113.686 147.499 113.218 147.499 113.218C147.499 113.218 144.391 112.743 142.499 113.218C140.551 113.707 139.499 114.202 139.499 114.202C139.499 114.202 136.999 115.186 135.499 117.153Z" fill="#122231"/>
<path d="M88.9988 113.218C88.9988 113.218 86.7916 113.671 85.4988 115.186C84.6565 116.172 84.3263 117.381 83.999 118.629C83.6086 120.117 83.5601 121.089 83.9989 122.564C84.5474 124.408 85.4834 125.288 86.9989 126.499C88.3543 127.583 89.3139 128.015 90.9989 128.467C93.2594 129.073 95.2685 129.174 97.4988 128.467C98.9972 127.992 99.6776 127.764 100.499 126.499C101.765 124.55 102.128 122.825 101.499 120.596C100.933 118.594 100.54 117.349 98.4989 115.677C96.4573 114.006 95.9988 113.71 93.9988 113.218C91.9988 112.726 88.9988 113.218 88.9988 113.218Z" stroke="#122231" stroke-width="3"/>
<path d="M135.499 117.153C133.999 119.121 133.499 119.613 132.999 121.58C132.499 123.548 133.196 124.949 133.999 126.499C135.155 128.731 138.499 128.959 138.499 128.959C138.499 128.959 142.325 129.327 144.499 128.467C146.425 127.705 148.499 126.007 148.499 126.007C148.499 126.007 149.69 124.975 150.499 123.056C151.116 121.593 151.622 120.208 151.499 118.629C151.404 117.418 151.192 116.191 150.499 115.186C149.465 113.686 147.499 113.218 147.499 113.218C147.499 113.218 144.391 112.743 142.499 113.218C140.551 113.707 139.499 114.202 139.499 114.202C139.499 114.202 136.999 115.186 135.499 117.153Z" stroke="#122231" stroke-width="3"/>
<path d="M192.979 189.82L207.479 241.469L207.547 241.708L207.396 241.906L204.396 245.842L203.791 246.636L203.518 245.676L188.518 193.043L188.429 192.732L188.676 192.524L192.176 189.573L192.77 189.072L192.979 189.82ZM210.383 207.668C211.787 207.335 212.71 207.335 214.114 207.668C215.442 207.983 216.618 208.482 217.766 209.208C218.348 209.577 218.884 210.108 219.264 210.529C219.456 210.742 219.614 210.934 219.725 211.073C219.78 211.142 219.823 211.199 219.854 211.239C219.864 211.253 219.874 211.266 219.881 211.276L219.883 211.278C219.884 211.279 219.885 211.281 219.887 211.282C219.89 211.286 219.894 211.293 219.9 211.3C219.913 211.315 219.931 211.336 219.953 211.364C219.998 211.419 220.061 211.499 220.139 211.599C220.293 211.799 220.504 212.084 220.73 212.422C221.178 213.09 221.711 214.001 221.978 214.899C222.378 216.249 222.498 217.078 222.498 218.485C222.498 219.216 222.364 219.995 222.236 220.577C222.172 220.871 222.107 221.121 222.059 221.298C222.034 221.386 222.014 221.457 221.999 221.506C221.992 221.531 221.986 221.55 221.982 221.564C221.98 221.57 221.979 221.576 221.978 221.579C221.977 221.581 221.976 221.582 221.976 221.583V221.585L221.974 221.592L221.973 221.594C221.972 221.595 221.972 221.596 221.972 221.597C221.971 221.6 221.969 221.605 221.967 221.611C221.963 221.622 221.958 221.638 221.951 221.657C221.937 221.697 221.916 221.755 221.891 221.824C221.839 221.965 221.764 222.16 221.67 222.375C221.488 222.793 221.212 223.345 220.875 223.732C220.515 224.145 220.246 224.457 219.925 224.705C219.592 224.963 219.223 225.14 218.675 225.347C217.118 225.934 216.08 225.998 214.459 225.869C213.485 225.792 212.446 225.535 211.664 225.304C211.27 225.187 210.935 225.075 210.698 224.992C210.58 224.951 210.486 224.916 210.421 224.892C210.388 224.88 210.362 224.871 210.345 224.865C210.336 224.861 210.33 224.858 210.325 224.857C210.323 224.856 210.321 224.854 210.319 224.854H210.317L210.263 224.832L210.214 224.798H210.213L210.211 224.797C210.21 224.796 210.207 224.794 210.205 224.792C210.2 224.789 210.193 224.784 210.185 224.778C210.167 224.765 210.141 224.746 210.108 224.723C210.043 224.675 209.948 224.607 209.832 224.518C209.599 224.34 209.275 224.082 208.909 223.764C208.182 223.131 207.271 222.238 206.584 221.225C205.59 219.759 204.747 218.592 204.502 216.577C204.305 214.958 204.434 213.921 205.033 212.399C205.561 211.058 206.028 210.226 207.174 209.249C208.234 208.346 209.046 207.986 210.383 207.668ZM179.847 207.678C181.034 207.301 182.055 207.193 183.075 207.304C184.086 207.414 185.072 207.737 186.185 208.183C187.93 208.883 188.952 209.434 190.341 210.742C190.943 211.309 191.336 211.694 191.646 212.147C191.957 212.602 192.172 213.105 192.466 213.88C192.982 215.241 192.998 216.129 192.998 217.5C192.998 218.833 193.072 219.796 192.453 221.152C191.956 222.242 191.813 222.811 190.849 223.76C190.394 224.208 190.03 224.512 189.611 224.754C189.197 224.993 188.751 225.158 188.154 225.354C187.387 225.606 186.823 225.743 186.265 225.813C185.712 225.881 185.18 225.881 184.491 225.871C183.583 225.859 182.936 225.816 182.304 225.66C181.671 225.505 181.079 225.244 180.271 224.833C178.86 224.116 178.059 223.504 177.099 222.229C176.231 221.076 175.442 220.139 175.017 218.619C174.838 217.979 174.71 217.551 174.629 217.119C174.545 216.676 174.51 216.233 174.498 215.542C174.47 213.996 174.429 212.964 175.032 211.416C175.485 210.254 175.933 210.047 176.631 209.291C177.692 208.143 178.584 208.079 179.847 207.678ZM210.417 211.682C210.382 211.682 210.333 211.683 210.272 211.685C210.152 211.689 209.986 211.699 209.799 211.72C209.447 211.759 208.942 211.845 208.562 212.067C208.053 212.363 207.806 212.866 207.694 213.357C207.583 213.846 207.592 214.384 207.642 214.862C207.692 215.344 207.787 215.796 207.868 216.124C207.909 216.289 207.948 216.426 207.976 216.521C207.989 216.568 208.001 216.605 208.009 216.631C208.013 216.644 208.017 216.656 208.02 216.663C208.021 216.666 208.021 216.669 208.021 216.671C208.022 216.672 208.022 216.673 208.022 216.674V216.675L208.04 216.72L208.042 216.723C208.043 216.725 208.045 216.73 208.047 216.735C208.051 216.744 208.057 216.759 208.065 216.777C208.082 216.813 208.105 216.865 208.135 216.93C208.194 217.06 208.278 217.241 208.376 217.445C208.57 217.848 208.83 218.359 209.073 218.749C209.437 219.332 209.853 219.739 210.232 220.059C210.419 220.215 210.603 220.357 210.756 220.478C210.915 220.603 211.043 220.706 211.146 220.808C211.445 221.102 211.867 221.375 212.312 221.625C212.764 221.879 213.277 222.131 213.773 222.375H213.774L213.775 222.376C214.294 222.632 215.167 222.981 216.023 223.196C216.452 223.303 216.895 223.381 217.299 223.391C217.687 223.401 218.119 223.35 218.456 223.117C218.671 222.969 218.796 222.755 218.868 222.554C218.941 222.353 218.974 222.131 218.986 221.915C219.011 221.485 218.956 220.993 218.882 220.547C218.806 220.097 218.706 219.667 218.624 219.353C218.583 219.195 218.547 219.064 218.521 218.973L218.48 218.837C218.48 218.834 218.478 218.832 218.478 218.83L218.477 218.827L218.478 218.826H218.477L218.467 218.795L218.453 218.765L218.452 218.764L218.447 218.751C218.443 218.742 218.437 218.728 218.429 218.711C218.413 218.677 218.389 218.628 218.36 218.567C218.302 218.444 218.219 218.271 218.122 218.073C217.929 217.68 217.673 217.175 217.433 216.757C216.687 215.463 216.144 214.596 214.787 213.648C214.077 213.152 213.123 212.409 212.149 212.105C211.791 211.993 211.397 211.89 211.097 211.816C210.946 211.778 210.815 211.748 210.724 211.727C210.678 211.716 210.641 211.707 210.616 211.701C210.604 211.699 210.594 211.697 210.587 211.696L210.576 211.694L210.577 211.693L210.526 211.682H210.476L210.47 211.681C210.467 211.681 210.463 211.681 210.458 211.681C210.448 211.681 210.434 211.682 210.417 211.682ZM181.81 211.218C181.137 211.078 180.731 210.948 179.904 211.106C179.555 211.172 179.171 211.294 178.836 211.491C178.501 211.689 178.18 211.985 178.027 212.413C177.506 213.88 177.955 215.162 178.536 216.553C178.94 217.519 179.336 218.017 179.965 218.79C180.371 219.289 180.962 219.841 181.436 220.257C181.675 220.467 181.891 220.648 182.047 220.777C182.124 220.84 182.188 220.892 182.231 220.927C182.253 220.944 182.27 220.958 182.282 220.967C182.288 220.972 182.293 220.976 182.296 220.979C182.297 220.98 182.299 220.981 182.3 220.982H182.301V220.983L182.321 220.998L182.344 221.013H182.345L182.346 221.014C182.347 221.015 182.348 221.016 182.35 221.017C182.353 221.019 182.36 221.022 182.366 221.027C182.38 221.035 182.399 221.048 182.424 221.063C182.474 221.094 182.547 221.137 182.638 221.191C182.819 221.297 183.074 221.442 183.367 221.596C183.944 221.899 184.713 222.259 185.386 222.414C186.018 222.56 186.776 222.766 187.442 222.828C188.101 222.89 188.86 222.832 189.371 222.26C189.876 221.694 189.874 220.849 189.742 220.114C189.604 219.341 189.29 218.503 188.951 217.78C188.667 217.174 188.141 216.401 187.707 215.803C187.486 215.499 187.282 215.231 187.133 215.038C187.059 214.942 186.997 214.864 186.955 214.811C186.934 214.784 186.918 214.763 186.906 214.749C186.901 214.742 186.897 214.736 186.894 214.733L186.889 214.728V214.727L186.883 214.72H186.882V214.719L186.881 214.718C186.88 214.717 186.88 214.716 186.879 214.715C186.876 214.712 186.872 214.707 186.868 214.702C186.859 214.692 186.846 214.677 186.83 214.657C186.797 214.618 186.748 214.562 186.688 214.493C186.567 214.356 186.396 214.165 186.197 213.954C185.805 213.539 185.277 213.017 184.791 212.667C183.785 211.943 182.913 211.448 181.81 211.218Z" fill="#122231"/>
<path d="M605.37 125V48H617.91L655.64 104.43V48H668.18V125H655.64L617.91 68.68V125H605.37ZM685.129 125V48H697.669V125H685.129ZM714.614 125V48H727.154L764.884 104.43V48H777.424V125H764.884L727.154 68.68V125H714.614ZM813.512 126.32C806.252 126.32 800.459 124.267 796.132 120.16C791.806 116.053 789.642 110.26 789.642 102.78H802.072C802.146 106.447 803.026 109.453 804.712 111.8C806.472 114.073 809.332 115.21 813.292 115.21C817.106 115.21 819.819 114.11 821.432 111.91C823.046 109.71 823.852 106.887 823.852 103.44V48H836.282V103.44C836.282 110.7 834.229 116.347 830.122 120.38C826.089 124.34 820.552 126.32 813.512 126.32ZM845.121 125L873.281 48H887.141L915.301 125H902.101L895.721 106.74H864.591L858.101 125H845.121ZM868.221 96.73H892.201L880.101 62.63L868.221 96.73Z" fill="#F67E2E"/>
</g>
<defs>
<clipPath id="clip0_124_89">
<rect width="923" height="283" fill="white"/>
</clipPath>
</defs>
</svg>
