<svg width="364" height="382" viewBox="0 0 364 382" fill="none" xmlns="http://www.w3.org/2000/svg">
<path d="M359.4 289.083C352.46 280.218 342.681 271.948 334.287 264.092L291.696 224.085C291.696 224.085 275.609 211.009 270.53 209.017C261.742 206.616 253.254 207.225 244.186 207.416C266.049 176.279 267.747 134.319 247.969 101.989C200.852 24.9466 80.0817 39.9542 54.332 124.444C45.9701 151.888 51.989 178.215 67.0572 202.501C81.4848 223.698 102.216 238.653 128.41 245.196C147.795 250.042 165.267 248.645 184.661 245.37C184.806 253.578 184.652 263.122 184.694 271.257C184.792 290.536 185.695 295.447 199.781 308.667C184.984 324.179 170.697 339.721 155.708 355.212C141.524 340.287 127.882 325.427 113.908 310.133C74.9842 267.537 32.5481 215.916 26.1504 158.387C22.6523 126.902 34.517 91.2624 56.8761 67.5462C82.6913 40.176 111.743 27.7393 150.003 24.7813C170.968 23.7939 195.016 28.0308 213.732 37.0049C279.406 68.4815 302.069 136.502 276.011 197.611C280.075 199.129 287.239 202.944 297.841 212.514C319.625 166.644 316.726 110.598 288.502 67.842C236.25 -11.328 112.678 -23.5994 43.875 43.7038C24.5697 62.5915 11.3301 85.603 4.77338 110.285C4.7687 110.298 4.76403 110.307 4.76403 110.315C4.65179 110.729 4.53955 111.146 4.43666 111.564C4.37586 111.794 4.31974 112.029 4.26362 112.26C-0.118413 129.725 -1.16599 147.986 1.322 166.187C10.4555 233.255 62.1608 291.123 108.067 340.348L129.074 362.628C133.854 367.657 138.802 373.308 144.405 377.475C151.798 383.147 162.592 382.839 169.369 376.296C186.018 360.214 202.942 342.701 217.585 325.071L249.461 354.577C255.761 360.388 262.327 367.009 269.318 371.907C279.158 378.806 294.1 377.001 302.612 369.071C313.475 358.966 324.134 348.856 334.619 338.425C343.013 330.073 352.381 322.361 359.854 313.308C364.545 306.331 364.732 295.904 359.4 289.083ZM340.343 308.623C327.688 320.694 315.168 332.883 302.691 345.111C298.435 349.287 294.058 353.841 288.937 357.082C285.055 359.531 279.546 358.057 276.436 355.186C266.966 346.847 257.795 338.112 248.577 329.582L222.514 305.426C217.094 300.389 209.63 294.795 205.847 288.639C204.439 286.36 203.948 283.467 203.639 280.879C203.101 276.403 202.685 233.851 203.691 230.575C203.7 230.549 203.705 230.523 203.714 230.497C204.808 227.035 209.036 225.286 212.534 226.848C218.773 229.636 222.921 236.5 226.952 241.651C223.665 246.718 220.307 253.278 222.912 259.064C232.148 279.626 264.478 268.36 255.012 246.497C253.025 241.903 248.442 239.819 243.732 238.088C240.721 233.507 238.424 230.219 235.024 225.817C244.158 225.717 254.484 225.347 263.603 225.995C266.648 226.212 269.636 227.574 271.872 229.497C282.773 238.88 293.403 249.502 303.865 259.316L328.272 282.149C332.86 286.443 339.253 292.05 343.018 296.73C345.515 301.337 344.239 304.913 340.343 308.623Z" fill="url(#paint0_linear_215_228)"/>
<path d="M80.0439 122.456C86.819 123.827 96.2366 126.592 102.546 128.49C132.784 137.592 161.992 139.986 192.948 132.384C195.534 131.749 204.881 129.252 213.86 126.988C218.367 125.852 222.797 124.771 226.285 123.998C228.03 123.612 229.528 123.305 230.678 123.107C231.253 123.009 231.73 122.939 232.101 122.9C232.261 122.884 232.389 122.874 232.488 122.869C233.439 123.796 233.842 124.842 234.095 126.235L234.203 126.909C236.821 145.169 236.337 158.836 225.141 173.783C216.017 183.107 202.369 186.763 189.062 183.686L188.428 183.534C182.835 182.15 178.256 180.55 173.325 179.19C168.758 177.931 164.069 176.938 158.477 176.696L157.346 176.658L156.619 176.647C149.153 176.6 142.779 178.59 136.588 180.603C130.168 182.69 123.962 184.793 116.725 184.923H116.711L116.697 184.924C105.763 185.41 97.1261 182.487 90.6621 177.119C84.1868 171.742 79.8065 163.838 77.5332 154.225C76.609 150.315 76.0927 143.936 76.4453 137.634C76.6213 134.489 77.0127 131.391 77.666 128.651C78.2542 126.185 79.0444 124.06 80.0439 122.456Z" fill="#FEFEFE" stroke="black" stroke-width="2"/>
<path d="M196.4 143.928C216.959 142.344 216.262 168.036 194.024 171.898C172.058 172.433 174.644 147.686 196.4 143.928Z" fill="#0D0D0E"/>
<path d="M113.749 143.971C134.584 145.303 142.473 167.583 121.994 171.977C100.65 172.225 91.998 147.108 113.749 143.971Z" fill="#0D0D0E"/>
<path d="M264.127 312.847C261.195 313.565 258.389 313.504 255.7 312.669C253.011 311.829 250.757 310.507 248.938 308.697C247.118 306.888 245.851 304.73 245.14 302.229C244.429 299.727 244.584 297.113 245.603 294.39C246.202 292.724 247.31 291.141 248.928 289.64C250.546 288.143 252.281 287.091 254.133 286.477C257.066 285.538 259.872 285.403 262.561 286.073C265.25 286.743 267.565 287.93 269.501 289.627C271.442 291.328 272.84 293.442 273.705 295.969C274.566 298.501 274.608 301.128 273.827 303.851C273.224 305.852 271.994 307.714 270.142 309.432C268.285 311.155 266.279 312.295 264.127 312.847ZM295.971 338.016L291.748 341.931L291.21 342.431L268.477 263.962L268.926 263.544L273.238 259.547L273.687 259.129L296.42 337.599L295.971 338.016ZM251.702 292.228C251.103 292.785 250.995 293.603 251.384 294.686C251.767 295.773 252.44 296.952 253.395 298.231C254.349 299.514 255.494 300.776 256.837 302.029C258.179 303.281 259.535 304.356 260.91 305.243C262.285 306.135 263.552 306.766 264.717 307.127C265.881 307.492 266.765 307.397 267.364 306.84C267.962 306.287 268.065 305.465 267.682 304.382C267.298 303.299 266.625 302.116 265.671 300.837C264.717 299.558 263.571 298.292 262.224 297.035C260.882 295.782 259.526 294.712 258.151 293.82C256.776 292.928 255.508 292.302 254.344 291.937C253.184 291.58 252.3 291.676 251.702 292.228ZM310.656 313.334C307.728 314.052 304.917 313.991 302.228 313.156C299.539 312.316 297.271 311.011 295.419 309.228C293.567 307.444 292.304 305.291 291.622 302.759C290.939 300.228 291.107 297.605 292.127 294.882C292.786 293.272 293.927 291.715 295.541 290.218C297.159 288.718 298.833 287.665 300.568 287.056C303.5 286.116 306.32 285.968 309.042 286.612C311.759 287.256 314.074 288.444 315.982 290.166C317.89 291.893 319.293 294.007 320.187 296.508C321.08 299.014 321.131 301.624 320.35 304.347C319.808 306.405 318.611 308.293 316.754 310.011C314.902 311.729 312.868 312.838 310.656 313.334ZM298.23 292.715C297.332 293.546 297.477 294.938 298.669 296.887C299.862 298.836 301.443 300.728 303.411 302.564C305.38 304.399 307.41 305.878 309.5 306.992C311.591 308.106 313.083 308.249 313.981 307.414C314.879 306.583 314.734 305.191 313.541 303.242C312.349 301.293 310.768 299.401 308.799 297.566C306.83 295.73 304.8 294.251 302.71 293.137C300.624 292.028 299.128 291.884 298.23 292.715Z" fill="white"/>
<defs>
<linearGradient id="paint0_linear_215_228" x1="181.693" y1="0" x2="181.693" y2="381.483" gradientUnits="userSpaceOnUse">
<stop stop-color="#D14A23"/>
<stop offset="1" stop-color="#F17B2B"/>
</linearGradient>
</defs>
</svg>
