<svg width="953" height="283" viewBox="0 0 953 283" fill="none" xmlns="http://www.w3.org/2000/svg">
<path d="M294.57 85.4C299.043 86.3533 302.637 88.59 305.35 92.11C308.063 95.5567 309.42 99.5167 309.42 103.99C309.42 110.443 307.147 115.577 302.6 119.39C298.127 123.13 291.857 125 283.79 125H247.82V47.78H282.58C290.427 47.78 296.55 49.5767 300.95 53.17C305.423 56.7633 307.66 61.64 307.66 67.8C307.66 72.3467 306.45 76.1233 304.03 79.13C301.683 82.1367 298.53 84.2267 294.57 85.4ZM266.63 79.02H278.95C282.03 79.02 284.377 78.36 285.99 77.04C287.677 75.6467 288.52 73.63 288.52 70.99C288.52 68.35 287.677 66.3333 285.99 64.94C284.377 63.5467 282.03 62.85 278.95 62.85H266.63V79.02ZM280.49 109.82C283.643 109.82 286.063 109.123 287.75 107.73C289.51 106.263 290.39 104.173 290.39 101.46C290.39 98.7467 289.473 96.62 287.64 95.08C285.88 93.54 283.423 92.77 280.27 92.77H266.63V109.82H280.49ZM362.35 125.77C355.09 125.77 348.416 124.083 342.33 120.71C336.316 117.337 331.513 112.643 327.92 106.63C324.4 100.543 322.64 93.7233 322.64 86.17C322.64 78.6167 324.4 71.8333 327.92 65.82C331.513 59.8067 336.316 55.1133 342.33 51.74C348.416 48.3667 355.09 46.68 362.35 46.68C369.61 46.68 376.246 48.3667 382.26 51.74C388.346 55.1133 393.113 59.8067 396.56 65.82C400.08 71.8333 401.84 78.6167 401.84 86.17C401.84 93.7233 400.08 100.543 396.56 106.63C393.04 112.643 388.273 117.337 382.26 120.71C376.246 124.083 369.61 125.77 362.35 125.77ZM362.35 108.61C368.51 108.61 373.423 106.557 377.09 102.45C380.83 98.3433 382.7 92.9167 382.7 86.17C382.7 79.35 380.83 73.9233 377.09 69.89C373.423 65.7833 368.51 63.73 362.35 63.73C356.116 63.73 351.13 65.7467 347.39 69.78C343.723 73.8133 341.89 79.2767 341.89 86.17C341.89 92.99 343.723 98.4533 347.39 102.56C351.13 106.593 356.116 108.61 362.35 108.61ZM469.064 72.2C467.671 69.6333 465.654 67.69 463.014 66.37C460.448 64.9767 457.404 64.28 453.884 64.28C447.798 64.28 442.921 66.2967 439.254 70.33C435.588 74.29 433.754 79.6067 433.754 86.28C433.754 93.3933 435.661 98.9667 439.474 103C443.361 106.96 448.678 108.94 455.424 108.94C460.044 108.94 463.931 107.767 467.084 105.42C470.311 103.073 472.658 99.7 474.124 95.3H450.254V81.44H491.174V98.93C489.781 103.623 487.398 107.987 484.024 112.02C480.724 116.053 476.508 119.317 471.374 121.81C466.241 124.303 460.448 125.55 453.994 125.55C446.368 125.55 439.548 123.9 433.534 120.6C427.594 117.227 422.938 112.57 419.564 106.63C416.264 100.69 414.614 93.9067 414.614 86.28C414.614 78.6533 416.264 71.87 419.564 65.93C422.938 59.9167 427.594 55.26 433.534 51.96C439.474 48.5867 446.258 46.9 453.884 46.9C463.124 46.9 470.898 49.1367 477.204 53.61C483.584 58.0833 487.801 64.28 489.854 72.2H469.064ZM543.613 125.77C536.353 125.77 529.68 124.083 523.593 120.71C517.58 117.337 512.777 112.643 509.183 106.63C505.663 100.543 503.903 93.7233 503.903 86.17C503.903 78.6167 505.663 71.8333 509.183 65.82C512.777 59.8067 517.58 55.1133 523.593 51.74C529.68 48.3667 536.353 46.68 543.613 46.68C550.873 46.68 557.51 48.3667 563.523 51.74C569.61 55.1133 574.377 59.8067 577.823 65.82C581.343 71.8333 583.103 78.6167 583.103 86.17C583.103 93.7233 581.343 100.543 577.823 106.63C574.303 112.643 569.537 117.337 563.523 120.71C557.51 124.083 550.873 125.77 543.613 125.77ZM543.613 108.61C549.773 108.61 554.687 106.557 558.353 102.45C562.093 98.3433 563.963 92.9167 563.963 86.17C563.963 79.35 562.093 73.9233 558.353 69.89C554.687 65.7833 549.773 63.73 543.613 63.73C537.38 63.73 532.393 65.7467 528.653 69.78C524.987 73.8133 523.153 79.2767 523.153 86.17C523.153 92.99 524.987 98.4533 528.653 102.56C532.393 106.593 537.38 108.61 543.613 108.61Z" fill="white"/>
<path d="M256.406 183L259.172 169.711L248.602 148.641H253.523L258.586 158.672C259.695 160.859 260.773 163.203 261.82 165.703C262.977 163.578 264.555 161.258 266.555 158.742L274.617 148.641H280.102L263.695 170.062L261 183H256.406ZM275.167 173.555C275.167 168.695 276.597 164.672 279.457 161.484C281.816 158.859 284.91 157.547 288.738 157.547C291.738 157.547 294.152 158.484 295.98 160.359C297.824 162.234 298.746 164.766 298.746 167.953C298.746 170.812 298.167 173.477 297.011 175.945C295.855 178.398 294.207 180.281 292.066 181.594C289.941 182.906 287.699 183.562 285.339 183.562C283.402 183.562 281.636 183.148 280.042 182.32C278.464 181.492 277.253 180.32 276.41 178.805C275.582 177.289 275.167 175.539 275.167 173.555ZM279.41 173.133C279.41 175.477 279.972 177.258 281.097 178.477C282.222 179.68 283.652 180.281 285.386 180.281C286.292 180.281 287.191 180.102 288.082 179.742C288.972 179.367 289.8 178.805 290.566 178.055C291.332 177.305 291.98 176.453 292.511 175.5C293.058 174.531 293.496 173.492 293.824 172.383C294.308 170.836 294.55 169.352 294.55 167.93C294.55 165.68 293.98 163.938 292.839 162.703C291.714 161.453 290.292 160.828 288.574 160.828C287.246 160.828 286.035 161.148 284.941 161.789C283.847 162.414 282.855 163.336 281.964 164.555C281.089 165.773 280.441 167.195 280.019 168.82C279.613 170.43 279.41 171.867 279.41 173.133ZM318.608 178.5C315.624 181.875 312.569 183.562 309.444 183.562C307.522 183.562 305.968 183.016 304.78 181.922C303.608 180.812 303.022 179.461 303.022 177.867C303.022 176.82 303.288 175.023 303.819 172.477L306.819 158.109H311.062L307.733 174.023C307.452 175.352 307.312 176.383 307.312 177.117C307.312 178.055 307.593 178.789 308.155 179.32C308.733 179.836 309.577 180.094 310.687 180.094C311.874 180.094 313.03 179.805 314.155 179.227C315.296 178.648 316.272 177.867 317.085 176.883C317.913 175.898 318.585 174.734 319.101 173.391C319.444 172.531 319.843 171.023 320.296 168.867L322.546 158.109H326.788L321.585 183H317.671L318.608 178.5ZM328.815 183L334.018 158.109H337.768L336.713 163.195C337.995 161.273 339.245 159.852 340.463 158.93C341.698 158.008 342.956 157.547 344.237 157.547C345.081 157.547 346.12 157.852 347.354 158.461L345.62 162.398C344.885 161.867 344.081 161.602 343.206 161.602C341.721 161.602 340.198 162.43 338.635 164.086C337.073 165.742 335.846 168.719 334.956 173.016L332.846 183H328.815ZM359.869 183L367.064 148.641H371.517L377.306 161.531C379.072 165.469 380.47 168.781 381.502 171.469C382.095 173.031 382.783 175.141 383.564 177.797C383.986 174.906 384.517 171.922 385.158 168.844L389.377 148.641H393.853L386.681 183H382.134L373.603 163.148C372.088 159.648 370.908 156.562 370.064 153.891C369.83 156.125 369.377 158.867 368.705 162.117L364.345 183H359.869ZM412.568 174.539L416.693 174.961C416.099 177.008 414.732 178.953 412.591 180.797C410.466 182.641 407.927 183.562 404.974 183.562C403.13 183.562 401.435 183.141 399.888 182.297C398.357 181.438 397.185 180.195 396.372 178.57C395.575 176.945 395.177 175.094 395.177 173.016C395.177 170.297 395.802 167.664 397.052 165.117C398.318 162.555 399.95 160.656 401.95 159.422C403.95 158.172 406.114 157.547 408.443 157.547C411.411 157.547 413.778 158.469 415.544 160.312C417.325 162.156 418.216 164.672 418.216 167.859C418.216 169.078 418.107 170.328 417.888 171.609H399.56C399.497 172.094 399.466 172.531 399.466 172.922C399.466 175.25 399.997 177.031 401.06 178.266C402.138 179.484 403.45 180.094 404.997 180.094C406.45 180.094 407.88 179.617 409.286 178.664C410.693 177.711 411.786 176.336 412.568 174.539ZM400.239 168.375H414.208C414.224 167.938 414.232 167.625 414.232 167.438C414.232 165.312 413.7 163.688 412.638 162.562C411.575 161.422 410.208 160.852 408.536 160.852C406.724 160.852 405.068 161.477 403.568 162.727C402.083 163.977 400.974 165.859 400.239 168.375ZM427.508 153.445L428.516 148.641H432.735L431.727 153.445H427.508ZM421.321 183L426.524 158.109H430.766L425.563 183H421.321ZM432.418 185.25L436.707 185.648C436.676 186.617 436.793 187.344 437.059 187.828C437.324 188.312 437.746 188.688 438.324 188.953C439.09 189.297 440.082 189.469 441.301 189.469C443.863 189.469 445.707 188.805 446.832 187.477C447.567 186.586 448.246 184.648 448.871 181.664L449.293 179.648C447.09 181.883 444.746 183 442.262 183C439.746 183 437.637 182.078 435.934 180.234C434.246 178.375 433.402 175.75 433.402 172.359C433.402 169.562 434.067 166.992 435.395 164.648C436.738 162.305 438.332 160.539 440.176 159.352C442.02 158.148 443.918 157.547 445.871 157.547C449.137 157.547 451.652 159.094 453.418 162.188L454.262 158.109H458.152L453.137 182.133C452.59 184.773 451.871 186.828 450.981 188.297C450.09 189.781 448.848 190.93 447.254 191.742C445.676 192.555 443.848 192.961 441.77 192.961C439.77 192.961 438.043 192.703 436.59 192.188C435.152 191.672 434.074 190.914 433.356 189.914C432.652 188.93 432.301 187.797 432.301 186.516C432.301 186.125 432.34 185.703 432.418 185.25ZM437.715 171.984C437.715 173.688 437.879 174.969 438.207 175.828C438.676 177.031 439.34 177.953 440.199 178.594C441.074 179.219 442.043 179.531 443.106 179.531C444.496 179.531 445.879 179.047 447.254 178.078C448.629 177.094 449.738 175.578 450.582 173.531C451.442 171.484 451.871 169.531 451.871 167.672C451.871 165.625 451.301 164 450.16 162.797C449.035 161.578 447.637 160.969 445.965 160.969C444.934 160.969 443.934 161.25 442.965 161.812C441.996 162.359 441.09 163.203 440.246 164.344C439.418 165.469 438.785 166.82 438.348 168.398C437.926 169.977 437.715 171.172 437.715 171.984ZM459.851 183L467.023 148.641H471.265L468.523 161.836C470.101 160.305 471.57 159.211 472.929 158.555C474.289 157.883 475.687 157.547 477.125 157.547C479.187 157.547 480.789 158.094 481.929 159.188C483.07 160.266 483.64 161.695 483.64 163.477C483.64 164.352 483.39 165.961 482.89 168.305L479.82 183H475.578L478.742 167.93C479.195 165.742 479.422 164.367 479.422 163.805C479.422 162.992 479.14 162.328 478.578 161.812C478.015 161.297 477.203 161.039 476.14 161.039C474.609 161.039 473.148 161.445 471.758 162.258C470.367 163.055 469.273 164.156 468.476 165.562C467.695 166.953 466.976 169.203 466.32 172.312L464.093 183H459.851ZM487.05 183L494.222 148.641H498.464L495.909 160.922C497.253 159.688 498.472 158.82 499.566 158.32C500.659 157.805 501.8 157.547 502.988 157.547C505.316 157.547 507.253 158.414 508.8 160.148C510.363 161.883 511.144 164.406 511.144 167.719C511.144 169.922 510.831 171.938 510.206 173.766C509.581 175.594 508.808 177.133 507.886 178.383C506.964 179.617 506.011 180.609 505.027 181.359C504.042 182.094 503.034 182.641 502.003 183C500.972 183.375 499.98 183.562 499.027 183.562C497.386 183.562 495.941 183.133 494.691 182.273C493.441 181.398 492.464 180.07 491.761 178.289L490.777 183H487.05ZM493.331 172.781L493.308 173.578C493.308 175.703 493.816 177.32 494.831 178.43C495.847 179.539 497.113 180.094 498.628 180.094C500.113 180.094 501.472 179.578 502.706 178.547C503.956 177.5 504.98 175.875 505.777 173.672C506.573 171.469 506.972 169.438 506.972 167.578C506.972 165.484 506.464 163.859 505.448 162.703C504.448 161.547 503.206 160.969 501.722 160.969C500.191 160.969 498.784 161.562 497.503 162.75C496.222 163.922 495.152 165.734 494.292 168.188C493.652 170.016 493.331 171.547 493.331 172.781ZM514.999 173.555C514.999 168.695 516.428 164.672 519.288 161.484C521.647 158.859 524.741 157.547 528.569 157.547C531.569 157.547 533.983 158.484 535.811 160.359C537.655 162.234 538.577 164.766 538.577 167.953C538.577 170.812 537.999 173.477 536.842 175.945C535.686 178.398 534.038 180.281 531.897 181.594C529.772 182.906 527.53 183.562 525.171 183.562C523.233 183.562 521.467 183.148 519.874 182.32C518.296 181.492 517.085 180.32 516.241 178.805C515.413 177.289 514.999 175.539 514.999 173.555ZM519.241 173.133C519.241 175.477 519.803 177.258 520.928 178.477C522.053 179.68 523.483 180.281 525.217 180.281C526.124 180.281 527.022 180.102 527.913 179.742C528.803 179.367 529.632 178.805 530.397 178.055C531.163 177.305 531.811 176.453 532.342 175.5C532.889 174.531 533.327 173.492 533.655 172.383C534.139 170.836 534.382 169.352 534.382 167.93C534.382 165.68 533.811 163.938 532.671 162.703C531.546 161.453 530.124 160.828 528.405 160.828C527.077 160.828 525.866 161.148 524.772 161.789C523.678 162.414 522.686 163.336 521.796 164.555C520.921 165.773 520.272 167.195 519.85 168.82C519.444 170.43 519.241 171.867 519.241 173.133ZM541.448 183L546.651 158.109H550.401L549.346 163.195C550.627 161.273 551.877 159.852 553.096 158.93C554.33 158.008 555.588 157.547 556.869 157.547C557.713 157.547 558.752 157.852 559.987 158.461L558.252 162.398C557.518 161.867 556.713 161.602 555.838 161.602C554.354 161.602 552.83 162.43 551.268 164.086C549.705 165.742 548.479 168.719 547.588 173.016L545.479 183H541.448ZM557.912 183L565.084 148.641H569.326L566.584 161.836C568.162 160.305 569.631 159.211 570.99 158.555C572.349 157.883 573.748 157.547 575.185 157.547C577.248 157.547 578.849 158.094 579.99 159.188C581.131 160.266 581.701 161.695 581.701 163.477C581.701 164.352 581.451 165.961 580.951 168.305L577.881 183H573.638L576.802 167.93C577.256 165.742 577.482 164.367 577.482 163.805C577.482 162.992 577.201 162.328 576.638 161.812C576.076 161.297 575.263 161.039 574.201 161.039C572.67 161.039 571.209 161.445 569.818 162.258C568.427 163.055 567.334 164.156 566.537 165.562C565.756 166.953 565.037 169.203 564.381 172.312L562.154 183H557.912ZM585.861 173.555C585.861 168.695 587.29 164.672 590.15 161.484C592.509 158.859 595.603 157.547 599.431 157.547C602.431 157.547 604.845 158.484 606.673 160.359C608.517 162.234 609.439 164.766 609.439 167.953C609.439 170.812 608.861 173.477 607.704 175.945C606.548 178.398 604.9 180.281 602.759 181.594C600.634 182.906 598.392 183.562 596.033 183.562C594.095 183.562 592.329 183.148 590.736 182.32C589.158 181.492 587.947 180.32 587.103 178.805C586.275 177.289 585.861 175.539 585.861 173.555ZM590.103 173.133C590.103 175.477 590.665 177.258 591.79 178.477C592.915 179.68 594.345 180.281 596.079 180.281C596.986 180.281 597.884 180.102 598.775 179.742C599.665 179.367 600.493 178.805 601.259 178.055C602.025 177.305 602.673 176.453 603.204 175.5C603.751 174.531 604.189 173.492 604.517 172.383C605.001 170.836 605.243 169.352 605.243 167.93C605.243 165.68 604.673 163.938 603.533 162.703C602.408 161.453 600.986 160.828 599.267 160.828C597.939 160.828 596.728 161.148 595.634 161.789C594.54 162.414 593.548 163.336 592.658 164.555C591.783 165.773 591.134 167.195 590.712 168.82C590.306 170.43 590.103 171.867 590.103 173.133ZM613.059 173.555C613.059 168.695 614.489 164.672 617.348 161.484C619.708 158.859 622.802 157.547 626.63 157.547C629.63 157.547 632.044 158.484 633.872 160.359C635.716 162.234 636.638 164.766 636.638 167.953C636.638 170.812 636.059 173.477 634.903 175.945C633.747 178.398 632.098 180.281 629.958 181.594C627.833 182.906 625.591 183.562 623.231 183.562C621.294 183.562 619.528 183.148 617.934 182.32C616.356 181.492 615.145 180.32 614.302 178.805C613.473 177.289 613.059 175.539 613.059 173.555ZM617.302 173.133C617.302 175.477 617.864 177.258 618.989 178.477C620.114 179.68 621.544 180.281 623.278 180.281C624.184 180.281 625.083 180.102 625.973 179.742C626.864 179.367 627.692 178.805 628.458 178.055C629.223 177.305 629.872 176.453 630.403 175.5C630.95 174.531 631.388 173.492 631.716 172.383C632.2 170.836 632.442 169.352 632.442 167.93C632.442 165.68 631.872 163.938 630.731 162.703C629.606 161.453 628.184 160.828 626.466 160.828C625.138 160.828 623.927 161.148 622.833 161.789C621.739 162.414 620.747 163.336 619.856 164.555C618.981 165.773 618.333 167.195 617.911 168.82C617.505 170.43 617.302 171.867 617.302 173.133ZM656.289 179.391C653.867 182.172 651.336 183.562 648.696 183.562C646.336 183.562 644.367 182.695 642.789 180.961C641.227 179.211 640.446 176.68 640.446 173.367C640.446 170.336 641.063 167.57 642.297 165.07C643.547 162.555 645.102 160.672 646.961 159.422C648.836 158.172 650.711 157.547 652.586 157.547C655.68 157.547 658.016 159.039 659.594 162.023L662.407 148.641H666.625L659.453 183H655.539L656.289 179.391ZM644.664 172.57C644.664 174.305 644.836 175.672 645.18 176.672C645.524 177.672 646.11 178.508 646.938 179.18C647.766 179.836 648.758 180.164 649.914 180.164C651.836 180.164 653.578 179.164 655.141 177.164C657.235 174.508 658.282 171.227 658.282 167.32C658.282 165.352 657.766 163.812 656.735 162.703C655.703 161.594 654.407 161.039 652.844 161.039C651.828 161.039 650.899 161.266 650.055 161.719C649.227 162.172 648.399 162.945 647.571 164.039C646.758 165.117 646.071 166.492 645.508 168.164C644.946 169.836 644.664 171.305 644.664 172.57ZM667.715 183L668.723 178.195H673.551L672.683 182.391C672.152 184.906 671.324 186.75 670.199 187.922C669.09 189.094 667.777 189.766 666.262 189.938L666.66 188.086C668.519 187.57 669.746 185.875 670.34 183H667.715ZM705.307 183L708.073 169.711L697.503 148.641H702.425L707.487 158.672C708.597 160.859 709.675 163.203 710.722 165.703C711.878 163.578 713.456 161.258 715.456 158.742L723.518 148.641H729.003L712.597 170.062L709.901 183H705.307ZM724.069 173.555C724.069 168.695 725.498 164.672 728.358 161.484C730.717 158.859 733.811 157.547 737.639 157.547C740.639 157.547 743.053 158.484 744.881 160.359C746.725 162.234 747.647 164.766 747.647 167.953C747.647 170.812 747.069 173.477 745.913 175.945C744.756 178.398 743.108 180.281 740.967 181.594C738.842 182.906 736.6 183.562 734.241 183.562C732.303 183.562 730.538 183.148 728.944 182.32C727.366 181.492 726.155 180.32 725.311 178.805C724.483 177.289 724.069 175.539 724.069 173.555ZM728.311 173.133C728.311 175.477 728.873 177.258 729.998 178.477C731.123 179.68 732.553 180.281 734.288 180.281C735.194 180.281 736.092 180.102 736.983 179.742C737.873 179.367 738.702 178.805 739.467 178.055C740.233 177.305 740.881 176.453 741.413 175.5C741.959 174.531 742.397 173.492 742.725 172.383C743.209 170.836 743.452 169.352 743.452 167.93C743.452 165.68 742.881 163.938 741.741 162.703C740.616 161.453 739.194 160.828 737.475 160.828C736.147 160.828 734.936 161.148 733.842 161.789C732.748 162.414 731.756 163.336 730.866 164.555C729.991 165.773 729.342 167.195 728.92 168.82C728.514 170.43 728.311 171.867 728.311 173.133ZM767.51 178.5C764.525 181.875 761.471 183.562 758.346 183.562C756.424 183.562 754.869 183.016 753.682 181.922C752.51 180.812 751.924 179.461 751.924 177.867C751.924 176.82 752.189 175.023 752.721 172.477L755.721 158.109H759.963L756.635 174.023C756.353 175.352 756.213 176.383 756.213 177.117C756.213 178.055 756.494 178.789 757.057 179.32C757.635 179.836 758.478 180.094 759.588 180.094C760.775 180.094 761.932 179.805 763.057 179.227C764.197 178.648 765.174 177.867 765.986 176.883C766.814 175.898 767.486 174.734 768.002 173.391C768.346 172.531 768.744 171.023 769.197 168.867L771.447 158.109H775.689L770.486 183H766.572L767.51 178.5ZM777.716 183L782.919 158.109H786.669L785.615 163.195C786.896 161.273 788.146 159.852 789.365 158.93C790.599 158.008 791.857 157.547 793.138 157.547C793.982 157.547 795.021 157.852 796.255 158.461L794.521 162.398C793.787 161.867 792.982 161.602 792.107 161.602C790.622 161.602 789.099 162.43 787.537 164.086C785.974 165.742 784.747 168.719 783.857 173.016L781.747 183H777.716ZM808.559 183L815.731 148.641H826.09C828.575 148.641 830.473 148.82 831.786 149.18C833.661 149.664 835.262 150.531 836.59 151.781C837.918 153.016 838.918 154.562 839.59 156.422C840.262 158.281 840.598 160.367 840.598 162.68C840.598 165.445 840.176 167.969 839.333 170.25C838.504 172.516 837.411 174.516 836.051 176.25C834.708 177.969 833.293 179.32 831.809 180.305C830.34 181.273 828.598 181.992 826.583 182.461C825.051 182.82 823.168 183 820.934 183H808.559ZM813.973 179.109H819.411C821.864 179.109 824.043 178.883 825.95 178.43C827.137 178.148 828.153 177.734 828.997 177.188C830.106 176.484 831.114 175.555 832.02 174.398C833.208 172.867 834.153 171.125 834.856 169.172C835.575 167.203 835.934 164.969 835.934 162.469C835.934 159.688 835.45 157.555 834.481 156.07C833.512 154.57 832.278 153.578 830.778 153.094C829.668 152.734 827.942 152.555 825.598 152.555H819.528L813.973 179.109ZM861.469 174.539L865.594 174.961C865 177.008 863.633 178.953 861.492 180.797C859.367 182.641 856.828 183.562 853.875 183.562C852.031 183.562 850.336 183.141 848.789 182.297C847.258 181.438 846.086 180.195 845.273 178.57C844.477 176.945 844.078 175.094 844.078 173.016C844.078 170.297 844.703 167.664 845.953 165.117C847.219 162.555 848.852 160.656 850.852 159.422C852.852 158.172 855.016 157.547 857.344 157.547C860.312 157.547 862.68 158.469 864.445 160.312C866.227 162.156 867.117 164.672 867.117 167.859C867.117 169.078 867.008 170.328 866.789 171.609H848.461C848.398 172.094 848.367 172.531 848.367 172.922C848.367 175.25 848.898 177.031 849.961 178.266C851.039 179.484 852.352 180.094 853.898 180.094C855.352 180.094 856.781 179.617 858.188 178.664C859.594 177.711 860.688 176.336 861.469 174.539ZM849.141 168.375H863.109C863.125 167.938 863.133 167.625 863.133 167.438C863.133 165.312 862.602 163.688 861.539 162.562C860.477 161.422 859.109 160.852 857.438 160.852C855.625 160.852 853.969 161.477 852.469 162.727C850.984 163.977 849.875 165.859 849.141 168.375ZM887.167 179.906C885.699 181.172 884.285 182.102 882.925 182.695C881.566 183.273 880.113 183.562 878.566 183.562C876.269 183.562 874.417 182.891 873.011 181.547C871.605 180.188 870.902 178.453 870.902 176.344C870.902 174.953 871.214 173.727 871.839 172.664C872.48 171.586 873.324 170.727 874.371 170.086C875.417 169.43 876.699 168.961 878.214 168.68C879.167 168.492 880.972 168.344 883.628 168.234C886.3 168.125 888.214 167.844 889.371 167.391C889.699 166.234 889.863 165.273 889.863 164.508C889.863 163.523 889.503 162.75 888.785 162.188C887.8 161.406 886.363 161.016 884.472 161.016C882.691 161.016 881.23 161.414 880.089 162.211C878.964 162.992 878.144 164.109 877.628 165.562L873.339 165.188C874.214 162.719 875.597 160.828 877.488 159.516C879.394 158.203 881.792 157.547 884.683 157.547C887.761 157.547 890.199 158.281 891.996 159.75C893.371 160.844 894.058 162.266 894.058 164.016C894.058 165.344 893.863 166.883 893.472 168.633L892.089 174.82C891.652 176.789 891.433 178.391 891.433 179.625C891.433 180.406 891.605 181.531 891.949 183H887.66C887.425 182.188 887.261 181.156 887.167 179.906ZM888.738 170.391C888.144 170.625 887.503 170.805 886.816 170.93C886.144 171.055 885.011 171.188 883.417 171.328C880.949 171.547 879.207 171.828 878.191 172.172C877.175 172.5 876.41 173.031 875.894 173.766C875.378 174.5 875.121 175.312 875.121 176.203C875.121 177.391 875.527 178.367 876.339 179.133C877.167 179.898 878.339 180.281 879.855 180.281C881.261 180.281 882.613 179.914 883.91 179.18C885.207 178.43 886.23 177.391 886.98 176.062C887.73 174.734 888.316 172.844 888.738 170.391ZM897.257 183L904.429 148.641H908.671L901.499 183H897.257ZM909.151 174.492L913.393 174.234C913.393 175.453 913.581 176.492 913.956 177.352C914.331 178.211 915.018 178.914 916.018 179.461C917.034 180.008 918.213 180.281 919.557 180.281C921.432 180.281 922.838 179.906 923.776 179.156C924.713 178.406 925.182 177.523 925.182 176.508C925.182 175.773 924.901 175.078 924.338 174.422C923.76 173.766 922.346 172.961 920.096 172.008C917.862 171.039 916.432 170.359 915.807 169.969C914.76 169.328 913.971 168.578 913.44 167.719C912.909 166.844 912.643 165.844 912.643 164.719C912.643 162.75 913.424 161.062 914.987 159.656C916.549 158.25 918.737 157.547 921.549 157.547C924.674 157.547 927.049 158.273 928.674 159.727C930.315 161.164 931.167 163.062 931.229 165.422L927.081 165.703C927.018 164.203 926.487 163.016 925.487 162.141C924.487 161.266 923.073 160.828 921.245 160.828C919.776 160.828 918.635 161.164 917.823 161.836C917.01 162.508 916.604 163.234 916.604 164.016C916.604 164.797 916.956 165.484 917.659 166.078C918.128 166.484 919.338 167.109 921.292 167.953C924.542 169.359 926.588 170.469 927.432 171.281C928.776 172.578 929.448 174.156 929.448 176.016C929.448 177.25 929.065 178.461 928.299 179.648C927.549 180.836 926.393 181.789 924.831 182.508C923.284 183.211 921.456 183.562 919.346 183.562C916.471 183.562 914.026 182.852 912.01 181.43C909.995 180.008 909.042 177.695 909.151 174.492Z" fill="#FEFEFE"/>
<path d="M101.774 4.02393C112.97 2.66742 119.463 2.64999 130.657 4.02393C143.741 5.62993 150.326 7.64126 162.166 13.3843C171.566 17.9436 177.442 21.0659 185.272 27.9439C193.427 35.1064 197.571 39.787 203.652 48.7446C209.792 57.7888 213.013 63.2901 216.255 73.7046C218.648 81.3942 219.081 85.9826 219.932 93.9849C221.154 105.497 221.199 112.118 219.932 123.625C219.073 131.426 218.46 135.849 216.255 143.385C215.047 147.513 212.585 153.769 212.579 153.786L198.4 145.986C198.4 145.986 202.566 132.526 203.652 123.625C204.857 113.747 204.678 108.675 203.652 99.1851C202.693 90.3143 202.029 85.2001 198.926 76.8247C195.254 66.9167 191.543 61.613 185.272 53.4243C178.788 44.9573 174.358 40.947 165.316 35.2241C158.192 30.7148 153.93 28.4468 145.887 25.8638C136.894 22.9758 131.691 21.2358 122.255 20.6636C112.376 20.0646 106.69 21.0502 97.0487 23.2642C87.2514 25.5141 81.7608 27.4085 72.8915 32.104C66.12 35.6889 63.2715 37.8308 57.663 43.0239C52.6566 47.6595 49.4748 50.9564 45.5848 56.5444L45.4032 56.8042C40.4598 63.9049 37.5342 68.1084 34.5565 76.3052C31.5886 84.4749 30.3318 89.5224 29.3055 98.145C28.2962 106.625 28.4435 112.529 29.3055 121.025C30.1509 129.356 31.9265 132.828 34.5565 140.786C37.3877 149.352 39.559 153.974 43.4842 162.106C48.0367 171.538 50.8083 176.254 56.6122 184.986C64.3072 196.563 69.1544 202.963 78.1434 213.586C85.6149 222.417 98.0985 236.467 98.0985 236.467L117.529 258.307L145.887 223.987L158.49 235.947L125.932 271.307C125.932 271.307 121.285 275.727 117.529 275.988C113.239 276.286 107.579 271.331 107.552 271.307L81.8192 243.227C81.7881 243.192 65.7854 225.346 56.6122 213.067C50.1171 204.373 46.6661 199.345 40.8583 190.186C35.1904 181.248 31.7899 176.313 27.2049 166.786C22.4862 156.98 20.2275 151.234 17.2274 140.786C14.7633 132.204 13.3734 127.305 12.5008 118.425C11.7262 110.543 11.952 106.046 12.5008 98.145C13.2712 87.054 14.518 80.5404 18.2772 70.0649C21.8121 60.2146 24.2434 55.1881 30.3553 46.6646C36.7447 37.7541 41.8356 32.3443 50.3104 25.3442C59.4932 17.7595 64.4052 14.638 75.5174 10.2642C85.3168 6.40715 91.3074 5.29213 101.774 4.02393Z" fill="white"/>
<path d="M100.106 48.807C108.6 46.5069 113.858 46.0897 122.618 46.7914C134.298 47.7269 141.42 50.1528 151.2 55.3236C158.724 59.3015 162.423 61.9869 168.083 67.9105C174.129 74.238 176.751 78.764 180.358 86.514C183.306 92.848 184.391 96.7938 185.479 103.636C186.138 107.774 186.132 113.062 185.973 117.247C185.893 119.354 185.773 121.208 185.673 122.536C185.623 123.2 185.578 123.734 185.545 124.103C185.529 124.287 185.515 124.43 185.506 124.528C185.501 124.576 185.498 124.614 185.495 124.64C185.494 124.652 185.493 124.663 185.492 124.669C185.492 124.672 185.491 124.675 185.491 124.677V124.68L185.488 124.713L185.483 124.746L185.482 124.748C185.482 124.75 185.482 124.753 185.481 124.755C185.481 124.761 185.48 124.77 185.479 124.781C185.475 124.802 185.47 124.834 185.464 124.875C185.451 124.958 185.433 125.081 185.409 125.238C185.361 125.551 185.289 126.005 185.195 126.569C185.008 127.695 184.733 129.265 184.382 131.036C183.683 134.556 182.664 138.963 181.4 142.282C180.401 144.906 178.758 148.633 177.379 151.678C176.827 152.897 176.313 154.012 175.896 154.912L186.441 154.514L186.47 154.513H186.545C186.573 154.513 186.614 154.514 186.666 154.514C186.77 154.515 186.92 154.517 187.103 154.521C187.467 154.529 187.971 154.545 188.525 154.577C189.569 154.637 191.01 154.763 191.97 155.08C193.111 155.458 194.16 156.217 194.859 156.794C195.224 157.096 195.527 157.377 195.74 157.583C195.847 157.687 195.933 157.773 195.993 157.834C196.023 157.865 196.047 157.89 196.064 157.908L248.529 207.556L248.741 207.756L248.862 208.021L247.499 208.646L248.862 208.022L248.865 208.028C248.867 208.031 248.869 208.037 248.872 208.043C248.878 208.056 248.886 208.074 248.896 208.096C248.917 208.142 248.947 208.208 248.983 208.292C249.057 208.461 249.16 208.704 249.284 209.006C249.531 209.609 249.86 210.454 250.188 211.422C250.828 213.312 251.528 215.855 251.498 218.013C251.47 220.065 250.773 222.472 250.146 224.261C249.824 225.178 249.505 225.977 249.266 226.547C249.146 226.833 249.046 227.062 248.975 227.222C248.939 227.302 248.911 227.364 248.892 227.408C248.882 227.429 248.874 227.446 248.868 227.458C248.866 227.464 248.863 227.469 248.861 227.472C248.861 227.474 248.86 227.476 248.859 227.477V227.478L248.858 227.479L248.746 227.72L248.558 227.909L209.558 266.769L209.45 266.875L209.324 266.958L208.499 265.706L209.323 266.959L209.321 266.96L209.307 266.97C209.297 266.976 209.283 266.985 209.266 266.996C209.231 267.019 209.182 267.05 209.12 267.089C208.995 267.168 208.815 267.281 208.591 267.414C208.144 267.682 207.516 268.041 206.788 268.411C205.382 269.125 203.421 269.977 201.645 270.151C199.313 270.379 196.641 269.506 194.722 268.709C193.727 268.296 192.862 267.872 192.246 267.551C191.937 267.39 191.689 267.254 191.516 267.158C191.429 267.109 191.361 267.071 191.313 267.043C191.29 267.03 191.271 267.019 191.258 267.011C191.251 267.007 191.246 267.004 191.242 267.001C191.24 267 191.238 266.999 191.237 266.998L191.236 266.997H191.235L191.998 265.706L191.234 266.997L191.097 266.915L190.979 266.806L156.479 234.832L156.47 234.825L157.499 233.733L156.47 234.824L144.47 223.51L144.429 223.472L144.392 223.431L139.926 218.549C139.904 218.529 139.875 218.501 139.84 218.467C139.761 218.391 139.65 218.281 139.515 218.144C139.244 217.87 138.873 217.483 138.471 217.03C137.695 216.155 136.693 214.91 136.136 213.701C135.492 212.302 135.227 210.485 135.107 209.147C135.045 208.453 135.017 207.836 135.006 207.393C135 207.171 134.999 206.991 134.998 206.865V206.689L134.53 182.31C134.128 182.361 133.672 182.421 133.181 182.482C131.469 182.693 129.32 182.942 127.626 183.086C123.732 183.417 121.472 183.629 117.481 183.583C110.737 183.506 106.755 183.275 100.125 181.569C93.1842 179.782 89.4263 177.96 83.2705 174.54C77.1565 171.144 73.475 169.033 68.4346 163.956C63.1571 158.641 61.151 154.684 57.6836 148.372C53.6675 141.062 51.3193 136.607 49.5322 128.289C47.3835 118.289 47.5815 112.086 49.5264 102.109C51.5995 91.474 54.4556 85.251 60.7803 76.4349C65.9958 69.1649 68.4308 65.9001 76.1211 60.3519C83.7516 54.8469 90.3999 51.4356 100.106 48.807ZM181.673 164.347C181.604 164.348 181.549 164.349 181.511 164.35C181.503 164.35 181.495 164.351 181.488 164.351H164.93L166.192 166.589L171.192 175.443L171.465 175.925L171.984 176.115C171.986 176.115 171.99 176.116 171.993 176.118C172.001 176.121 172.014 176.126 172.031 176.132C172.067 176.146 172.122 176.167 172.193 176.195C172.337 176.251 172.549 176.336 172.81 176.448C173.332 176.671 174.048 176.997 174.816 177.406C176.424 178.261 178.006 179.347 178.754 180.461C180.548 183.134 180.754 185.967 180.051 188.581C179.663 190.024 179.334 190.828 178.888 191.482C178.436 192.142 177.793 192.753 176.583 193.686C175.316 194.663 174.156 195.201 172.963 195.446C171.757 195.693 170.419 195.662 168.765 195.365C167.006 195.049 165.628 194.584 164.526 193.88C163.447 193.19 162.558 192.222 161.846 190.77C160.554 188.134 160.274 185.755 160.957 182.928C161.117 182.268 161.678 181.383 162.35 180.549C162.664 180.159 162.966 179.824 163.189 179.587C163.301 179.469 163.392 179.376 163.453 179.315C163.483 179.284 163.507 179.262 163.521 179.247L163.538 179.231L164.28 178.518L163.882 177.569V177.568L163.879 177.562C163.877 177.558 163.876 177.553 163.873 177.547C163.868 177.535 163.86 177.517 163.851 177.495C163.831 177.449 163.803 177.384 163.767 177.301C163.694 177.135 163.587 176.896 163.452 176.602C163.182 176.015 162.793 175.203 162.318 174.301C161.388 172.534 160.057 170.284 158.58 168.747C158.308 168.464 158.07 168.184 157.816 167.885C157.573 167.598 157.299 167.272 157 166.969C156.362 166.321 155.585 165.744 154.429 165.398C153.486 165.116 152.522 164.94 151.532 165.023C150.517 165.108 149.568 165.459 148.648 166.092C147.64 166.787 147.001 167.984 146.648 168.764C146.455 169.193 146.309 169.586 146.211 169.871C146.162 170.015 146.124 170.134 146.098 170.219C146.085 170.262 146.075 170.297 146.067 170.322C146.064 170.334 146.061 170.345 146.059 170.353C146.058 170.357 146.056 170.36 146.056 170.363C146.055 170.364 146.055 170.366 146.055 170.367L146.054 170.368V170.369L145.998 170.57L145.999 170.778V170.803C145.999 170.82 146 170.846 146 170.879C146 170.946 146 171.045 146.001 171.174C146.002 171.433 146.005 171.813 146.008 172.296C146.014 173.264 146.025 174.649 146.039 176.317C146.068 179.653 146.115 184.124 146.188 188.665C146.262 193.204 146.361 197.822 146.494 201.445C146.561 203.254 146.636 204.829 146.722 206.027C146.764 206.624 146.811 207.143 146.862 207.558C146.907 207.915 146.971 208.355 147.096 208.685C147.722 210.34 148.974 212.093 149.979 213.355C150.497 214.004 150.978 214.559 151.33 214.952C151.506 215.148 151.651 215.305 151.753 215.414C151.804 215.469 151.845 215.512 151.873 215.541C151.887 215.556 151.897 215.568 151.905 215.577L151.919 215.59L152.999 214.549L151.92 215.591L151.937 215.608L151.953 215.625L193.421 255.929C193.438 255.948 193.46 255.972 193.486 256C193.549 256.068 193.64 256.162 193.751 256.274C193.973 256.498 194.29 256.802 194.665 257.12C195.36 257.71 196.472 258.538 197.669 258.808C198.634 259.026 199.6 258.877 200.413 258.632C201.239 258.383 202.021 258.001 202.675 257.624C203.334 257.245 203.902 256.85 204.304 256.552C204.506 256.402 204.669 256.274 204.783 256.182C204.84 256.136 204.886 256.099 204.918 256.073C204.934 256.059 204.947 256.048 204.956 256.04C204.961 256.037 204.965 256.033 204.968 256.031C204.969 256.029 204.971 256.028 204.972 256.027L204.974 256.026V256.025L203.999 254.885L204.975 256.025L205.031 255.976L205.082 255.922L237.582 221.982L237.653 221.908L237.714 221.825L236.499 220.944L237.714 221.824L237.716 221.822C237.717 221.821 237.717 221.819 237.718 221.818C237.72 221.815 237.722 221.812 237.725 221.808C237.73 221.8 237.738 221.791 237.746 221.779C237.763 221.755 237.786 221.722 237.813 221.681C237.869 221.599 237.944 221.484 238.032 221.341C238.208 221.057 238.439 220.654 238.665 220.172C239.1 219.248 239.601 217.86 239.495 216.408C239.364 214.617 238.211 212.95 237.335 211.889C236.867 211.323 236.408 210.848 236.067 210.516C235.896 210.349 235.752 210.216 235.649 210.122C235.598 210.076 235.557 210.038 235.527 210.012C235.523 210.009 235.519 210.005 235.516 210.001L196.587 171.703C196.582 171.699 196.577 171.693 196.572 171.687C196.54 171.651 196.492 171.598 196.432 171.532C196.311 171.399 196.136 171.209 195.919 170.979C195.484 170.518 194.871 169.888 194.159 169.212C192.78 167.903 190.873 166.268 189.12 165.47C187.609 164.782 185.63 164.525 184.167 164.419C183.409 164.365 182.735 164.348 182.25 164.345C182.008 164.343 181.811 164.345 181.673 164.347Z" fill="white"/>
<path d="M75.4985 96.9854C75.4985 96.9854 69.7183 95.3203 68.4985 95.5097C66.3421 95.8447 65.4361 98.3082 64.4985 100.921C63.4563 103.824 63.5736 106.696 63.4986 109.775C63.4517 111.695 63.7495 113.271 63.9985 115.186C64.4263 118.475 64.512 119.393 65.4985 122.564C66.369 125.362 67.0806 126.959 68.4985 129.451C70.1227 132.305 70.9493 133.745 73.4985 135.845C76.2465 138.11 78.5974 139.651 81.9985 140.764C86.0913 142.104 89.2005 142.6 93.4985 142.24C98.3625 141.833 101.359 140.781 105.998 139.289C109.344 138.212 110.587 137.681 113.998 136.829C115.929 136.347 117.007 135.817 118.998 135.845C121.654 135.883 122.47 136.031 124.998 136.829C127.35 137.572 128.655 138.52 130.998 139.289C135.099 140.633 137.195 140.863 141.498 141.256C145.213 141.595 148.435 141.358 151.998 140.272C156.605 138.869 160.261 137.394 163.498 133.878C166.84 130.248 168.105 127.266 169.498 122.564C170.984 117.554 171.498 109.283 170.998 103.872C170.553 99.055 169.499 96.4934 167.499 95.5097C165.889 94.7177 156.498 97.9691 156.498 97.9691C151.604 99.2691 147.945 100.322 142.998 101.412C136.827 102.773 135.765 103.035 129.498 103.872C124.627 104.523 120.415 104.813 115.498 104.856C110.194 104.902 106.232 104.721 100.998 103.872C94.269 102.781 75.4985 96.9854 75.4985 96.9854Z" fill="#122231" stroke="#122231" stroke-width="3"/>
<path d="M88.9986 113.218C88.9986 113.218 86.7914 113.671 85.4986 115.186C84.6562 116.172 84.326 117.381 83.9987 118.629C83.6084 120.117 83.5599 121.089 83.9986 122.564C84.5471 124.408 85.4832 125.288 86.9986 126.499C88.3541 127.583 89.3137 128.015 90.9986 128.467C93.2592 129.073 95.2683 129.174 97.4985 128.467C98.997 127.992 99.6774 127.764 100.499 126.499C101.765 124.55 102.128 122.825 101.499 120.596C100.933 118.594 100.54 117.349 98.4986 115.677C96.4571 114.006 95.9986 113.71 93.9986 113.218C91.9986 112.726 88.9986 113.218 88.9986 113.218Z" fill="white"/>
<path d="M135.499 117.153C133.999 119.121 133.499 119.613 132.999 121.58C132.499 123.548 133.196 124.949 133.999 126.499C135.154 128.731 138.499 128.959 138.499 128.959C138.499 128.959 142.324 129.327 144.499 128.467C146.425 127.705 148.499 126.007 148.499 126.007C148.499 126.007 149.689 124.975 150.499 123.056C151.115 121.593 151.622 120.208 151.499 118.629C151.404 117.418 151.192 116.191 150.499 115.186C149.464 113.686 147.499 113.218 147.499 113.218C147.499 113.218 144.391 112.743 142.499 113.218C140.551 113.707 139.499 114.202 139.499 114.202C139.499 114.202 136.999 115.186 135.499 117.153Z" fill="white"/>
<path d="M88.9986 113.218C88.9986 113.218 86.7914 113.671 85.4986 115.186C84.6562 116.172 84.326 117.381 83.9987 118.629C83.6084 120.117 83.5599 121.089 83.9986 122.564C84.5471 124.408 85.4832 125.288 86.9986 126.499C88.3541 127.583 89.3137 128.015 90.9986 128.467C93.2592 129.073 95.2683 129.174 97.4985 128.467C98.997 127.992 99.6774 127.764 100.499 126.499C101.765 124.55 102.128 122.825 101.499 120.596C100.933 118.594 100.54 117.349 98.4986 115.677C96.4571 114.006 95.9986 113.71 93.9986 113.218C91.9986 112.726 88.9986 113.218 88.9986 113.218Z" stroke="white" stroke-width="3"/>
<path d="M135.499 117.153C133.999 119.121 133.499 119.613 132.999 121.58C132.499 123.548 133.196 124.949 133.999 126.499C135.154 128.731 138.499 128.959 138.499 128.959C138.499 128.959 142.324 129.327 144.499 128.467C146.425 127.705 148.499 126.007 148.499 126.007C148.499 126.007 149.689 124.975 150.499 123.056C151.115 121.593 151.622 120.208 151.499 118.629C151.404 117.418 151.192 116.191 150.499 115.186C149.464 113.686 147.499 113.218 147.499 113.218C147.499 113.218 144.391 112.743 142.499 113.218C140.551 113.707 139.499 114.202 139.499 114.202C139.499 114.202 136.999 115.186 135.499 117.153Z" stroke="white" stroke-width="3"/>
<path d="M192.979 189.82L207.479 241.469L207.547 241.708L207.396 241.906L204.396 245.842L203.791 246.636L203.518 245.676L188.518 193.043L188.429 192.732L188.676 192.524L192.176 189.573L192.77 189.072L192.979 189.82ZM210.383 207.668C211.787 207.335 212.71 207.335 214.114 207.668C215.442 207.983 216.618 208.482 217.766 209.208C218.348 209.577 218.884 210.108 219.264 210.529C219.456 210.742 219.614 210.934 219.725 211.073C219.78 211.142 219.823 211.199 219.854 211.239C219.865 211.253 219.874 211.266 219.881 211.276L219.883 211.278C219.884 211.279 219.885 211.281 219.887 211.282C219.89 211.286 219.894 211.293 219.9 211.3C219.913 211.315 219.931 211.336 219.953 211.364C219.998 211.419 220.061 211.499 220.139 211.599C220.293 211.799 220.504 212.084 220.73 212.422C221.178 213.09 221.711 214.001 221.978 214.899C222.378 216.249 222.498 217.078 222.498 218.485C222.498 219.216 222.364 219.995 222.236 220.577C222.172 220.871 222.107 221.121 222.059 221.298C222.034 221.386 222.014 221.457 221.999 221.506C221.992 221.53 221.986 221.55 221.982 221.564C221.98 221.57 221.979 221.576 221.978 221.579C221.977 221.581 221.976 221.582 221.976 221.583V221.585L221.974 221.592L221.973 221.594C221.972 221.595 221.972 221.596 221.972 221.597C221.971 221.6 221.969 221.605 221.967 221.611C221.963 221.622 221.958 221.638 221.951 221.657C221.937 221.697 221.916 221.755 221.891 221.824C221.839 221.965 221.764 222.16 221.67 222.375C221.488 222.793 221.212 223.345 220.875 223.732C220.515 224.145 220.246 224.457 219.925 224.705C219.592 224.963 219.223 225.14 218.675 225.347C217.119 225.934 216.08 225.998 214.459 225.869C213.485 225.792 212.446 225.535 211.664 225.304C211.27 225.187 210.935 225.075 210.698 224.992C210.58 224.951 210.486 224.916 210.421 224.892C210.388 224.88 210.362 224.871 210.345 224.865C210.336 224.861 210.33 224.858 210.325 224.857C210.323 224.856 210.321 224.854 210.319 224.854H210.317L210.263 224.832L210.214 224.798H210.213L210.211 224.797C210.21 224.796 210.208 224.794 210.205 224.792C210.2 224.789 210.193 224.784 210.185 224.778C210.167 224.765 210.141 224.747 210.108 224.723C210.043 224.675 209.948 224.607 209.832 224.518C209.599 224.34 209.275 224.082 208.909 223.764C208.182 223.131 207.271 222.238 206.584 221.225C205.59 219.759 204.747 218.592 204.502 216.577C204.305 214.958 204.434 213.921 205.033 212.399C205.561 211.058 206.028 210.226 207.174 209.249C208.234 208.346 209.046 207.986 210.383 207.668ZM179.847 207.678C181.034 207.301 182.055 207.193 183.075 207.304C184.086 207.414 185.072 207.737 186.185 208.183C187.93 208.883 188.952 209.434 190.341 210.742C190.943 211.309 191.336 211.694 191.646 212.147C191.957 212.602 192.172 213.105 192.466 213.88C192.982 215.241 192.998 216.129 192.998 217.5C192.998 218.833 193.072 219.796 192.453 221.152C191.956 222.242 191.813 222.811 190.849 223.76C190.394 224.208 190.03 224.512 189.611 224.754C189.197 224.993 188.751 225.158 188.154 225.354C187.387 225.605 186.823 225.743 186.265 225.813C185.712 225.881 185.18 225.881 184.491 225.871C183.583 225.859 182.936 225.816 182.304 225.66C181.671 225.505 181.079 225.244 180.271 224.833C178.86 224.116 178.059 223.504 177.099 222.229C176.231 221.076 175.442 220.139 175.017 218.619C174.838 217.979 174.71 217.551 174.629 217.119C174.545 216.676 174.51 216.233 174.498 215.542C174.47 213.996 174.429 212.964 175.032 211.416C175.485 210.254 175.933 210.047 176.631 209.291C177.692 208.143 178.584 208.079 179.847 207.678ZM210.417 211.682C210.382 211.682 210.333 211.683 210.272 211.685C210.152 211.689 209.986 211.699 209.799 211.72C209.447 211.759 208.942 211.845 208.562 212.067C208.053 212.363 207.806 212.866 207.694 213.357C207.583 213.846 207.592 214.384 207.642 214.862C207.692 215.344 207.787 215.796 207.868 216.124C207.909 216.289 207.948 216.426 207.976 216.521C207.989 216.568 208.001 216.605 208.009 216.631C208.013 216.644 208.017 216.656 208.02 216.663C208.021 216.666 208.021 216.669 208.021 216.671C208.022 216.672 208.022 216.673 208.022 216.674L208.023 216.675L208.031 216.698L208.04 216.72L208.042 216.723C208.043 216.725 208.045 216.73 208.047 216.735C208.051 216.744 208.057 216.759 208.065 216.777C208.082 216.813 208.105 216.865 208.135 216.93C208.194 217.06 208.278 217.241 208.376 217.445C208.57 217.848 208.83 218.359 209.073 218.749C209.437 219.332 209.853 219.739 210.232 220.059C210.419 220.216 210.603 220.357 210.757 220.478C210.916 220.603 211.043 220.706 211.146 220.808C211.445 221.102 211.867 221.375 212.312 221.625C212.764 221.879 213.277 222.131 213.773 222.375H213.774L213.775 222.376C214.294 222.632 215.167 222.981 216.023 223.196C216.452 223.303 216.895 223.381 217.299 223.391C217.687 223.401 218.119 223.35 218.456 223.117C218.671 222.969 218.797 222.755 218.869 222.554C218.942 222.353 218.974 222.131 218.986 221.915C219.011 221.485 218.956 220.993 218.882 220.547C218.806 220.097 218.706 219.667 218.624 219.353C218.583 219.195 218.547 219.064 218.521 218.973L218.48 218.837C218.48 218.834 218.478 218.832 218.478 218.83L218.477 218.827L218.478 218.826H218.477L218.467 218.795L218.453 218.765V218.764L218.447 218.751C218.443 218.742 218.437 218.728 218.429 218.711C218.413 218.677 218.389 218.628 218.36 218.567C218.302 218.444 218.219 218.271 218.122 218.073C217.929 217.68 217.673 217.175 217.433 216.757C216.687 215.463 216.144 214.596 214.787 213.648C214.077 213.152 213.124 212.409 212.15 212.105C211.792 211.993 211.397 211.89 211.097 211.816C210.945 211.778 210.815 211.748 210.724 211.727C210.678 211.716 210.641 211.707 210.616 211.701C210.604 211.699 210.594 211.697 210.587 211.696L210.576 211.694L210.577 211.693L210.526 211.682H210.476L210.47 211.681C210.467 211.681 210.463 211.681 210.458 211.681C210.448 211.681 210.434 211.682 210.417 211.682ZM181.81 211.218C181.137 211.078 180.731 210.948 179.904 211.106C179.555 211.172 179.171 211.294 178.836 211.491C178.501 211.689 178.18 211.985 178.027 212.413C177.506 213.88 177.955 215.162 178.536 216.553C178.94 217.519 179.336 218.017 179.965 218.79C180.371 219.289 180.962 219.841 181.436 220.257C181.675 220.467 181.891 220.648 182.047 220.777C182.124 220.84 182.188 220.892 182.231 220.927C182.253 220.944 182.27 220.958 182.282 220.967C182.288 220.972 182.293 220.976 182.296 220.979C182.297 220.98 182.299 220.981 182.3 220.982H182.301V220.983L182.321 220.998L182.344 221.013H182.345L182.346 221.014C182.347 221.015 182.348 221.016 182.35 221.017C182.353 221.019 182.36 221.022 182.366 221.027C182.38 221.035 182.399 221.048 182.424 221.063C182.474 221.094 182.547 221.137 182.638 221.191C182.819 221.297 183.074 221.442 183.367 221.596C183.944 221.899 184.713 222.259 185.386 222.414C186.018 222.56 186.776 222.766 187.442 222.828C188.101 222.89 188.86 222.832 189.371 222.26C189.876 221.694 189.874 220.849 189.742 220.114C189.604 219.341 189.29 218.503 188.951 217.78C188.667 217.174 188.141 216.401 187.707 215.803C187.486 215.499 187.282 215.231 187.133 215.038C187.059 214.942 186.997 214.864 186.955 214.811C186.934 214.784 186.918 214.763 186.906 214.749C186.901 214.742 186.897 214.736 186.894 214.733L186.889 214.728V214.727L186.883 214.72H186.882V214.719L186.881 214.718C186.88 214.717 186.88 214.716 186.879 214.715C186.876 214.712 186.872 214.707 186.868 214.702C186.859 214.692 186.846 214.677 186.83 214.657C186.797 214.618 186.748 214.562 186.688 214.493C186.567 214.356 186.396 214.165 186.197 213.954C185.805 213.539 185.277 213.017 184.791 212.667C183.785 211.943 182.913 211.448 181.81 211.218Z" fill="white"/>
<path d="M616.37 125V48H628.91L666.64 104.43V48H679.18V125H666.64L628.91 68.68V125H616.37ZM696.129 125V48H708.669V125H696.129ZM725.614 125V48H738.154L775.884 104.43V48H788.424V125H775.884L738.154 68.68V125H725.614ZM824.512 126.32C817.252 126.32 811.459 124.267 807.132 120.16C802.806 116.053 800.642 110.26 800.642 102.78H813.072C813.146 106.447 814.026 109.453 815.712 111.8C817.472 114.073 820.332 115.21 824.292 115.21C828.106 115.21 830.819 114.11 832.432 111.91C834.046 109.71 834.852 106.887 834.852 103.44V48H847.282V103.44C847.282 110.7 845.229 116.347 841.122 120.38C837.089 124.34 831.552 126.32 824.512 126.32ZM856.121 125L884.281 48H898.141L926.301 125H913.101L906.721 106.74H875.591L869.101 125H856.121ZM879.221 96.73H903.201L891.101 62.63L879.221 96.73Z" fill="#F67E2E"/>
</svg>
